<svg id="Capa_1" enable-background="new 0 0 498.361 498.361" height="512" viewBox="0 0 498.361 498.361" width="512" xmlns="http://www.w3.org/2000/svg"><path d="m373.147 299.11h-123.155v-39.607c0-4.142-3.357-7.5-7.5-7.5h-110.202c-4.143 0-7.5 3.358-7.5 7.5v47.107 174.694c0 4.142 3.357 7.5 7.5 7.5h240.857c4.143 0 7.5-3.358 7.5-7.5v-53.721c0-4.142-3.357-7.5-7.5-7.5s-7.5 3.358-7.5 7.5v46.221h-225.857v-159.694h225.857v83.364c0 4.142 3.357 7.5 7.5 7.5s7.5-3.358 7.5-7.5v-90.864c0-4.142-3.357-7.5-7.5-7.5zm-138.155-32.108v32.107h-95.202v-32.107z"/><path d="m490.861 38.53h-59.301v-21.472c0-4.142-3.357-7.5-7.5-7.5h-56.344c-4.143 0-7.5 3.358-7.5 7.5v28.972 89.316c0 4.142 3.357 7.5 7.5 7.5h66.844v39.271h-174.341v-39.271h50.534c4.143 0 7.5-3.358 7.5-7.5v-89.316c0-4.142-3.357-7.5-7.5-7.5h-59.301v-21.472c0-4.142-3.357-7.5-7.5-7.5h-56.344c-4.143 0-7.5 3.358-7.5 7.5v28.972 89.316c0 4.142 3.357 7.5 7.5 7.5h57.61v39.271h-184.342v-39.271h69.769c4.143 0 7.5-3.358 7.5-7.5v-28.972c0-4.142-3.357-7.5-7.5-7.5s-7.5 3.358-7.5 7.5v21.472h-108.145v-74.316h108.145v22.104c0 4.142 3.357 7.5 7.5 7.5s7.5-3.358 7.5-7.5v-29.604c0-4.142-3.357-7.5-7.5-7.5h-59.301v-21.472c0-4.142-3.357-7.5-7.5-7.5h-56.344c-4.143 0-7.5 3.358-7.5 7.5v28.972 89.316c0 4.142 3.357 7.5 7.5 7.5h38.376v46.771c0 4.142 3.357 7.5 7.5 7.5h191.843v25h-18.2c-4.143 0-7.5 3.358-7.5 7.5s3.357 7.5 7.5 7.5h54.048c4.143 0 7.5-3.358 7.5-7.5s-3.357-7.5-7.5-7.5h-20.848v-25h181.842c4.143 0 7.5-3.358 7.5-7.5v-46.771h41.301c4.143 0 7.5-3.358 7.5-7.5v-89.316c-.001-4.142-3.358-7.5-7.501-7.5zm-254.409-13.972v13.972h-41.344v-13.972zm-41.344 28.972h108.145v74.316h-108.145zm-138.764-28.972v13.972h-41.344v-13.972zm360.217 0v13.972h-41.344v-13.972zm66.8 103.288h-108.144v-74.316h108.145v74.316z"/><path d="m210.363 417.934c0 4.142 3.357 7.5 7.5 7.5s7.5-3.358 7.5-7.5c0-11.372 9.252-20.623 20.623-20.623s20.623 9.251 20.623 20.623c0 4.142 3.357 7.5 7.5 7.5s7.5-3.358 7.5-7.5c0-19.643-15.98-35.623-35.623-35.623s-35.623 15.98-35.623 35.623z"/><path d="m303.253 417.934c0 4.142 3.357 7.5 7.5 7.5s7.5-3.358 7.5-7.5c0-39.848-32.419-72.267-72.267-72.267s-72.267 32.419-72.267 72.267c0 4.142 3.357 7.5 7.5 7.5s7.5-3.358 7.5-7.5c0-31.577 25.689-57.267 57.267-57.267s57.267 25.69 57.267 57.267z"/></svg>