<svg id="Capa_1" enable-background="new 0 0 499.34 499.34" height="512" viewBox="0 0 499.34 499.34" width="512" xmlns="http://www.w3.org/2000/svg"><path d="m220.833 55.58c0 4.142 3.358 7.5 7.5 7.5s7.5-3.358 7.5-7.5c0-7.376 6.001-13.377 13.377-13.377s13.377 6.001 13.377 13.377c0 4.142 3.358 7.5 7.5 7.5s7.5-3.358 7.5-7.5c0-15.647-12.73-28.377-28.377-28.377s-28.377 12.729-28.377 28.377z"/><path d="m201.131 63.08c4.142 0 7.5-3.358 7.5-7.5 0-22.376 18.204-40.58 40.58-40.58s40.58 18.204 40.58 40.58c0 4.142 3.358 7.5 7.5 7.5s7.5-3.358 7.5-7.5c0-30.647-24.933-55.58-55.58-55.58s-55.58 24.933-55.58 55.58c0 4.142 3.358 7.5 7.5 7.5z"/><path d="m439.87 184.833c4.142 0 7.5-3.358 7.5-7.5v-92.995c0-4.142-3.358-7.5-7.5-7.5h-276.797c-4.142 0-7.5 3.358-7.5 7.5s3.358 7.5 7.5 7.5h269.297v77.995h-364.481v-43.722c0-18.898 15.375-34.273 34.273-34.273h30.803c4.142 0 7.5-3.358 7.5-7.5s-3.358-7.5-7.5-7.5h-30.803c-27.169 0-49.273 22.104-49.273 49.273v51.222c0 4.142 3.358 7.5 7.5 7.5h28.463v30.159h-28.463c-4.142 0-7.5 3.358-7.5 7.5v92.995c0 4.142 3.358 7.5 7.5 7.5h28.463v30.159h-29.382c-4.142 0-7.5 3.358-7.5 7.5v92.995c0 4.142 3.358 7.5 7.5 7.5h29.381v30.698c0 4.142 3.358 7.5 7.5 7.5h38.979c4.142 0 7.5-3.358 7.5-7.5v-30.698h218.71v30.698c0 4.142 3.358 7.5 7.5 7.5h38.979c4.142 0 7.5-3.358 7.5-7.5v-31.661c17.677-3.958 30.932-19.764 30.932-38.617v-60.914c0-4.142-3.358-7.5-7.5-7.5h-23.431v-30.159h24.35c4.142 0 7.5-3.358 7.5-7.5v-92.995c0-4.142-3.358-7.5-7.5-7.5h-24.35v-30.159h24.35zm-336.019 0h23.979v30.159h-23.979zm0 138.155h23.979v30.159h-23.979zm23.98 161.352h-23.979v-23.198h23.979zm248.709 0v-23.198h23.979v23.198zm54.912-62.779c0 13.554-11.027 24.581-24.582 24.581h-339.9v-77.995h169.489c4.142 0 7.5-3.358 7.5-7.5s-3.358-7.5-7.5-7.5h-93.628v-30.159h218.709v30.159h-94.468c-4.142 0-7.5 3.358-7.5 7.5s3.358 7.5 7.5 7.5h164.379v53.414zm-30.932-68.414h-23.98v-30.159h23.979v30.159zm31.85-45.159h-364.481v-77.995h364.481zm-55.83-92.996v-30.022h23.979v30.022zm-15 0h-218.709v-30.159h218.709z"/><circle cx="396.2" cy="133.169" r="11.67"/><circle cx="349.764" cy="133.169" r="11.67"/><circle cx="303.327" cy="133.169" r="11.67"/><circle cx="396.2" cy="409.478" r="11.67"/><circle cx="349.764" cy="409.478" r="11.67"/><circle cx="303.327" cy="409.478" r="11.67"/><circle cx="292.566" cy="271.323" r="11.67"/><circle cx="246.129" cy="271.323" r="11.67"/><circle cx="199.692" cy="271.323" r="11.67"/></svg>