<svg id="Capa_1" enable-background="new 0 0 509.681 509.681" height="512" viewBox="0 0 509.681 509.681" width="512" xmlns="http://www.w3.org/2000/svg"><path d="m509.681 146.239c0-79.951-65.044-144.995-144.995-144.995-47.991 0-90.603 23.442-117.008 59.47-.305-.038-.614-.064-.93-.064h-96.417c-5.519-9.027-15.467-15.064-26.8-15.064-17.309 0-31.391 14.082-31.391 31.391 0 10.453 5.14 19.722 13.02 25.43-.232 1.902-.35 3.821-.35 5.743v74.89c-39.165 3.915-69.849 37.059-69.849 77.238v33.711c-19.848 3.57-34.961 20.956-34.961 41.818v130.13c0 23.435 19.065 42.5 42.5 42.5h140.181c23.435 0 42.5-19.065 42.5-42.5v-42.91h110.327c5.686 5.702 13.546 9.235 22.215 9.235 17.309 0 31.391-14.082 31.391-31.391 0-12.237-7.043-22.853-17.284-28.029v-81.272c0-.173-.014-.342-.026-.512 76.657-3.724 137.877-67.255 137.877-144.819zm-244.569 39.206c13.523 4.463 29.27 7.905 46.385 10.221 4.249 31.492 12.599 59.92 24.758 77.429-49.543-11.097-88.495-50.551-98.849-100.367 6.661 4.408 15.646 8.737 27.706 12.717zm-30.422-39.206c0-11.805 27.564-27.088 75.042-34.079-.987 11.098-1.5 22.543-1.5 34.079 0 11.358.52 22.831 1.541 34.086-47.503-6.988-75.083-22.277-75.083-34.086zm129.996 129.996c-9.384 0-19.683-13.191-27.55-35.287-4.503-12.648-7.988-27.43-10.344-43.557 12.199 1.126 24.911 1.721 37.893 1.721s25.695-.595 37.893-1.721c-2.356 16.127-5.841 30.909-10.344 43.557-7.865 22.095-18.164 35.287-27.548 35.287zm0-92.123c-14.251 0-27.523-.693-39.726-1.918-1.13-11.555-1.728-23.615-1.728-35.955 0-12.217.592-24.314 1.737-35.955 12.2-1.224 25.469-1.917 39.716-1.917 14.251 0 27.523.693 39.726 1.918 1.13 11.554 1.727 23.615 1.727 35.954 0 12.34-.597 24.4-1.728 35.955-12.201 1.224-25.473 1.918-39.724 1.918zm54.912-71.958c47.503 6.988 75.083 22.276 75.083 34.085s-27.58 27.098-75.083 34.085c1.021-11.255 1.541-22.727 1.541-34.085s-.52-22.83-1.541-34.085zm72.367 7.597c-6.66-4.409-15.645-8.738-27.705-12.717-13.523-4.462-29.27-7.905-46.385-10.221-4.249-31.492-12.599-59.92-24.758-77.429 49.543 11.097 88.495 50.551 98.848 100.367zm-155.675-100.374c-4.296 6.171-8.533 14.293-12.494 24.951-1.443 3.883.535 8.2 4.417 9.643 3.881 1.442 8.2-.534 9.643-4.417 7.751-20.857 17.781-33.309 26.83-33.309 9.384 0 19.683 13.191 27.55 35.287 4.503 12.648 7.988 27.43 10.344 43.557-12.199-1.126-24.911-1.721-37.893-1.721-12.973 0-25.677.594-37.868 1.719.829-5.675 1.794-11.196 2.898-16.512.842-4.056-1.762-8.026-5.818-8.869-4.053-.842-8.026 1.762-8.869 5.818-1.416 6.818-2.618 13.948-3.601 21.299-17.089 2.316-32.813 5.756-46.318 10.213-12.06 3.98-21.045 8.309-27.705 12.717 10.356-49.829 49.324-89.29 98.884-100.376zm-212.758 41.209c9.038 0 16.39 7.353 16.39 16.391s-7.353 16.39-16.39 16.39-16.391-7.353-16.391-16.39c0-9.038 7.353-16.391 16.391-16.391zm-10.941 137.064c34.533 0 62.628 28.095 62.628 62.628v33.028h-19v-33.028c0-24.057-19.572-43.628-43.628-43.628-24.057 0-43.629 19.572-43.629 43.628v33.028h-19v-33.028c0-34.532 28.096-62.628 62.629-62.628zm-28.629 95.657v-33.028c0-15.786 12.843-28.628 28.629-28.628s28.628 12.843 28.628 28.628v33.028zm141.219 114.72v-22.183c0-4.142-3.358-7.5-7.5-7.5s-7.5 3.358-7.5 7.5v80.093c0 15.164-12.336 27.5-27.5 27.5h-140.181c-15.164 0-27.5-12.336-27.5-27.5v-130.13c0-15.164 12.336-27.5 27.5-27.5h140.181c15.164 0 27.5 12.336 27.5 27.5v19.929c0 4.142 3.358 7.5 7.5 7.5s7.5-3.358 7.5-7.5v-19.929c0-20.861-15.113-38.247-34.962-41.817v-33.711c0-40.369-30.977-73.625-70.408-77.281v-74.848c0-.004 0-.007 0-.011 1.221.145 2.461.228 3.72.228 17.309 0 31.39-14.082 31.39-31.39 0-.445-.015-.886-.034-1.326h83.186c-11.7 20.903-18.384 44.979-18.384 70.589 0 77.324 60.843 140.702 137.167 144.782-.013.182-.028.363-.028.549v77.934c-16.896.476-30.497 14.358-30.497 31.367 0 2.462.294 4.855.832 7.155zm132.542 9.235c-9.038 0-16.39-7.353-16.39-16.391s7.353-16.39 16.39-16.39c1.668 0 3.277.254 4.795.719.011.002.021.006.032.008 6.689 2.066 11.564 8.305 11.564 15.663 0 9.038-7.353 16.391-16.391 16.391zm35.394-144.167c12.16-17.509 20.51-45.937 24.758-77.429 17.115-2.316 32.862-5.759 46.385-10.221 12.059-3.979 21.045-8.309 27.705-12.717-10.354 49.816-49.306 89.27-98.848 100.367z"/><path d="m112.591 350.917c-19.742 0-35.803 16.061-35.803 35.803v56.606c0 4.142 3.358 7.5 7.5 7.5h56.606c4.142 0 7.5-3.358 7.5-7.5v-56.606c0-19.741-16.061-35.803-35.803-35.803zm20.803 84.909h-41.606v-49.106c0-11.471 9.333-20.803 20.803-20.803s20.803 9.332 20.803 20.803z"/></svg>