<svg id="Capa_1" enable-background="new 0 0 504.444 504.444" height="512" viewBox="0 0 504.444 504.444" width="512" xmlns="http://www.w3.org/2000/svg"><path d="m443.443 96.807c.043-1.162.065-2.317.065-3.46.001-51.472-41.875-93.347-93.347-93.347-18.117 0-35.689 5.198-50.815 15.032-3.473 2.258-4.458 6.903-2.2 10.376s6.905 4.457 10.376 2.2c12.687-8.248 27.431-12.608 42.639-12.608 43.201 0 78.348 35.146 78.348 78.347 0 2.357-.112 4.785-.334 7.216-.286 3.132 1.413 6.11 4.255 7.458 26.173 12.414 43.084 39.027 43.084 67.8 0 41.341-33.633 74.974-74.974 74.974h-3.012v-58.79c0-20.748-16.88-37.627-37.628-37.627h-216.77c4.139-13.726 12.213-26.143 23.309-35.602 13.563-11.562 30.789-17.929 48.504-17.929h7.176c3.499 0 6.532-2.419 7.312-5.829 2.368-10.362 11.455-17.6 22.098-17.6 3.95 0 7.845 1.037 11.261 2.998 2.061 1.182 4.558 1.319 6.731.371 2.176-.949 3.774-2.871 4.31-5.184 2.419-10.449 6.895-20.14 13.302-28.802 2.464-3.33 1.761-8.027-1.569-10.49s-8.026-1.761-10.489 1.569c-5.884 7.954-10.401 16.639-13.485 25.907-3.264-.905-6.649-1.37-10.06-1.37-15.612 0-29.211 9.377-34.892 23.429h-1.693c-21.279 0-41.96 7.641-58.235 21.514-14.447 12.316-24.621 28.833-29.118 47.017h-76.035c-20.748 0-37.627 16.879-37.627 37.627v200.972 9.172c0 20.748 16.879 37.627 37.627 37.627h96.497v21.975h-12.329c-7.823 0-13.916 2.205-18.107 6.553-6.692 6.941-6.321 17.065-6.076 23.765.063 1.699.121 3.303.051 4.396-.132 2.068.598 4.098 2.015 5.609 1.418 1.511 3.397 2.368 5.47 2.368h173.382c2.072 0 4.052-.857 5.47-2.369s2.147-3.542 2.015-5.609c-.068-1.079-.028-2.629.015-4.27.178-6.778.445-17.021-6.335-23.98-4.178-4.289-10.17-6.463-17.812-6.463h-12.408v-21.975h96.495c20.748 0 37.628-16.879 37.628-37.627v-9.172-52.931c0-4.142-3.357-7.5-7.5-7.5s-7.5 3.358-7.5 7.5v45.431h-353.598v-176.798h353.598v101.26c0 4.142 3.357 7.5 7.5 7.5s7.5-3.358 7.5-7.5v-44.143h3.012c49.611 0 89.974-40.362 89.974-89.974 0-32.824-18.314-63.295-47.071-79.014zm-167.631 379.946c2.366 0 5.514.335 7.067 1.93 1.972 2.023 2.187 6.659 2.135 10.761h-158.55c-.104-4.063.026-8.728 1.953-10.727 1.564-1.623 4.838-1.964 7.309-1.964h19.829 100.35zm-112.758-15v-21.975h85.35v21.975zm219.474-61.275v1.672c0 12.477-10.15 22.627-22.628 22.627h-308.343c-12.477 0-22.627-10.151-22.627-22.627v-1.672zm0-206.8h-353.598v-1.673c0-12.477 10.15-22.627 22.627-22.627h308.343c12.478 0 22.628 10.151 22.628 22.627z"/><path d="m307.947 285.14c-3.287-11.786-14.111-20.461-26.931-20.461s-23.644 8.675-26.931 20.461h-20.099c-3.287-11.786-14.112-20.461-26.931-20.461s-23.644 8.675-26.931 20.461h-20.099c-3.287-11.786-14.112-20.461-26.931-20.461s-23.644 8.675-26.931 20.461h-23.026c-4.142 0-7.5 3.358-7.5 7.5s3.358 7.5 7.5 7.5h23.026c3.287 11.786 14.112 20.461 26.931 20.461s23.644-8.675 26.931-20.461h20.099c3.287 11.786 14.112 20.461 26.931 20.461 12.82 0 23.645-8.675 26.931-20.461h20.099c3.287 11.786 14.111 20.461 26.931 20.461s23.644-8.675 26.931-20.461h19.957c4.143 0 7.5-3.358 7.5-7.5s-3.357-7.5-7.5-7.5zm-174.854 20.461c-7.146 0-12.961-5.814-12.961-12.961s5.814-12.961 12.961-12.961 12.961 5.814 12.961 12.961-5.814 12.961-12.961 12.961zm73.961 0c-7.146 0-12.961-5.814-12.961-12.961s5.814-12.961 12.961-12.961 12.961 5.814 12.961 12.961-5.814 12.961-12.961 12.961zm73.962 0c-7.146 0-12.961-5.814-12.961-12.961s5.814-12.961 12.961-12.961 12.961 5.814 12.961 12.961-5.815 12.961-12.961 12.961z"/></svg>