<svg id="Capa_1" enable-background="new 0 0 506.358 506.358" height="512" viewBox="0 0 506.358 506.358" width="512" xmlns="http://www.w3.org/2000/svg"><path d="m496.814 412.803h-9.951v-231.294c25.217-48.608 18.879-122.803 18.554-126.391-.352-3.864-3.59-6.822-7.47-6.822-49.326 0-69.997-18.451-70.156-18.596-2.895-2.744-7.428-2.744-10.322 0-.196.186-20.187 18.596-70.156 18.596-3.88 0-7.118 2.958-7.47 6.822-.197 2.173-2.598 30.238 1.135 62.833h-203.812c-4.143 0-7.5 3.358-7.5 7.5s3.357 7.5 7.5 7.5h205.951c.969 5.613 2.148 11.261 3.572 16.846h-284.584c-6.942 0-12.808 5.865-12.808 12.808v250.198h-16.846v-250.198c0-16.351 13.303-29.654 29.654-29.654h44.953c4.143 0 7.5-3.358 7.5-7.5s-3.357-7.5-7.5-7.5h-44.953c-24.622 0-44.654 20.032-44.654 44.654v250.198h-9.951c-4.143 0-7.5 3.358-7.5 7.5v15.969c0 23.404 19.041 42.444 42.445 42.444h342.613c4.143 0 7.5-3.358 7.5-7.5s-3.357-7.5-7.5-7.5h-342.613c-15.133 0-27.445-12.311-27.445-27.444v-8.469h474.314v8.469c0 15.133-12.312 27.444-27.445 27.444h-46.703c-4.143 0-7.5 3.358-7.5 7.5s3.357 7.5 7.5 7.5h46.703c23.404 0 42.445-19.041 42.445-42.444v-15.969c0-4.142-3.357-7.5-7.5-7.5zm-24.951-210.01v210.01h-16.847v-197.223c6.12-3.243 11.743-7.508 16.847-12.787zm-117.503-139.615c37.508-1.27 59.133-12.484 68.27-18.632 9.137 6.148 30.762 17.362 68.27 18.632.941 19.322 1.746 76.021-17.96 112.633-.118.196-.227.398-.327.605-2.97 5.421-6.393 10.393-10.346 14.719-5.161 5.647-10.912 9.864-17.33 12.704-.27.099-.532.211-.786.339-6.471 2.727-13.612 4.081-21.521 4.081-16.141 0-29.106-5.602-39.637-17.124-8.633-9.446-14.76-21.96-19.084-35.562-.08-.338-.182-.666-.305-.984-10.697-34.46-10.016-75.543-9.244-91.411zm-290.062 101.619h286.918c4.85 13.705 11.526 26.407 20.689 36.439 13.347 14.613 30.413 22.022 50.726 22.022 6.094 0 11.89-.681 17.387-2.009v191.553h-375.72z"/><path d="m248.365 200.11c-40.46 0-73.377 32.917-73.377 73.376s32.917 73.376 73.377 73.376 73.376-32.917 73.376-73.376-32.916-73.376-73.376-73.376zm0 131.753c-32.189 0-58.377-26.188-58.377-58.376s26.188-58.376 58.377-58.376c32.188 0 58.376 26.188 58.376 58.376s-26.187 58.376-58.376 58.376z"/><path d="m264.593 253.189-22.182 24.021-9.936-12.375c-2.595-3.229-7.316-3.747-10.544-1.152-3.23 2.593-3.746 7.314-1.153 10.544l15.387 19.164c1.367 1.702 3.408 2.724 5.59 2.8.086.003.173.004.259.004 2.089 0 4.088-.872 5.51-2.412l28.089-30.417c2.811-3.043 2.621-7.788-.422-10.598-3.044-2.811-7.79-2.621-10.598.421z"/><path d="m384.677 151.375h12.904v12.904c0 4.142 3.357 7.5 7.5 7.5h37.099c4.143 0 7.5-3.358 7.5-7.5v-12.904h12.903c4.143 0 7.5-3.358 7.5-7.5v-37.098c0-4.142-3.357-7.5-7.5-7.5h-12.903v-12.904c0-4.142-3.357-7.5-7.5-7.5h-37.099c-4.143 0-7.5 3.358-7.5 7.5v12.904h-12.904c-4.143 0-7.5 3.358-7.5 7.5v37.098c0 4.142 3.357 7.5 7.5 7.5zm7.5-37.098h12.904c4.143 0 7.5-3.358 7.5-7.5v-12.904h22.099v12.904c0 4.142 3.357 7.5 7.5 7.5h12.903v22.098h-12.903c-4.143 0-7.5 3.358-7.5 7.5v12.904h-22.099v-12.904c0-4.142-3.357-7.5-7.5-7.5h-12.904z"/></svg>