<svg id="Capa_1" enable-background="new 0 0 509.13 509.13" height="512" viewBox="0 0 509.13 509.13" width="512" xmlns="http://www.w3.org/2000/svg"><path d="m379.461 189.215c35.726 0 64.79-29.065 64.79-64.791 0-23.166-12.667-44.705-32.661-56.208.006-.362.009-.723.009-1.082 0-37.018-30.117-67.134-67.134-67.134-28.595 0-53.436 17.679-63.017 43.897-1.805-.356-3.647-.538-5.499-.538-11.258 0-21.13 6.455-25.736 16.276-25.007.124-46.695 14.498-57.384 35.391v-16.394c0-4.142-3.357-7.5-7.5-7.5h-110.202c-4.143 0-7.5 3.358-7.5 7.5v47.107 174.694c0 4.142 3.357 7.5 7.5 7.5h57.12c4.143 0 7.5-3.358 7.5-7.5s-3.357-7.5-7.5-7.5h-49.62v-159.694h225.857v99.402h-47.307c-.079 0-.157.005-.236.006-2.292-37.798-33.755-67.85-72.119-67.85-39.848 0-72.267 32.418-72.267 72.267 0 4.142 3.357 7.5 7.5 7.5s7.5-3.358 7.5-7.5c0-31.577 25.689-57.267 57.267-57.267 31.189 0 56.617 25.067 57.237 56.111-12.454 5.645-21.217 18.031-21.609 32.477-.011.168-.026.336-.026.507v24.041h-62.071c-4.143 0-7.5 3.358-7.5 7.5s3.357 7.5 7.5 7.5h62.071v160.232c0 .732.11 1.438.305 2.107-.196.669-.305 1.375-.305 2.107 0 20.265 16.487 36.752 36.752 36.752h107.641c20.265 0 36.752-16.487 36.752-36.752 0-.732-.11-1.438-.305-2.107.196-.669.305-1.375.305-2.107v-81.796c0-4.142-3.357-7.5-7.5-7.5s-7.5 3.358-7.5 7.5v74.296h-151.143v-184.273h151.144v76.947c0 4.142 3.357 7.5 7.5 7.5s7.5-3.358 7.5-7.5v-84.447c0-.171-.014-.339-.026-.507-.538-19.799-16.8-35.743-36.726-35.743h-45.334v-43.426h55.977zm-10.643 304.915h-107.64c-10.877 0-19.915-8.025-21.504-18.465h150.648c-1.589 10.44-10.627 18.465-21.504 18.465zm20.221-232.738h-148.082c3.195-8.045 11.051-13.75 20.22-13.75h107.641c9.169-.001 17.026 5.705 20.221 13.75zm-211.21-175.26v32.107h-95.202v-32.107zm23.314 32.107c3.057-24.544 24.034-43.605 49.393-43.605h4.984c3.498 0 6.532-2.418 7.312-5.829 1.405-6.15 6.8-10.446 13.117-10.446 2.345 0 4.656.615 6.684 1.779 2.059 1.182 4.558 1.318 6.73.37 2.176-.949 3.774-2.871 4.31-5.184 5.495-23.742 26.381-40.324 50.792-40.324 28.747 0 52.134 23.387 52.134 52.134 0 1.566-.075 3.184-.223 4.808-.284 3.131 1.415 6.107 4.256 7.455 17.386 8.246 28.619 25.921 28.619 45.028 0 27.455-22.336 49.791-49.79 49.791h-55.977v-48.476c0-4.142-3.357-7.5-7.5-7.5h-114.841z"/><path d="m160.7 244.563c4.143 0 7.5-3.358 7.5-7.5 0-11.372 9.252-20.623 20.623-20.623s20.623 9.251 20.623 20.623c0 4.142 3.357 7.5 7.5 7.5s7.5-3.358 7.5-7.5c0-19.643-15.98-35.623-35.623-35.623s-35.623 15.98-35.623 35.623c0 4.143 3.358 7.5 7.5 7.5z"/><path d="m156.304 421.127c-20.75-4.473-39.051-15.284-52.922-31.266-13.423-15.463-21.779-35.15-23.529-55.433-.356-4.127-3.978-7.187-8.118-6.827-4.126.356-7.183 3.99-6.827 8.117 2.021 23.417 11.662 46.137 27.146 63.976 10.58 12.189 23.39 21.773 37.77 28.363l-8.107 2.417c-3.969 1.184-6.228 5.361-5.044 9.331.971 3.255 3.953 5.359 7.185 5.359.709 0 1.432-.102 2.146-.314l30.864-9.203c3.281-.979 5.483-4.056 5.351-7.478s-2.568-6.32-5.915-7.042z"/><path d="m376.334 297.433c0-4.142-3.357-7.5-7.5-7.5h-107.672c-4.143 0-7.5 3.358-7.5 7.5v30.865c0 4.142 3.357 7.5 7.5 7.5h107.672c4.143 0 7.5-3.358 7.5-7.5zm-15 23.364h-92.672v-15.865h92.672z"/><path d="m376.334 352.779c0-4.142-3.357-7.5-7.5-7.5h-107.672c-4.143 0-7.5 3.358-7.5 7.5v30.865c0 4.142 3.357 7.5 7.5 7.5h107.672c4.143 0 7.5-3.358 7.5-7.5zm-15 23.365h-92.672v-15.865h92.672z"/><path d="m368.834 400.625h-107.672c-4.143 0-7.5 3.358-7.5 7.5v30.865c0 4.142 3.357 7.5 7.5 7.5h107.672c4.143 0 7.5-3.358 7.5-7.5v-30.865c0-4.142-3.358-7.5-7.5-7.5zm-7.5 30.865h-92.672v-15.865h92.672z"/></svg>