<svg id="Capa_1" enable-background="new 0 0 512 512" height="512" viewBox="0 0 512 512" width="512" xmlns="http://www.w3.org/2000/svg"><path d="m179.673 311.953c36.345 38.547 72.52 50.428 74.042 50.915.743.238 1.514.356 2.285.356s1.542-.119 2.285-.356c2.827-.904 69.716-23.088 112.561-105.435 1.912-3.675.483-8.203-3.191-10.115-3.676-1.913-8.204-.483-10.115 3.191-20.814 40.004-47.897 64.52-66.952 78.042-16.162 11.468-29.458 17.205-34.594 19.195-8.149-3.147-36.752-15.692-65.406-46.083-19.915-21.122-35.795-46.532-47.201-75.524-14.35-36.479-21.626-78.782-21.626-125.735 0-11.218.587-22.435 1.747-33.448 4.521.761 9.112 1.145 13.726 1.145 25.393 0 49.371-11.798 64.913-31.746h108.118c15.542 19.948 39.52 31.746 64.913 31.746 4.473 0 8.93-.362 13.322-1.079 1.156 10.995 1.741 22.189 1.741 33.383 0 46.12-7.023 87.771-20.873 123.798-1.486 3.866.443 8.206 4.309 9.692 3.865 1.486 8.205-.443 9.692-4.309 14.513-37.751 21.872-81.214 21.872-129.181 0-14.608-.952-29.224-2.829-43.442-.284-2.148-1.482-4.068-3.288-5.267-1.805-1.198-4.04-1.558-6.13-.985-5.785 1.586-11.779 2.39-17.815 2.39-21.843 0-42.406-10.679-55.007-28.565-1.405-1.994-3.692-3.181-6.131-3.181h-115.669c-2.439 0-4.727 1.187-6.131 3.181-12.601 17.887-33.165 28.565-55.007 28.565-6.167 0-12.281-.836-18.172-2.485-2.093-.587-4.337-.235-6.151.961-1.814 1.197-3.021 3.122-3.306 5.276-1.887 14.249-2.843 28.902-2.843 43.551 0 48.84 7.626 92.991 22.667 131.226 12.107 30.78 29.012 57.804 50.244 80.323z"/><path d="m374.095 91.02c-.118-3.815-3.082-6.934-6.886-7.245-23.544-1.924-45.635-12.284-62.203-29.173-1.411-1.438-3.34-2.248-5.354-2.248h-86.894c-2.014 0-3.943.81-5.354 2.248-16.669 16.991-38.896 27.363-62.585 29.204-3.817.297-6.798 3.421-6.916 7.249-.095 3.109-.143 6.255-.143 9.35 0 43.938 6.602 83.495 19.621 117.571 10.268 26.874 24.565 50.483 42.496 70.174 21.593 23.712 44.1 36.34 52.774 40.668 1.054.526 2.202.789 3.349.789s2.294-.263 3.349-.789c8.674-4.328 31.181-16.956 52.774-40.668 17.929-19.689 32.227-43.298 42.496-70.174 13.02-34.076 19.621-73.632 19.621-117.571-.001-3.118-.049-6.276-.145-9.385zm-33.489 121.602c-9.597 25.117-22.912 47.13-39.575 65.428-17.52 19.239-35.566 30.494-45.032 35.604-9.466-5.11-27.512-16.365-45.032-35.604-16.663-18.299-29.978-40.313-39.575-65.428-12.364-32.36-18.633-70.116-18.633-112.217 0-.79.003-1.583.01-2.378 23.693-3.287 45.781-14.008 63.074-30.672h80.722c17.183 16.558 39.126 27.257 62.663 30.614.007.814.01 1.626.01 2.436.001 42.101-6.268 79.856-18.632 112.217z"/><path d="m7.5 437.368h71.253c4.142 0 7.5-3.358 7.5-7.5s-3.358-7.5-7.5-7.5h-71.253c-4.142 0-7.5 3.358-7.5 7.5s3.358 7.5 7.5 7.5z"/><path d="m504.5 460.334h-208.323c1.045-3.651 1.617-7.501 1.617-11.483s-.572-7.832-1.617-11.483h208.323c4.142 0 7.5-3.358 7.5-7.5s-3.358-7.5-7.5-7.5h-216.193c-6.16-7.501-14.879-12.817-24.807-14.624v-26.434c0-4.142-3.358-7.5-7.5-7.5s-7.5 3.358-7.5 7.5v26.433c-9.928 1.807-18.647 7.123-24.807 14.624h-113.284c-4.142 0-7.5 3.358-7.5 7.5s3.358 7.5 7.5 7.5h105.414c-1.045 3.651-1.617 7.5-1.617 11.483s.572 7.832 1.617 11.483h-208.323c-4.142 0-7.5 3.358-7.5 7.5s3.358 7.5 7.5 7.5h216.193c7.671 9.341 19.304 15.312 32.307 15.312s24.636-5.97 32.307-15.312h216.193c4.142 0 7.5-3.358 7.5-7.5s-3.358-7.499-7.5-7.499zm-248.5 15.312c-8.767 0-16.564-4.233-21.455-10.762-.368-.858-.892-1.633-1.536-2.291-2.413-4.021-3.803-8.722-3.803-13.743 0-14.774 12.02-26.794 26.794-26.794s26.794 12.02 26.794 26.794c0 14.775-12.02 26.796-26.794 26.796z"/><path d="m321.064 118.416c-6.023-.212-11.739 1.908-16.143 5.998l-55.907 51.919-14.414-15.628c-8.412-9.119-22.674-9.696-31.794-1.285-9.119 8.412-9.695 22.674-1.285 31.794l29.721 32.224c4.026 4.364 9.737 6.998 15.676 7.228.289.011.576.017.864.017 5.698 0 11.135-2.136 15.311-6.013l72.451-67.283c4.404-4.089 6.952-9.649 7.174-15.655s-1.908-11.739-5.998-16.143c-4.09-4.403-9.65-6.951-15.656-7.173zm4.272 27.98-72.451 67.283c-1.392 1.292-3.205 2.004-5.104 2.004-.099 0-.198-.002-.291-.006-1.978-.076-3.881-.955-5.223-2.409l-29.721-32.223c-2.804-3.041-2.611-7.795.428-10.599 1.439-1.328 3.263-1.983 5.082-1.983 2.023 0 4.04.811 5.516 2.412l19.516 21.16c1.352 1.465 3.231 2.333 5.223 2.409 1.992.084 3.933-.641 5.394-1.999l61.422-57.041c1.468-1.363 3.373-2.072 5.381-2 2.002.074 3.855.923 5.218 2.391s2.073 3.379 2 5.381c-.073 2.004-.922 3.857-2.39 5.22z"/></svg>