<svg id="Capa_1" enable-background="new 0 0 512 512" height="512" viewBox="0 0 512 512" width="512" xmlns="http://www.w3.org/2000/svg"><path d="m469.131 412.414h-174.466c-4.142 0-7.5 3.358-7.5 7.5s3.358 7.5 7.5 7.5h166.966v26.756h-176.967c-4.142 0-7.5 3.358-7.5 7.5s3.358 7.5 7.5 7.5h176.967v26.756h-411.261v-68.513h213.999c4.142 0 7.5-3.358 7.5-7.5s-3.358-7.5-7.5-7.5h-221.499c-4.142 0-7.5 3.358-7.5 7.5v83.513c0 4.142 3.358 7.5 7.5 7.5h426.261c4.142 0 7.5-3.358 7.5-7.5v-83.513c0-4.141-3.358-7.499-7.5-7.499z"/><path d="m64.567 461.67c0 15.714 12.785 28.499 28.499 28.499s28.499-12.785 28.499-28.499-12.785-28.499-28.499-28.499-28.499 12.785-28.499 28.499zm41.998 0c0 7.443-6.056 13.499-13.499 13.499s-13.499-6.056-13.499-13.499 6.056-13.499 13.499-13.499 13.499 6.056 13.499 13.499z"/><path d="m131.642 462.084c0 15.715 12.785 28.5 28.499 28.5s28.499-12.785 28.499-28.5c0-15.714-12.785-28.499-28.499-28.499s-28.499 12.785-28.499 28.499zm41.998 0c0 7.444-6.056 13.5-13.499 13.5s-13.499-6.056-13.499-13.5c0-7.443 6.056-13.499 13.499-13.499s13.499 6.056 13.499 13.499z"/><path d="m198.717 462.499c0 15.714 12.785 28.499 28.5 28.499 15.714 0 28.499-12.785 28.499-28.499 0-15.715-12.785-28.5-28.499-28.5-15.715 0-28.5 12.785-28.5 28.5zm41.999 0c0 7.443-6.056 13.499-13.499 13.499-7.444 0-13.5-6.056-13.5-13.499 0-7.444 6.056-13.5 13.5-13.5 7.443 0 13.499 6.056 13.499 13.5z"/><path d="m504.5 369.17h-98.854c-3.332-12.762-14.957-22.209-28.749-22.209-13.791 0-25.416 9.447-28.748 22.209h-181.688c-3.332-12.762-14.956-22.209-28.748-22.209s-25.417 9.447-28.749 22.209h-101.464c-4.142 0-7.5 3.358-7.5 7.5s3.358 7.5 7.5 7.5h101.464c3.332 12.762 14.957 22.209 28.749 22.209s25.416-9.447 28.748-22.209h181.688c3.332 12.762 14.957 22.209 28.748 22.209 13.792 0 25.417-9.447 28.749-22.209h98.854c4.142 0 7.5-3.358 7.5-7.5s-3.358-7.5-7.5-7.5zm-366.787 22.209c-8.111 0-14.709-6.599-14.709-14.709s6.599-14.709 14.709-14.709 14.709 6.599 14.709 14.709-6.599 14.709-14.709 14.709zm239.184 0c-8.11 0-14.709-6.599-14.709-14.709s6.599-14.709 14.709-14.709c8.111 0 14.709 6.599 14.709 14.709s-6.598 14.709-14.709 14.709z"/><path d="m48.939 303.49h42.565v22.027c0 4.142 3.358 7.5 7.5 7.5h77.417c4.142 0 7.5-3.358 7.5-7.5v-22.027h42.565c7.482 0 13.569-6.087 13.569-13.57v-116.805c0-7.482-6.087-13.57-13.569-13.57h-42.565v-14.527h42.565c7.482 0 13.569-6.087 13.569-13.569v-116.806c0-7.482-6.087-13.57-13.569-13.57h-177.547c-7.482 0-13.57 6.087-13.57 13.57v116.806c0 7.482 6.087 13.569 13.57 13.569h42.565v14.527h-42.565c-7.482 0-13.57 6.087-13.57 13.57v30.631c0 4.142 3.358 7.5 7.5 7.5s7.5-3.358 7.5-7.5v-29.201h48.635 77.417 48.634v83.631h-174.685v-23.295c0-4.142-3.358-7.5-7.5-7.5s-7.5 3.358-7.5 7.5v55.039c0 7.483 6.087 13.57 13.569 13.57zm176.117-287.417v83.631h-174.686v-83.631zm-174.686 98.632h174.686v15.313h-174.686zm56.134 44.84v-14.527h62.417v14.527zm62.417 158.472h-62.417v-14.527h62.417zm56.135-44.84v15.313h-174.686v-15.313z"/><path d="m287.925 303.49h42.565v22.027c0 4.142 3.358 7.5 7.5 7.5h77.417c4.142 0 7.5-3.358 7.5-7.5v-22.027h42.564c7.482 0 13.57-6.087 13.57-13.57v-116.805c0-7.482-6.087-13.57-13.57-13.57h-42.564v-14.527h42.564c7.482 0 13.57-6.087 13.57-13.569v-53.791c0-4.142-3.358-7.5-7.5-7.5s-7.5 3.358-7.5 7.5v22.046h-174.686v-83.631h174.686v30.673c0 4.142 3.358 7.5 7.5 7.5s7.5-3.358 7.5-7.5v-32.103c0-7.482-6.087-13.57-13.57-13.57h-177.546c-7.482 0-13.569 6.087-13.569 13.57v116.806c0 7.482 6.087 13.569 13.569 13.569h42.565v14.527h-42.565c-7.482 0-13.569 6.087-13.569 13.57v116.805c-.001 7.483 6.087 13.57 13.569 13.57zm119.982 14.527h-62.417v-14.527h62.417zm-118.552-29.527v-15.313h174.686v15.313zm0-173.785h174.686v15.313h-174.686zm56.135 30.313h62.417v14.527h-62.417zm-7.5 29.527h77.417 48.634v83.631h-174.686v-83.631z"/></svg>