<svg id="Capa_1" enable-background="new 0 0 512 512" height="512" viewBox="0 0 512 512" width="512" xmlns="http://www.w3.org/2000/svg"><path d="m512 45.951c0-4.142-3.357-7.5-7.5-7.5h-497c-4.142 0-7.5 3.358-7.5 7.5v48 39.888.958 47.043 284.209c0 4.142 3.358 7.5 7.5 7.5h497c4.143 0 7.5-3.358 7.5-7.5v-190.776c0-4.142-3.357-7.5-7.5-7.5s-7.5 3.358-7.5 7.5v183.276h-482v-269.209h51.234c4.142 0 7.5-3.358 7.5-7.5s-3.358-7.5-7.5-7.5h-51.234v-32.043h170.647c.547.127 1.114.201 1.699.201h309.654v31.842h-400.658c-4.142 0-7.5 3.358-7.5 7.5s3.358 7.5 7.5 7.5h400.658v55.912c0 4.142 3.357 7.5 7.5 7.5s7.5-3.358 7.5-7.5v-63.412-46.842-.201c0-.162-.014-.32-.024-.479.01-.159.024-.317.024-.479zm-497 55.5h164.846v24.888h-164.846zm482-48v72.888h-302.154v-32.388c0-4.142-3.358-7.5-7.5-7.5h-172.346v-33z"/><path d="m340.333 111.395c11.855 0 21.5-9.645 21.5-21.5s-9.645-21.5-21.5-21.5-21.5 9.645-21.5 21.5 9.645 21.5 21.5 21.5zm0-28c3.584 0 6.5 2.916 6.5 6.5s-2.916 6.5-6.5 6.5-6.5-2.916-6.5-6.5 2.916-6.5 6.5-6.5z"/><path d="m397 111.395c11.855 0 21.5-9.645 21.5-21.5s-9.645-21.5-21.5-21.5-21.5 9.645-21.5 21.5 9.645 21.5 21.5 21.5zm0-28c3.584 0 6.5 2.916 6.5 6.5s-2.916 6.5-6.5 6.5-6.5-2.916-6.5-6.5 2.916-6.5 6.5-6.5z"/><path d="m453.666 111.395c11.855 0 21.5-9.645 21.5-21.5s-9.645-21.5-21.5-21.5-21.5 9.645-21.5 21.5 9.645 21.5 21.5 21.5zm0-28c3.584 0 6.5 2.916 6.5 6.5s-2.916 6.5-6.5 6.5-6.5-2.916-6.5-6.5 2.916-6.5 6.5-6.5z"/><path d="m302.083 419.99c1.047.514 2.176.766 3.3.766 1.634 0 3.255-.533 4.595-1.572l101.194-78.425c1.976-1.531 3.059-3.944 2.889-6.438-.169-2.493-1.569-4.738-3.733-5.987l-.856-.494c-1.14-.658-2.432-1.004-3.748-1.004h-300.303c-4.142 0-7.5 3.358-7.5 7.5v42.274c0 4.142 3.358 7.5 7.5 7.5h192.463v29.144c0 2.864 1.629 5.476 4.199 6.736zm-189.162-50.878v-27.274h272.373l-72.41 56.117v-21.343c0-4.142-3.357-7.5-7.5-7.5z"/><path d="m414.078 264.675c0-4.142-3.357-7.5-7.5-7.5h-192.462v-29.144c0-2.862-1.629-5.475-4.199-6.734-2.57-1.261-5.633-.947-7.895.806l-101.195 78.425c-1.975 1.531-3.058 3.944-2.889 6.438.17 2.493 1.57 4.738 3.734 5.987l.855.494c1.14.658 2.433 1.004 3.749 1.004h300.302c4.143 0 7.5-3.358 7.5-7.5zm-15 34.774h-272.373l72.411-56.117v21.343c0 4.142 3.358 7.5 7.5 7.5h192.462z"/></svg>