<svg id="Capa_1" enable-background="new 0 0 509.475 509.475" height="512" viewBox="0 0 509.475 509.475" width="512" xmlns="http://www.w3.org/2000/svg"><path d="m472.624 264.926c-17.414-4.612-39.584-7.468-63.478-8.251v-101.941c11.908-3.293 20.679-14.216 20.679-27.157 0-15.538-12.641-28.178-28.179-28.178-12.94 0-23.864 8.771-27.156 20.678h-72.76v-29.133c0-4.142-3.357-7.5-7.5-7.5s-7.5 3.358-7.5 7.5v88.698h-271.525v-134.092h271.525v15.287c0 4.142 3.357 7.5 7.5 7.5s7.5-3.358 7.5-7.5v-29.918c0-17.048-13.87-30.919-30.919-30.919h-239.687c-17.049 0-30.919 13.871-30.919 30.919v163.354c0 17.049 13.87 30.919 30.919 30.919h60.947v21.597h-30.206c-9.925 0-18 8.075-18 18v16.924c0 4.142 3.357 7.5 7.5 7.5h87.629v87.553c0 .255.013.506.038.754-12.601 2.806-22.052 14.066-22.052 27.5 0 15.538 12.641 28.178 28.179 28.178 12.94 0 23.864-8.771 27.156-20.678h43.713c4.143 0 7.5-3.358 7.5-7.5s-3.357-7.5-7.5-7.5h-43.713c-2.521-9.117-9.515-16.39-18.465-19.3.092-.47.143-.956.143-1.453v-87.553h93.462c4.143 0 7.5-3.358 7.5-7.5v-16.924c0-9.925-8.075-18-18.001-18h-27.091v-21.597h60.947c17.049 0 30.919-13.87 30.919-30.919v-59.196h72.76c2.632 9.517 10.139 17.025 19.656 19.657v101.723c-28.384.106-55.098 3.099-75.37 8.469-24.317 6.441-36.647 15.565-36.647 27.117v60.612 44.865h-35.993c-4.143 0-7.5 3.358-7.5 7.5s3.357 7.5 7.5 7.5h35.993v.747 60.612c0 11.552 12.33 20.676 36.647 27.117 20.643 5.468 47.961 8.479 76.924 8.479 28.962 0 56.28-3.011 76.924-8.479 24.316-6.441 36.646-15.565 36.646-27.117v-60.612-60.612-60.612c.001-11.553-12.329-20.677-36.645-27.118zm-314.288 140.094c0 7.267-5.911 13.178-13.178 13.178s-13.179-5.912-13.179-13.178 5.912-13.178 13.179-13.178 13.178 5.911 13.178 13.178zm81.62-140.231v9.424h-93.452c-.003 0-.006 0-.01 0s-.006 0-.01 0h-87.619v-9.424c0-1.626 1.374-3 3-3h175.09c1.627 0 3.001 1.374 3.001 3zm-208.832-249.789h239.688c8.653 0 15.701 6.944 15.9 15.55h-271.489c.199-8.606 7.248-15.55 15.901-15.55zm163.74 231.52h-87.793v-21.328h87.793zm75.947-36.328h-239.687c-8.653 0-15.701-6.943-15.9-15.549h271.488c-.2 8.606-7.248 15.549-15.901 15.549zm223.459 203.075c0 .965-4.431 7.04-25.487 12.617-19.426 5.146-45.38 7.979-73.083 7.979s-53.658-2.833-73.084-7.979c-21.057-5.578-25.487-11.652-25.487-12.617v-41.522c5.641 3.017 12.857 5.698 21.647 8.027 20.643 5.468 47.961 8.479 76.924 8.479 28.962 0 56.28-3.011 76.924-8.479 8.79-2.328 16.005-5.009 21.646-8.027zm0-60.612c0 .965-4.431 7.04-25.487 12.617-19.426 5.146-45.38 7.979-73.083 7.979s-53.658-2.833-73.084-7.979c-21.057-5.578-25.487-11.652-25.487-12.617v-41.522c5.641 3.017 12.857 5.698 21.647 8.027 20.643 5.468 47.961 8.479 76.924 8.479 28.962 0 56.28-3.011 76.924-8.479 8.79-2.328 16.005-5.009 21.646-8.027zm-105.802-225.078c0-7.267 5.911-13.178 13.178-13.178s13.179 5.912 13.179 13.178-5.912 13.178-13.179 13.178-13.178-5.912-13.178-13.178zm-65.852 151.849c19.426-5.146 45.381-7.979 73.084-7.979s53.657 2.833 73.083 7.979c21.057 5.578 25.487 11.652 25.487 12.617s-4.431 7.04-25.487 12.617c-19.426 5.146-45.38 7.979-73.083 7.979s-53.658-2.833-73.084-7.979c-21.057-5.578-25.487-11.652-25.487-12.617s4.43-7.04 25.487-12.617zm146.167 207.07c-19.426 5.146-45.38 7.979-73.083 7.979s-53.658-2.833-73.084-7.979c-21.057-5.578-25.487-11.652-25.487-12.617v-41.522c5.641 3.017 12.857 5.698 21.647 8.027 20.643 5.468 47.961 8.479 76.924 8.479 28.962 0 56.28-3.011 76.924-8.479 8.79-2.328 16.005-5.009 21.646-8.027v41.521c0 .965-4.431 7.04-25.487 12.618z"/><path d="m59.365 68.618c-14.061 0-25.5 11.439-25.5 25.5v32.994c0 14.061 11.439 25.5 25.5 25.5h57.794c14.061 0 25.5-11.439 25.5-25.5v-32.994c0-14.061-11.439-25.5-25.5-25.5zm68.294 25.5v32.994c0 5.79-4.71 10.5-10.5 10.5h-57.794c-5.79 0-10.5-4.71-10.5-10.5v-32.994c0-5.79 4.71-10.5 10.5-10.5h57.794c5.79 0 10.5 4.711 10.5 10.5z"/><path d="m250.334 68.618h-77.228c-4.143 0-7.5 3.358-7.5 7.5s3.357 7.5 7.5 7.5h77.228c4.143 0 7.5-3.358 7.5-7.5s-3.357-7.5-7.5-7.5z"/><path d="m250.334 99.398h-77.228c-4.143 0-7.5 3.358-7.5 7.5s3.357 7.5 7.5 7.5h77.228c4.143 0 7.5-3.358 7.5-7.5s-3.357-7.5-7.5-7.5z"/><path d="m250.334 130.179h-77.228c-4.143 0-7.5 3.358-7.5 7.5s3.357 7.5 7.5 7.5h77.228c4.143 0 7.5-3.358 7.5-7.5s-3.357-7.5-7.5-7.5z"/></svg>