<svg id="Capa_1" enable-background="new 0 0 508.823 508.823" height="512" viewBox="0 0 508.823 508.823" width="512" xmlns="http://www.w3.org/2000/svg"><path d="m344.594 152.324c-24.185-6.406-56.212-9.934-90.183-9.934s-65.998 3.528-90.183 9.934c-27.961 7.406-42.139 17.711-42.139 30.629v29.536c0 4.142 3.358 7.5 7.5 7.5s7.5-3.358 7.5-7.5v-9.3c6.774 3.926 15.828 7.397 27.139 10.393 24.185 6.406 56.212 9.934 90.183 9.934s65.998-3.528 90.183-9.934c11.312-2.996 20.365-6.467 27.139-10.393v51.091c0 2.055-5.691 9.431-30.98 16.129-22.967 6.083-53.63 9.434-86.342 9.434s-63.375-3.35-86.342-9.434c-25.289-6.698-30.98-14.074-30.98-16.129v-11.682c0-4.142-3.358-7.5-7.5-7.5s-7.5 3.358-7.5 7.5v11.682 71.327 71.327 71.327c0 12.917 14.178 23.223 42.139 30.629 24.185 6.406 56.212 9.934 90.183 9.934s65.998-3.528 90.183-9.934c27.961-7.406 42.139-17.712 42.139-30.629v-10.761c0-4.142-3.358-7.5-7.5-7.5s-7.5 3.358-7.5 7.5v10.76c0 2.055-5.691 9.431-30.98 16.129-22.967 6.083-53.63 9.434-86.342 9.434s-63.375-3.35-86.342-9.434c-25.289-6.698-30.98-14.074-30.98-16.129v-51.091c6.774 3.926 15.828 7.397 27.139 10.393 24.185 6.406 56.212 9.934 90.183 9.934s65.998-3.528 90.183-9.934c11.312-2.996 20.365-6.467 27.139-10.393v9.581c0 4.142 3.358 7.5 7.5 7.5s7.5-3.358 7.5-7.5v-29.816-71.327-71.327-71.327c0-12.917-14.177-23.222-42.139-30.629zm-3.841 46.759c-22.967 6.083-53.63 9.434-86.342 9.434s-63.375-3.35-86.342-9.434c-25.289-6.698-30.98-14.074-30.98-16.129s5.691-9.43 30.98-16.129c22.967-6.083 53.63-9.434 86.342-9.434s63.375 3.35 86.342 9.434c25.289 6.698 30.98 14.073 30.98 16.129s-5.691 9.43-30.98 16.129zm-176.524 85.826c24.185 6.406 56.212 9.934 90.183 9.934s65.998-3.528 90.183-9.934c11.312-2.996 20.365-6.467 27.139-10.393v51.091c0 2.055-5.691 9.43-30.98 16.129-22.967 6.083-53.63 9.434-86.342 9.434s-63.375-3.35-86.342-9.434c-25.289-6.698-30.98-14.073-30.98-16.129v-51.091c6.774 3.926 15.827 7.397 27.139 10.393zm176.524 128.154c-22.967 6.083-53.63 9.434-86.342 9.434s-63.375-3.35-86.342-9.434c-25.289-6.698-30.98-14.074-30.98-16.129v-51.091c6.774 3.926 15.828 7.397 27.139 10.393 24.185 6.406 56.212 9.934 90.183 9.934s65.998-3.528 90.183-9.934c11.312-2.996 20.365-6.467 27.139-10.393v51.091c0 2.055-5.691 9.43-30.98 16.129z"/><path d="m223.201 95.664c0 17.21 14.001 31.211 31.21 31.211s31.21-14.001 31.21-31.211c0-17.209-14.001-31.21-31.21-31.21s-31.21 14.001-31.21 31.21zm47.421 0c0 8.938-7.272 16.211-16.21 16.211s-16.21-7.272-16.21-16.211 7.272-16.21 16.21-16.21 16.21 7.272 16.21 16.21z"/><path d="m301.516 95.664c0 4.142 3.358 7.5 7.5 7.5s7.5-3.358 7.5-7.5c0-34.245-27.86-62.104-62.104-62.104s-62.104 27.86-62.104 62.104c0 4.142 3.358 7.5 7.5 7.5s7.5-3.358 7.5-7.5c0-25.974 21.131-47.104 47.104-47.104s47.104 21.131 47.104 47.104z"/><path d="m166.247 103.164c4.142 0 7.5-3.358 7.5-7.5 0-44.479 36.186-80.664 80.665-80.664s80.665 36.186 80.665 80.664c0 4.142 3.358 7.5 7.5 7.5s7.5-3.358 7.5-7.5c-.001-52.749-42.916-95.664-95.665-95.664s-95.665 42.915-95.665 95.664c0 4.142 3.358 7.5 7.5 7.5z"/></svg>