<svg id="Capa_1" enable-background="new 0 0 505.834 505.834" height="512" viewBox="0 0 505.834 505.834" width="512" xmlns="http://www.w3.org/2000/svg"><path d="m178.865 190.181v241.332c0 4.142 3.358 7.5 7.5 7.5s7.5-3.358 7.5-7.5v-293.79h153.573c4.142 0 7.5-3.358 7.5-7.5s-3.358-7.5-7.5-7.5h-54.299c-.824-22.387-13.368-42.979-32.796-54.146.006-.372.009-.743.009-1.112 0-37.2-30.264-67.464-67.464-67.464-28.749 0-53.72 17.779-63.338 44.146-1.824-.362-3.685-.546-5.556-.546-11.313 0-21.233 6.492-25.854 16.366-35.766.158-64.81 29.303-64.81 65.105 0 35.901 29.208 65.108 65.108 65.108h80.427zm-130.535-65.109c0-27.629 22.479-50.108 50.108-50.108h5.012c3.499 0 6.532-2.418 7.312-5.829 1.417-6.204 6.858-10.536 13.231-10.536 2.365 0 4.695.621 6.741 1.794 2.059 1.182 4.555 1.319 6.731.37s3.774-2.872 4.309-5.184c5.53-23.892 26.548-40.579 51.113-40.579 28.929 0 52.464 23.536 52.464 52.464 0 1.578-.075 3.205-.224 4.836-.285 3.132 1.414 6.109 4.255 7.457 16.781 7.959 27.86 24.648 28.739 42.965h-91.756c-4.142 0-7.5 3.358-7.5 7.5v44.958h-80.427c-27.629.001-50.108-22.478-50.108-50.108z"/><path d="m465.004 122.723h-87.458c-4.142 0-7.5 3.358-7.5 7.5s3.358 7.5 7.5 7.5h79.958v353.111h-263.639v-26.8c0-4.142-3.358-7.5-7.5-7.5s-7.5 3.358-7.5 7.5v34.3c0 4.142 3.358 7.5 7.5 7.5h278.639c4.142 0 7.5-3.358 7.5-7.5v-368.111c0-4.142-3.358-7.5-7.5-7.5z"/><path d="m333.185 240.01c0-4.142-3.358-7.5-7.5-7.5-45.087 0-81.769 36.681-81.769 81.769 0 4.142 3.358 7.5 7.5 7.5s7.5-3.358 7.5-7.5c0-36.816 29.952-66.769 66.769-66.769 4.142 0 7.5-3.358 7.5-7.5z"/><path d="m392.453 314.278c0 36.816-29.952 66.769-66.769 66.769-4.142 0-7.5 3.358-7.5 7.5s3.358 7.5 7.5 7.5c45.087 0 81.769-36.681 81.769-81.769 0-4.142-3.358-7.5-7.5-7.5s-7.5 3.358-7.5 7.5z"/><path d="m357.081 314.278c0-17.312-14.084-31.396-31.396-31.396s-31.396 14.084-31.396 31.396 14.084 31.396 31.396 31.396 31.396-14.084 31.396-31.396zm-47.792 0c0-9.041 7.355-16.396 16.396-16.396s16.396 7.355 16.396 16.396-7.355 16.396-16.396 16.396-16.396-7.355-16.396-16.396z"/><path d="m439.992 186.733c-14.343-14.343-37.682-14.344-52.024 0-4.509 4.509-12.6 14.994-20.749 27.274-13.162-5.466-27.112-8.244-41.534-8.244-59.835 0-108.514 48.68-108.514 108.515s48.679 108.514 108.514 108.514 108.515-48.679 108.515-108.514c0-20.708-5.793-40.619-16.775-57.952 10.208-7.02 18.647-13.649 22.568-17.57 14.342-14.342 14.342-37.68-.001-52.023zm-20.793 127.545c0 51.564-41.951 93.514-93.515 93.514s-93.514-41.95-93.514-93.514 41.95-93.515 93.514-93.515c11.561 0 22.765 2.069 33.393 6.143-.583.975-1.161 1.952-1.73 2.929-15.71 26.998-19.135 42.617-11.106 50.646 2.78 2.78 6.467 4.186 11.223 4.186 8.982 0 21.772-5.021 39.424-15.292 2.679-1.559 5.354-3.178 7.99-4.824 9.376 14.884 14.321 31.963 14.321 49.727zm10.186-86.128c-4.514 4.514-19.972 16.276-37.256 26.618-21.602 12.927-31.952 15.136-35.063 14.891-.243-3.112 1.965-13.463 14.891-35.063 10.342-17.283 22.104-32.742 26.618-37.256 8.495-8.494 22.316-8.495 30.811 0 8.493 8.494 8.493 22.315-.001 30.81z"/><path d="m154.661 239.006c-1.249-2.165-3.493-3.565-5.986-3.735-2.49-.171-4.908.913-6.438 2.888l-55.067 71.054c-1.753 2.262-2.066 5.325-.806 7.895s3.872 4.199 6.734 4.199h18.229v132.904c0 4.142 3.358 7.5 7.5 7.5h29.683c4.142 0 7.5-3.358 7.5-7.5v-210.857c0-1.315-.346-2.608-1.003-3.747zm-13.65 207.706h-14.683v-132.904c0-4.142-3.358-7.5-7.5-7.5h-10.429l32.612-42.081z"/></svg>