<svg id="Capa_1" enable-background="new 0 0 510.576 510.576" height="512" viewBox="0 0 510.576 510.576" width="512" xmlns="http://www.w3.org/2000/svg"><path d="m200.771 248.179c22.248 0 40.347-18.1 40.347-40.348s-18.1-40.347-40.347-40.347c-22.248 0-40.348 18.1-40.348 40.347s18.101 40.348 40.348 40.348zm0-65.694c13.977 0 25.347 11.371 25.347 25.347s-11.371 25.348-25.347 25.348c-13.977 0-25.348-11.371-25.348-25.348s11.372-25.347 25.348-25.347z"/><path d="m144.622 161.309-4.483-3c-1.653-1.106-3.678-1.508-5.629-1.124-1.951.387-3.668 1.533-4.775 3.186-8.986 13.431-13.953 29.086-14.361 45.274-.104 4.141 3.167 7.582 7.308 7.687l5.379.136c.529 7.01 2.05 13.813 4.547 20.335l-4.81 2.43c-3.697 1.868-5.18 6.378-3.313 10.076 7.278 14.409 18.444 26.43 32.292 34.762 1.705 1.026 3.746 1.332 5.677.852 1.93-.48 3.591-1.707 4.616-3.412l2.784-4.626c6.313 2.952 13.047 4.991 19.947 6.041l-.254 5.391c-.195 4.137 3 7.649 7.137 7.845 1.351.064 2.726.096 4.089.096 14.757 0 29.313-3.831 42.092-11.078 1.73-.981 3-2.609 3.529-4.527.53-1.917.276-3.966-.705-5.697l-2.662-4.694c5.671-4.043 10.758-8.892 15.07-14.366l4.56 2.884c3.501 2.215 8.134 1.172 10.348-2.329 8.629-13.642 13.191-29.417 13.191-45.62 0-4.142-3.358-7.5-7.5-7.5h-5.38c-.581-5.721-1.83-11.306-3.738-16.71l4.873-2.306c3.744-1.772 5.343-6.243 3.571-9.987-6.903-14.588-17.758-26.891-31.392-35.579-1.677-1.069-3.711-1.429-5.653-.997-1.942.43-3.634 1.614-4.703 3.292l-2.9 4.551c-6.238-3.115-12.917-5.328-19.786-6.554l.392-5.381c.301-4.131-2.804-7.725-6.935-8.025-2.079-.152-4.189-.229-6.275-.229-13.995 0-27.886 3.464-40.17 10.019-1.755.937-3.066 2.532-3.645 4.435s-.378 3.958.558 5.713l2.541 4.762c-5.772 3.896-10.981 8.613-15.432 13.974zm7.973 14.36c5.305-7.929 12.551-14.49 20.956-18.975 3.654-1.95 5.036-6.493 3.086-10.147l-2.166-4.058c7.602-3.052 15.744-4.771 23.976-5.044l-.335 4.597c-.145 1.984.505 3.944 1.805 5.449 1.301 1.505 3.146 2.432 5.13 2.576 9.506.693 18.774 3.763 26.803 8.879 1.677 1.069 3.71 1.428 5.653.997 1.942-.43 3.634-1.614 4.703-3.292l2.476-3.886c6.441 5.137 11.924 11.349 16.213 18.371l-4.166 1.971c-3.744 1.772-5.343 6.243-3.571 9.987 3.673 7.763 5.536 16.086 5.536 24.738 0 4.142 3.358 7.5 7.5 7.5h4.606c-.873 8.204-3.172 16.166-6.801 23.548l-3.892-2.462c-3.501-2.215-8.133-1.171-10.348 2.329-5.099 8.06-12.174 14.805-20.463 19.505-3.603 2.043-4.868 6.621-2.824 10.224l2.27 4.003c-7.528 3.253-15.609 5.174-23.839 5.658l.217-4.605c.195-4.137-3-7.649-7.137-7.845-9.529-.451-18.874-3.281-27.024-8.185-1.177-.708-2.516-1.074-3.867-1.074-.605 0-1.213.073-1.81.222-1.93.48-3.591 1.707-4.616 3.412l-2.376 3.949c-6.569-4.969-12.209-11.039-16.678-17.95l4.113-2.078c3.697-1.868 5.18-6.379 3.313-10.076-4.106-8.129-6.188-16.901-6.188-26.074 0-.499.006-.996.019-1.492.05-1.989-.691-3.916-2.062-5.357-1.371-1.442-3.258-2.28-5.247-2.33l-4.604-.116c1.082-8.174 3.586-16.075 7.408-23.366l3.827 2.561c1.654 1.107 3.68 1.51 5.629 1.124 1.951-.389 3.669-1.535 4.775-3.188z"/><path d="m446.183 350.589c11.809-14.762 19.05-34.518 19.05-56.211 0-.8-.016-1.604-.036-2.407h12.441c9.098 0 16.5-7.402 16.5-16.5v-21.258c0-9.098-7.402-16.5-16.5-16.5h-.407c-5.273-16.334-15.481-31.069-29.009-41.773-8.149-6.448-17.23-11.309-27.025-14.501v-5.411c0-7.724-6.284-14.008-14.008-14.008h-5.621v-83.385-68.359c0-4.142-3.358-7.5-7.5-7.5h-386.568c-4.142 0-7.5 3.358-7.5 7.5v38.096 30.263 258.393c0 4.142 3.358 7.5 7.5 7.5h46.004c4.142 0 7.5-3.358 7.5-7.5s-3.358-7.5-7.5-7.5h-38.504v-243.393h113.282 32.869 120.782 104.634v75.885h-5.62c-7.724 0-14.008 6.284-14.008 14.008v5.408c-26.449 8.651-47.487 29.775-56.029 56.277h-.413c-9.098 0-16.5 7.402-16.5 16.5v21.258c0 9.098 7.402 16.5 16.5 16.5h12.438c-.02.803-.034 1.607-.034 2.407 0 12.564 2.437 24.475 6.772 35.149h-242.977c-4.142 0-7.5 3.358-7.5 7.5s3.358 7.5 7.5 7.5h250.851c1.384 2.1 2.852 4.119 4.399 6.054-31.27 15.744-54.084 44.819-61.661 79.085-.894 4.044 1.66 8.048 5.704 8.942.545.121 1.09.178 1.626.178 3.441 0 6.542-2.383 7.316-5.882 6.952-31.442 28.642-57.868 58.16-71.004 11.595 9.522 25.727 15.14 40.976 15.14 15.246 0 29.376-5.617 40.971-15.136 36.824 16.376 60.538 52.618 60.538 92.799v38.097h-203.017v-31.457c0-4.142-3.358-7.5-7.5-7.5s-7.5 3.358-7.5 7.5v38.957c0 4.142 3.358 7.5 7.5 7.5h218.017c4.142 0 7.5-3.358 7.5-7.5v-45.594c0-44.26-25.047-84.35-64.393-104.117zm-431.183-279.454v-15.263h105.782v15.263zm153.651 0v-15.263h105.782v15.263zm120.782 0v-22.763c0-4.142-3.358-7.5-7.5-7.5h-120.782c-4.142 0-7.5 3.358-7.5 7.5v22.763h-17.869v-22.763c0-4.142-3.358-7.5-7.5-7.5h-113.282v-23.096h371.567v53.359zm149.481 136.568c9.927 7.855 17.685 18.327 22.366 30.01h-40.084v-40.316c6.34 2.562 12.28 6.003 17.718 10.306zm-32.718-30.682v60.693h-24.257v-60.693zm-39.257 20.378v40.314h-40.093c7.296-18.252 21.892-32.923 40.093-40.314zm-57.942 78.072v-21.258c0-.813.687-1.5 1.5-1.5h167.141c.813 0 1.5.687 1.5 1.5v21.258c0 .813-.687 1.5-1.5 1.5h-167.141c-.813 0-1.5-.687-1.5-1.5zm28.905 18.908c0-.801.013-1.605.036-2.407h112.259c.023.803.036 1.607.036 2.407 0 37.31-25.196 67.664-56.166 67.664s-56.165-30.354-56.165-67.664z"/></svg>