<svg id="Capa_1" enable-background="new 0 0 512.747 512.747" height="512" viewBox="0 0 512.747 512.747" width="512" xmlns="http://www.w3.org/2000/svg"><path d="m257.374 404.854c79.95 0 144.995-65.044 144.995-144.995s-65.045-144.995-144.995-144.995c-79.951 0-144.996 65.044-144.996 144.995s65.045 144.995 144.996 144.995zm-127.28-118.508c6.66 4.409 15.646 8.738 27.705 12.717 13.504 4.457 29.227 7.896 46.314 10.212 2.733 20.397 7.153 38.955 13.005 54.177 3.782 9.837 7.799 17.43 11.866 23.27-49.562-11.083-88.533-50.545-98.89-100.376zm78.414-37.741c4.141.187 7.654-2.991 7.855-7.127.289-5.964.72-11.833 1.284-17.574 12.203-1.224 25.475-1.918 39.727-1.918 14.251 0 27.523.693 39.726 1.918 1.13 11.554 1.728 23.615 1.728 35.954s-.597 24.4-1.728 35.954c-12.203 1.224-25.475 1.918-39.726 1.918s-27.524-.693-39.727-1.918c-.79-8.055-1.319-16.362-1.565-24.834-.12-4.14-3.544-7.413-7.715-7.279-4.141.12-7.399 3.574-7.279 7.714.222 7.647.679 15.169 1.334 22.524-47.479-6.991-75.043-22.274-75.043-34.079 0-11.806 27.566-27.09 75.048-34.08-.454 4.996-.804 10-1.045 14.972-.202 4.138 2.989 7.655 7.126 7.855zm48.866-118.742c9.384 0 19.683 13.191 27.55 35.287 4.503 12.648 7.988 27.43 10.344 43.557-12.199-1.126-24.911-1.721-37.894-1.721-12.972 0-25.675.594-37.865 1.718 2.75-18.805 7.001-35.723 12.497-49.303 7.485-18.495 16.969-29.538 25.368-29.538zm54.912 95.91c47.503 6.988 75.083 22.276 75.083 34.085s-27.58 27.097-75.083 34.085c1.021-11.255 1.541-22.727 1.541-34.085s-.52-22.83-1.541-34.085zm-54.912 164.081c-8.788 0-18.602-11.881-26.253-31.783-5.095-13.253-9.026-29.326-11.616-47.059 12.192 1.125 24.896 1.719 37.87 1.719 12.982 0 25.695-.595 37.894-1.721-2.356 16.127-5.841 30.909-10.344 43.557-7.869 22.095-18.168 35.287-27.551 35.287zm28.43-3.141c12.16-17.509 20.51-45.937 24.758-77.429 17.115-2.316 32.862-5.759 46.385-10.221 12.059-3.979 21.045-8.308 27.705-12.717-10.353 49.817-49.305 89.271-98.848 100.367zm98.849-153.343c-6.66-4.409-15.645-8.737-27.705-12.717-13.523-4.462-29.27-7.905-46.385-10.221-4.249-31.492-12.598-59.92-24.758-77.429 49.542 11.097 88.494 50.551 98.848 100.367zm-155.664-100.377c-12.351 17.809-20.641 46.712-24.825 77.441-17.107 2.316-32.847 5.758-46.365 10.219-12.06 3.979-21.045 8.308-27.705 12.717 10.357-49.831 49.33-89.294 98.895-100.377z"/><path d="m468.083 210.23c-19.519-83.2-86.831-147.431-170.7-163.117.396-1.961.619-3.801.619-5.486-.001-22.953-18.674-41.627-41.628-41.627s-41.628 18.674-41.628 41.628c0 1.792.246 3.756.694 5.86-36.151 7.104-69.946 23.39-98.198 47.414-3.156 2.684-3.539 7.417-.855 10.572 1.484 1.745 3.594 2.642 5.717 2.642 1.717 0 3.444-.587 4.855-1.786 26.907-22.88 59.212-38.218 93.735-44.572 4.041 8.251 10.127 17.901 18.244 28.898 4.129 5.595 10.484 8.804 17.435 8.804h.001c6.951 0 13.307-3.209 17.436-8.804 8.227-11.146 14.36-20.902 18.4-29.227 78.599 13.705 142.008 73.133 160.876 150.534-17.005 5.236-29.4 21.093-29.4 39.793 0 10.782 8.14 27.278 24.192 49.028 1.572 2.13 3.469 3.912 5.596 5.305-17.918 76.325-79.077 135.502-155.595 151.129.077-.793.123-1.566.123-2.305 0-22.954-18.674-41.628-41.628-41.628s-41.628 18.674-41.628 41.628c0 .606.034 1.237.086 1.879-75.872-16.348-136.499-75.909-153.852-151.951 1.442-1.162 2.754-2.515 3.891-4.057 16.053-21.751 24.192-38.246 24.192-49.028 0-18.008-11.495-33.377-27.532-39.167 7.571-31.44 22.73-60.788 44.164-85.292 2.727-3.118 2.411-7.856-.707-10.583-3.119-2.728-7.856-2.411-10.583.707-23.273 26.607-39.679 58.53-47.728 92.726-22.604.407-40.871 18.909-40.871 41.609 0 10.782 8.14 27.277 24.192 49.028 3.98 5.392 10.028 8.559 16.684 8.782 19.694 83.715 88.254 148.581 173.061 163.468 4.008 8.682 10.407 19.001 19.194 30.908 4.129 5.595 10.484 8.804 17.435 8.804h.001c6.951 0 13.307-3.209 17.436-8.804 8.664-11.74 15.002-21.934 19.02-30.54 85.999-14.18 155.427-79.266 175.272-163.994 5.843-.739 11.077-3.788 14.646-8.624 16.053-21.75 24.192-38.246 24.192-49.028.001-22.022-17.19-40.093-38.856-41.526zm-206.342-128.481c-1.272 1.723-3.229 2.711-5.367 2.711-2.139 0-4.095-.988-5.367-2.711-9.016-12.215-15.559-23.027-18.852-30.94-.059-.162-.129-.317-.199-.472-1.446-3.563-2.21-6.517-2.21-8.709-.001-14.683 11.944-26.628 26.628-26.628 14.683 0 26.628 11.945 26.628 26.628-.001 7.085-7.949 22.083-21.261 40.121zm-219.673 210.128c-13.313-18.039-21.262-33.037-21.262-40.121 0-14.683 11.945-26.628 26.628-26.628.226 0 .448.011.673.017 3.599.38 4.599.38 6.616 1.005 11.15 3.179 19.34 13.45 19.34 25.606 0 7.084-7.948 22.083-21.262 40.121-1.271 1.723-3.228 2.711-5.366 2.711-2.139.001-4.095-.987-5.367-2.711zm219.673 203.158c-1.272 1.723-3.229 2.711-5.367 2.711-2.139 0-4.095-.988-5.367-2.711-13.313-18.039-21.262-33.038-21.262-40.122 0-14.683 11.945-26.628 26.628-26.628s26.628 11.945 26.628 26.628c0 7.085-7.948 22.084-21.26 40.122zm208.938-203.158c-1.272 1.723-3.229 2.711-5.367 2.711s-4.095-.988-5.367-2.711c-13.313-18.038-21.261-33.037-21.261-40.121 0-14.683 11.945-26.628 26.628-26.628s26.628 11.945 26.628 26.628c0 7.085-7.948 22.083-21.261 40.121z"/></svg>