<svg id="Capa_1" enable-background="new 0 0 508.064 508.064" height="512" viewBox="0 0 508.064 508.064" width="512" xmlns="http://www.w3.org/2000/svg"><path d="m212.784 118.027h-13.418v-.605c0-10.99-8.94-19.931-19.931-19.931h-16.211c-10.99 0-19.931 8.941-19.931 19.931v.605h-17.047c-.003 0-.006 0-.009 0v-.606c0-10.99-8.94-19.931-19.931-19.931h-16.209c-10.99 0-19.931 8.941-19.931 19.931v.605h-18.047c-4.143 0-7.5 3.358-7.5 7.5s3.357 7.5 7.5 7.5h18.047v.605c0 10.99 8.94 19.931 19.931 19.931h16.211c10.99 0 19.931-8.941 19.931-19.931v-.606h.009 17.047v.605c0 10.99 8.94 19.931 19.931 19.931h16.211c10.99 0 19.931-8.941 19.931-19.931v-.605h13.418v.605c0 10.99 8.94 19.931 19.931 19.931h16.211c10.99 0 19.931-8.941 19.931-19.931v-.605h18.429c4.143 0 7.5-3.358 7.5-7.5s-3.357-7.5-7.5-7.5h-18.429v-.605c0-10.99-8.94-19.931-19.931-19.931h-16.211c-10.99 0-19.931 8.941-19.931 19.931v.607zm-101.546 15.606c0 2.673-2.258 4.931-4.931 4.931h-16.21c-2.673 0-4.931-2.258-4.931-4.931v-16.211c0-2.673 2.258-4.931 4.931-4.931h16.211c2.673 0 4.931 2.258 4.931 4.931v16.211zm73.128 0c0 2.673-2.258 4.931-4.931 4.931h-16.211c-2.673 0-4.931-2.258-4.931-4.931v-16.211c0-2.673 2.258-4.931 4.931-4.931h16.211c2.673 0 4.931 2.258 4.931 4.931zm43.418-16.211c0-2.673 2.258-4.931 4.931-4.931h16.211c2.673 0 4.931 2.258 4.931 4.931v16.211c0 2.673-2.258 4.931-4.931 4.931h-16.211c-2.673 0-4.931-2.258-4.931-4.931z"/><path d="m273.968 295.994h-16.211c-10.99 0-19.931 8.941-19.931 19.931v.605h-18.047c-4.143 0-7.5 3.358-7.5 7.5s3.357 7.5 7.5 7.5h18.047v.605c0 10.99 8.94 19.931 19.931 19.931h16.211c10.99 0 19.931-8.941 19.931-19.931v-.606h.009 17.919v.605c0 10.99 8.94 19.931 19.931 19.931h16.211c10.99 0 19.931-8.941 19.931-19.931v-.605h12.546v.605c0 10.99 8.94 19.931 19.931 19.931h16.211c10.99 0 19.931-8.941 19.931-19.931v-.605h18.429c4.143 0 7.5-3.358 7.5-7.5s-3.357-7.5-7.5-7.5h-18.429v-.605c0-10.99-8.94-19.931-19.931-19.931h-16.211c-10.99 0-19.931 8.941-19.931 19.931v.605h-12.546v-.605c0-10.99-8.94-19.931-19.931-19.931h-16.211c-10.99 0-19.931 8.941-19.931 19.931v.605h-17.919c-.003 0-.006 0-.009 0v-.606c-.001-10.988-8.941-19.929-19.931-19.929zm121.476 19.93c0-2.673 2.258-4.931 4.931-4.931h16.211c2.673 0 4.931 2.258 4.931 4.931v16.211c0 2.673-2.258 4.931-4.931 4.931h-16.211c-2.673 0-4.931-2.258-4.931-4.931zm-68.618 0c0-2.673 2.258-4.931 4.931-4.931h16.211c2.673 0 4.931 2.258 4.931 4.931v16.211c0 2.673-2.258 4.931-4.931 4.931h-16.211c-2.673 0-4.931-2.258-4.931-4.931zm-47.928 16.211c0 2.673-2.258 4.931-4.931 4.931h-16.211c-2.673 0-4.931-2.258-4.931-4.931v-16.211c0-2.673 2.258-4.931 4.931-4.931h16.211c2.673 0 4.931 2.258 4.931 4.931z"/><path d="m429.017 164.185c37.418 0 67.86-30.442 67.86-67.86s-30.442-67.86-67.86-67.86-67.859 30.442-67.859 67.86c-.001 37.418 30.441 67.86 67.859 67.86zm0-120.721c29.147 0 52.86 23.713 52.86 52.86s-23.713 52.86-52.86 52.86c-29.146 0-52.859-23.713-52.859-52.86-.001-29.147 23.712-52.86 52.859-52.86z"/><path d="m417.349 114.955c1.367 1.703 3.407 2.725 5.589 2.8.087.003.174.004.26.004 2.089 0 4.088-.872 5.51-2.412l25.737-27.87c2.811-3.043 2.622-7.788-.422-10.598-3.043-2.81-7.786-2.621-10.598.421l-19.83 21.473-8.646-10.77c-2.595-3.23-7.313-3.748-10.544-1.153-3.23 2.593-3.746 7.313-1.153 10.543z"/><path d="m486.938 197.173h-146.534v-175.957c0-11.649-9.478-21.126-21.126-21.126h-298.152c-11.648 0-21.126 9.477-21.126 21.126v190.392 21.069c0 11.649 9.478 21.126 21.126 21.126h97.28v17.642h-10.005c-7.154 0-12.745 2.037-16.618 6.054-6.167 6.397-5.831 15.56-5.609 21.623.054 1.477.105 2.872.047 3.792-.133 2.068.597 4.098 2.015 5.609s3.397 2.368 5.47 2.368h73.955v35.535c0 4.142 3.357 7.5 7.5 7.5s7.5-3.358 7.5-7.5v-94.134c1.677-1.262 2.805-3.207 2.971-5.425h307.434v154.324h-310.406v-24.656c0-4.142-3.357-7.5-7.5-7.5s-7.5 3.358-7.5 7.5v32.156 21.068c0 11.649 9.478 21.126 21.126 21.126h97.281v17.642h-10.005c-7.154 0-12.746 2.037-16.619 6.054-6.167 6.396-5.831 15.559-5.609 21.622.054 1.477.105 2.872.047 3.792-.133 2.068.597 4.098 2.015 5.609s3.397 2.368 5.47 2.368h153.064c2.072 0 4.052-.857 5.47-2.368s2.147-3.542 2.015-5.609c-.058-.914-.022-2.262.015-3.69.16-6.131.403-15.397-5.841-21.807-3.86-3.962-9.362-5.971-16.354-5.971h-10.075v-17.642h97.28c11.648 0 21.126-9.477 21.126-21.126v-21.068-190.392c-.002-11.649-9.479-21.126-21.128-21.126zm-465.812-182.083h298.152c3.378 0 6.126 2.749 6.126 6.126v13.733l-89.591-.358c-.011 0-.021 0-.031 0-4.128 0-7.482 3.338-7.499 7.47-.017 4.142 3.328 7.513 7.47 7.53l89.651.358v147.224h-136.618c-6.184 0-11.738 2.687-15.605 6.936h-158.181v-154.324h190.675c4.143 0 7.5-3.358 7.5-7.5s-3.357-7.5-7.5-7.5h-190.675v-13.569c0-3.378 2.748-6.126 6.126-6.126zm-6.126 217.587v-13.569h152.66v19.695h-146.534c-3.378.001-6.126-2.748-6.126-6.126zm118.406 21.127h34.254v17.642h-34.254zm-32.32 42.088c-.046-3.193.146-6.581 1.496-7.981.911-.945 2.978-1.465 5.819-1.465h17.495.01 41.754v9.446zm81.574-64.024v-13.568c0-.25.02-.496.049-.738 1.405-1.075 2.422-2.63 2.794-4.425.95-.607 2.075-.963 3.283-.963h298.152c3.378 0 6.126 2.749 6.126 6.126v13.568zm222.683 253.099c1.389 1.425 1.644 4.793 1.642 8.008h-138.239c-.046-3.193.146-6.581 1.496-7.981.911-.945 2.978-1.465 5.82-1.465h17.505 88.591 17.575c1.573-.001 4.391.186 5.61 1.438zm-30.685-16.439h-73.591v-17.642h73.591zm118.406-38.768c0 3.378-2.748 6.126-6.126 6.126h-298.152c-3.378 0-6.126-2.749-6.126-6.126v-13.568h310.404z"/></svg>