<svg id="Capa_1" enable-background="new 0 0 508.938 508.938" height="512" viewBox="0 0 508.938 508.938" width="512" xmlns="http://www.w3.org/2000/svg"><path d="m180.489 77.559h-154.339c-14.419 0-26.15 11.732-26.15 26.152v28.837 243.842 28.837c0 14.419 11.731 26.151 26.15 26.151h154.339c14.42 0 26.151-11.731 26.151-26.151v-28.837-243.842-28.837c.001-14.42-11.731-26.152-26.151-26.152zm-165.489 26.152c0-6.149 5.002-11.151 11.15-11.151h154.339c6.148 0 11.151 5.002 11.151 11.151v21.337h-176.64zm176.641 36.337v228.842h-176.641v-228.842zm0 265.179c0 6.148-5.003 11.151-11.151 11.151h-154.34c-6.148 0-11.15-5.002-11.15-11.151v-21.337h176.641z"/><path d="m482.786 77.559h-154.339c-14.419 0-26.15 11.731-26.15 26.151v28.837 183.155c0 4.142 3.357 7.5 7.5 7.5s7.5-3.358 7.5-7.5v-175.654h176.641v228.842h-176.641v-23.048c0-4.142-3.357-7.5-7.5-7.5s-7.5 3.358-7.5 7.5v30.548 28.837c0 14.419 11.731 26.151 26.15 26.151h154.339c14.42 0 26.151-11.731 26.151-26.151v-28.837-243.842-28.837c.001-14.42-11.731-26.152-26.151-26.152zm-165.489 47.489v-21.337c0-6.149 5.002-11.151 11.15-11.151h154.339c6.148 0 11.151 5.002 11.151 11.151v21.337zm176.641 280.179c0 6.148-5.003 11.151-11.151 11.151h-154.34c-6.148 0-11.15-5.002-11.15-11.151v-21.337h176.641z"/><path d="m288.581 236.636h-48.801l9.436-10.161c2.818-3.035 2.643-7.781-.393-10.6s-7.781-2.643-10.6.393l-21.139 22.764c-2.029 2.186-2.571 5.367-1.379 8.102s3.892 4.502 6.875 4.502h66c4.143 0 7.5-3.358 7.5-7.5s-3.356-7.5-7.499-7.5z"/><path d="m288.581 262.372h-66c-4.143 0-7.5 3.358-7.5 7.5s3.357 7.5 7.5 7.5h48.801l-9.436 10.161c-2.818 3.035-2.643 7.781.393 10.6 1.444 1.341 3.275 2.004 5.102 2.004 2.013 0 4.021-.805 5.498-2.396l21.139-22.764c2.029-2.186 2.571-5.367 1.379-8.102s-3.893-4.503-6.876-4.503z"/><path d="m55.624 300.935h17.031l25.346 25.497c1.408 1.416 3.322 2.212 5.319 2.212s3.911-.796 5.319-2.212l25.346-25.497h17.03c14.061 0 25.5-11.439 25.5-25.5v-63.072c0-14.061-11.439-25.5-25.5-25.5h-43.805c-4.143 0-7.5 3.358-7.5 7.5s3.357 7.5 7.5 7.5h43.805c5.79 0 10.5 4.71 10.5 10.5v63.072c0 5.79-4.71 10.5-10.5 10.5h-20.15c-1.997 0-3.911.796-5.319 2.212l-22.226 22.359-22.226-22.359c-1.408-1.416-3.322-2.212-5.319-2.212h-20.151c-5.79 0-10.5-4.71-10.5-10.5v-63.072c0-5.79 4.71-10.5 10.5-10.5h19.711c4.143 0 7.5-3.358 7.5-7.5s-3.357-7.5-7.5-7.5h-19.711c-14.061 0-25.5 11.439-25.5 25.5v63.072c0 14.061 11.439 25.5 25.5 25.5z"/><path d="m374.952 300.935 25.346 25.497c1.408 1.416 3.322 2.212 5.319 2.212s3.911-.796 5.319-2.212l25.346-25.497h17.03c14.061 0 25.5-11.439 25.5-25.5v-63.072c0-14.061-11.439-25.5-25.5-25.5h-95.392c-14.061 0-25.5 11.439-25.5 25.5v63.072c0 14.061 11.439 25.5 25.5 25.5zm-27.531-25.5v-63.072c0-5.79 4.71-10.5 10.5-10.5h95.392c5.79 0 10.5 4.71 10.5 10.5v63.072c0 5.79-4.71 10.5-10.5 10.5h-20.15c-1.997 0-3.911.796-5.319 2.212l-22.226 22.359-22.226-22.359c-1.408-1.416-3.322-2.212-5.319-2.212h-20.151c-5.791 0-10.501-4.71-10.501-10.5z"/></svg>