<svg id="Capa_1" enable-background="new 0 0 512.337 512.337" height="512" viewBox="0 0 512.337 512.337" width="512" xmlns="http://www.w3.org/2000/svg"><path d="m493.099 3.981h-97.135c-10.608 0-19.238 8.63-19.238 19.238v18.149 118.18h-52.708v-118.179-18.149c0-10.608-8.63-19.238-19.238-19.238h-97.135c-10.608 0-19.238 8.63-19.238 19.238v18.149 118.18h-52.794v-35.63c0-4.142-3.358-7.5-7.5-7.5s-7.5 3.358-7.5 7.5v63.416h-105.613v-138.466h105.611v44.56c0 4.142 3.358 7.5 7.5 7.5s7.5-3.358 7.5-7.5v-70.209c0-10.608-8.63-19.238-19.238-19.238h-97.135c-10.608-.001-19.238 8.63-19.238 19.238v189.763c0 10.608 8.63 19.238 19.238 19.238h20.914v56.222c0 4.142 3.358 7.5 7.5 7.5s7.5-3.358 7.5-7.5v-56.222h61.221c10.608 0 19.238-8.63 19.238-19.238v-38.435h52.794v20.286 18.149c0 10.608 8.63 19.238 19.238 19.238h40.357v81.475h-145.584c-4.142 0-7.5 3.358-7.5 7.5v82.283h-39.764v-67.208c0-4.142-3.358-7.5-7.5-7.5s-7.5 3.358-7.5 7.5v74.708c0 4.142 3.358 7.5 7.5 7.5h47.264v25.95c0 4.142 3.358 7.5 7.5 7.5s7.5-3.358 7.5-7.5v-25.903h291.167v74.83h-291.167v-15.576c0-4.142-3.358-7.5-7.5-7.5s-7.5 3.358-7.5 7.5v23.075c0 4.142 3.358 7.5 7.5 7.5h306.167c4.142 0 7.5-3.358 7.5-7.5v-82.376h47.264c4.142 0 7.5-3.358 7.5-7.5v-74.708c0-4.142-3.358-7.5-7.5-7.5s-7.5 3.358-7.5 7.5v67.208h-39.764v-82.283c0-4.142-3.358-7.5-7.5-7.5h-145.583v-81.475h41.779c10.608 0 19.238-8.63 19.238-19.238v-18.149-20.286h52.708v20.286 18.149c0 10.608 8.63 19.238 19.238 19.238h59.884v56.222c0 4.142 3.358 7.5 7.5 7.5s7.5-3.358 7.5-7.5v-56.222h22.251c10.608 0 19.238-8.63 19.238-19.238v-18.149-153.465-18.149c.001-10.608-8.629-19.239-19.237-19.239zm-473.861 15h97.135c2.297 0 4.238 1.941 4.238 4.238v10.649h-105.611v-10.648c0-2.298 1.941-4.239 4.238-4.239zm97.135 198.24h-97.135c-2.297 0-4.238-1.941-4.238-4.238v-10.649h105.611v10.649c0 2.297-1.941 4.238-4.238 4.238zm284.71 186.305h-291.167v-74.83h291.167zm-197.677-354.657h105.611v138.465h-105.611zm0-25.649c0-2.297 1.941-4.238 4.238-4.238h97.135c2.297 0 4.238 1.941 4.238 4.238v10.649h-105.611zm105.611 189.763c0 2.297-1.941 4.238-4.238 4.238h-97.135c-2.297 0-4.238-1.941-4.238-4.238v-10.649h105.611zm82.709-164.114h105.611v138.465h-105.611zm0-25.649c0-2.297 1.941-4.238 4.238-4.238h97.135c2.297 0 4.238 1.941 4.238 4.238v10.649h-105.611zm105.611 189.763c0 2.297-1.941 4.238-4.238 4.238h-97.135c-2.297 0-4.238-1.941-4.238-4.238v-10.649h105.611z"/><path d="m138.871 392.644h19.493c9.098 0 16.5-7.402 16.5-16.5v-19.493c0-9.098-7.402-16.5-16.5-16.5h-19.493c-9.098 0-16.5 7.402-16.5 16.5v19.493c0 9.098 7.402 16.5 16.5 16.5zm-1.5-35.993c0-.813.687-1.5 1.5-1.5h19.493c.813 0 1.5.687 1.5 1.5v19.493c0 .813-.687 1.5-1.5 1.5h-19.493c-.813 0-1.5-.687-1.5-1.5z"/><path d="m210.116 392.644h19.493c9.098 0 16.5-7.402 16.5-16.5v-19.493c0-9.098-7.402-16.5-16.5-16.5h-19.493c-9.098 0-16.5 7.402-16.5 16.5v19.493c0 9.098 7.402 16.5 16.5 16.5zm-1.5-35.993c0-.813.687-1.5 1.5-1.5h19.493c.813 0 1.5.687 1.5 1.5v19.493c0 .813-.687 1.5-1.5 1.5h-19.493c-.813 0-1.5-.687-1.5-1.5z"/><path d="m281.362 392.644h19.493c9.098 0 16.5-7.402 16.5-16.5v-19.493c0-9.098-7.402-16.5-16.5-16.5h-19.493c-9.098 0-16.5 7.402-16.5 16.5v19.493c0 9.098 7.402 16.5 16.5 16.5zm-1.5-35.993c0-.813.687-1.5 1.5-1.5h19.493c.813 0 1.5.687 1.5 1.5v19.493c0 .813-.687 1.5-1.5 1.5h-19.493c-.813 0-1.5-.687-1.5-1.5z"/><path d="m352.607 392.644h19.493c9.098 0 16.5-7.402 16.5-16.5v-19.493c0-9.098-7.402-16.5-16.5-16.5h-19.493c-9.098 0-16.5 7.402-16.5 16.5v19.493c0 9.098 7.402 16.5 16.5 16.5zm-1.5-35.993c0-.813.687-1.5 1.5-1.5h19.493c.813 0 1.5.687 1.5 1.5v19.493c0 .813-.687 1.5-1.5 1.5h-19.493c-.813 0-1.5-.687-1.5-1.5z"/><path d="m158.364 482.187c9.098 0 16.5-7.402 16.5-16.5v-19.493c0-9.098-7.402-16.5-16.5-16.5h-19.493c-9.098 0-16.5 7.402-16.5 16.5v19.493c0 9.098 7.402 16.5 16.5 16.5zm-20.993-16.5v-19.493c0-.813.687-1.5 1.5-1.5h19.493c.813 0 1.5.687 1.5 1.5v19.493c0 .813-.687 1.5-1.5 1.5h-19.493c-.813 0-1.5-.687-1.5-1.5z"/><path d="m229.609 482.187c9.098 0 16.5-7.402 16.5-16.5v-19.493c0-9.098-7.402-16.5-16.5-16.5h-19.493c-9.098 0-16.5 7.402-16.5 16.5v19.493c0 9.098 7.402 16.5 16.5 16.5zm-20.993-16.5v-19.493c0-.813.687-1.5 1.5-1.5h19.493c.813 0 1.5.687 1.5 1.5v19.493c0 .813-.687 1.5-1.5 1.5h-19.493c-.813 0-1.5-.687-1.5-1.5z"/><path d="m300.854 482.187c9.098 0 16.5-7.402 16.5-16.5v-19.493c0-9.098-7.402-16.5-16.5-16.5h-19.493c-9.098 0-16.5 7.402-16.5 16.5v19.493c0 9.098 7.402 16.5 16.5 16.5zm-20.992-16.5v-19.493c0-.813.687-1.5 1.5-1.5h19.493c.813 0 1.5.687 1.5 1.5v19.493c0 .813-.687 1.5-1.5 1.5h-19.493c-.813 0-1.5-.687-1.5-1.5z"/><path d="m372.1 482.187c9.098 0 16.5-7.402 16.5-16.5v-19.493c0-9.098-7.402-16.5-16.5-16.5h-19.493c-9.098 0-16.5 7.402-16.5 16.5v19.493c0 9.098 7.402 16.5 16.5 16.5zm-20.993-16.5v-19.493c0-.813.687-1.5 1.5-1.5h19.493c.813 0 1.5.687 1.5 1.5v19.493c0 .813-.687 1.5-1.5 1.5h-19.493c-.813 0-1.5-.687-1.5-1.5z"/></svg>