<svg id="Capa_1" enable-background="new 0 0 511.286 511.286" height="512" viewBox="0 0 511.286 511.286" width="512" xmlns="http://www.w3.org/2000/svg"><path d="m486.317 189.528h-139.734c-13.447 0-24.387 10.939-24.387 24.386v26.108c0 .007.001.013.001.019v75.488c0 4.142 3.357 7.5 7.5 7.5s7.5-3.358 7.5-7.5v-68.007h158.506v61.459h-46.467c-4.266-14.064-17.347-24.332-32.786-24.332-18.89 0-34.257 15.368-34.257 34.257 0 16.313 11.464 29.99 26.757 33.42v57.529h-71.753v-64.191c0-4.142-3.357-7.5-7.5-7.5s-7.5 3.358-7.5 7.5v64.191h-65.599c-3.43-15.292-17.108-26.757-33.42-26.757-16.313 0-29.99 11.464-33.42 26.757h-68.965c-.813 0-1.5-.687-1.5-1.5v-56.029c15.293-3.43 26.757-17.107 26.757-33.42s-11.464-29.99-26.757-33.42v-28.612h98.958c4.142 0 7.5-3.358 7.5-7.5v-108.511c4.335-1.311 8.31-3.735 11.453-7.081 9.814-10.451 9.297-26.937-1.153-36.751l-95.833-90c-9.982-9.375-25.619-9.374-35.598 0l-95.833 90c-5.063 4.754-7.97 11.195-8.188 18.137-.218 6.941 2.281 13.552 7.035 18.615 3.18 3.386 7.118 5.803 11.453 7.101v35.647c0 4.142 3.358 7.5 7.5 7.5s7.5-3.358 7.5-7.5v-35.643c3.803-1.141 7.32-3.154 10.299-5.951l78.035-73.284 78.035 73.284c2.966 2.786 6.489 4.8 10.299 5.945v100.995h-176.672v-35.237c0-4.142-3.358-7.5-7.5-7.5s-7.5 3.358-7.5 7.5v42.737c0 4.142 3.358 7.5 7.5 7.5h77.709v28.612c-15.292 3.43-26.757 17.107-26.757 33.42s11.464 29.99 26.757 33.42v56.029c0 9.098 7.402 16.5 16.5 16.5h68.965c3.43 15.293 17.107 26.757 33.42 26.757s29.99-11.464 33.42-26.757h65.599v35.917c0 .007-.001.013-.001.019v26.106c0 13.446 10.939 24.386 24.387 24.386h139.734c4.202 0 8.159-1.068 11.614-2.948.691-.376 1.362-.784 2.011-1.223s1.275-.908 1.878-1.405c5.422-4.476 8.883-11.247 8.883-18.81v-26.108-220.77-26.108c.001-13.446-10.939-24.386-24.385-24.386zm-358.766-143.633c-1.443-1.355-3.289-2.033-5.134-2.033s-3.691.678-5.134 2.033l-83.169 78.106c-4.421 4.152-11.396 3.934-15.549-.488-2.011-2.142-3.068-4.938-2.976-7.875s1.323-5.662 3.464-7.673l95.834-90c4.222-3.966 10.837-3.966 15.06 0l95.834 90c4.421 4.152 4.64 11.127.488 15.549-2.102 2.237-4.951 3.469-8.023 3.47-2.805 0-5.478-1.059-7.525-2.982zm-35.015 273.012c0-10.618 8.639-19.257 19.257-19.257 10.619 0 19.257 8.639 19.257 19.257 0 10.619-8.639 19.257-19.257 19.257s-19.257-8.639-19.257-19.257zm130.642 117.706c-10.619 0-19.257-8.639-19.257-19.257s8.639-19.257 19.257-19.257 19.257 8.639 19.257 19.257-8.639 19.257-19.257 19.257zm114.019-204.091v-18.608c0-4.852 3.7-8.856 8.427-9.337.315-.032.635-.049.958-.049h139.734c5.176 0 9.386 4.21 9.386 9.386v18.608zm59.996 86.385c0-10.618 8.639-19.257 19.257-19.257s19.257 8.639 19.257 19.257c0 10.619-8.639 19.257-19.257 19.257s-19.257-8.639-19.257-19.257zm19.257 105.948c4.143 0 7.5-3.358 7.5-7.5v-65.029c13.676-3.068 24.288-14.329 26.379-28.345h45.374v129.31h-158.506v-28.436zm79.253 62.044c0 3.882-2.368 7.221-5.736 8.647-1.123.476-2.356.739-3.65.739h-139.734c-.323 0-.643-.016-.958-.049-4.727-.481-8.427-4.485-8.427-9.338v-18.608h158.506v18.609z"/><path d="m159.067 150.61c0-20.209-16.441-36.65-36.65-36.65s-36.65 16.441-36.65 36.65 16.441 36.65 36.65 36.65 36.65-16.441 36.65-36.65zm-58.3 0c0-11.938 9.712-21.65 21.65-21.65s21.65 9.712 21.65 21.65-9.712 21.65-21.65 21.65-21.65-9.712-21.65-21.65z"/><path d="m359.483 162.684c4.143 0 7.5-3.358 7.5-7.5 0-27.276 22.19-49.467 49.467-49.467s49.467 22.191 49.467 49.467c0 4.142 3.357 7.5 7.5 7.5s7.5-3.358 7.5-7.5c0-35.547-28.92-64.467-64.467-64.467s-64.467 28.92-64.467 64.467c0 4.142 3.358 7.5 7.5 7.5z"/><path d="m416.45 115.769c-19.681 0-35.691 16.011-35.691 35.69 0 4.142 3.357 7.5 7.5 7.5s7.5-3.358 7.5-7.5c0-11.409 9.282-20.69 20.691-20.69s20.69 9.282 20.69 20.69c0 4.142 3.357 7.5 7.5 7.5s7.5-3.358 7.5-7.5c0-19.679-16.01-35.69-35.69-35.69z"/></svg>