<svg id="Capa_1" enable-background="new 0 0 512 512" height="512" viewBox="0 0 512 512" width="512" xmlns="http://www.w3.org/2000/svg"><path d="m476.787 180.753c-.169-2.493-1.567-4.737-3.73-5.987l-.697-.403c-1.141-.659-2.435-1.006-3.752-1.006h-117.223c-12.838-38.744-49.404-66.775-92.399-66.775-43.624 0-80.635 28.854-92.952 68.48h-33.338v-22.375c0-2.862-1.629-5.475-4.199-6.734-2.569-1.261-5.633-.947-7.896.806l-82.5 63.937c-1.974 1.53-3.057 3.943-2.888 6.436s1.567 4.737 3.73 5.987l.697.403c1.141.659 2.435 1.006 3.752 1.006h120.489c9.489 43.781 48.524 76.68 95.104 76.68 47.183 0 86.625-33.756 95.459-78.385h24.861v22.375c0 2.862 1.629 5.475 4.199 6.734 1.047.514 2.176.766 3.3.766 1.634 0 3.255-.533 4.596-1.572l82.5-63.937c1.973-1.53 3.056-3.943 2.887-6.436zm-412.69 28.775 53.599-41.539v14.574c0 4.142 3.357 7.5 7.5 7.5h37.465c-.646 4.52-.988 9.137-.988 13.833 0 1.891.06 3.768.167 5.632zm194.888 76.68c-45.388 0-82.313-36.925-82.313-82.312 0-6.606.804-13.025 2.281-19.185.082-.275.145-.557.195-.845 8.969-35.737 41.356-62.283 79.836-62.283 45.388 0 82.313 36.925 82.313 82.313s-36.924 82.312-82.312 82.312zm135.32-56.312v-14.574c0-4.142-3.357-7.5-7.5-7.5h-30.593c.052-1.303.086-2.611.086-3.927 0-5.288-.43-10.476-1.246-15.538h92.851z"/><path d="m483.688 22.607h-455.375c-15.612 0-28.313 12.701-28.313 28.312v322.97c0 15.611 12.701 28.312 28.313 28.312h152.534v34.855h-19.237c-9.812 0-17.394 2.704-22.534 8.036-8.252 8.559-7.796 21.029-7.463 30.133.086 2.358.168 4.585.065 6.189-.133 2.068.597 4.098 2.015 5.609s3.397 2.369 5.47 2.369h233.781c2.072 0 4.052-.857 5.47-2.369s2.147-3.542 2.015-5.609c-.1-1.573-.044-3.719.016-5.992.24-9.221.57-21.849-7.802-30.442-5.123-5.259-12.574-7.925-22.146-7.925h-19.344v-34.855h152.534c15.611 0 28.313-12.701 28.313-28.312v-322.969c0-15.611-12.701-28.312-28.312-28.312zm-121.79 432.841c3.835 3.937 3.741 12.146 3.567 18.945h-218.872c-.245-6.724-.492-14.975 3.282-18.89 2.205-2.287 6.153-3.447 11.735-3.447h26.736 135.307 26.844c5.372 0 9.208 1.141 11.401 3.392zm-45.745-18.392h-120.306v-34.855h120.307v34.855zm167.535-49.855h-455.375c-7.341 0-13.313-5.972-13.313-13.312v-24.679h400.036c4.143 0 7.5-3.358 7.5-7.5s-3.357-7.5-7.5-7.5h-400.036v-243.613h63.036c4.143 0 7.5-3.358 7.5-7.5s-3.357-7.5-7.5-7.5h-63.036v-24.678c0-7.34 5.972-13.312 13.313-13.312h455.375c7.341 0 13.313 5.972 13.313 13.312v24.678h-388.857c-4.143 0-7.5 3.358-7.5 7.5s3.357 7.5 7.5 7.5h388.856v243.613h-51.856c-4.143 0-7.5 3.358-7.5 7.5s3.357 7.5 7.5 7.5h51.856v24.678c0 7.341-5.972 13.313-13.312 13.313z"/><path d="m263.054 195.342v-15.595c6.943.534 8.973 3.952 12.497 3.952 4.7 0 6.622-5.875 6.622-8.759 0-7.37-12.497-9.079-19.119-9.292v-2.67c0-1.495-2.029-2.884-4.059-2.884-2.35 0-4.059 1.389-4.059 2.884v2.991c-11.322 1.602-21.362 8.118-21.362 21.683 0 13.672 11.535 18.265 21.362 22.003v17.304c-7.904-1.389-11.536-7.69-16.022-7.69-4.059 0-7.263 5.34-7.263 8.972 0 6.836 10.468 13.458 23.285 13.886v2.67c0 1.495 1.709 2.884 4.059 2.884 2.029 0 4.059-1.389 4.059-2.884v-3.098c12.497-2.029 21.042-10.041 21.042-23.285 0-14.421-11.323-19.441-21.042-23.072zm-7.05-2.564c-4.059-1.709-6.836-3.632-6.836-6.729 0-2.563 2.03-5.02 6.836-5.981zm5.982 34.073v-14.313c3.845 1.816 6.515 4.059 6.515 7.584 0 3.845-2.884 5.875-6.515 6.729z"/></svg>