<svg id="Capa_1" enable-background="new 0 0 508.377 508.377" height="512" viewBox="0 0 508.377 508.377" width="512" xmlns="http://www.w3.org/2000/svg"><path d="m475.171 128.998c8.471-7.896 13.781-19.122 13.781-31.566 0-23.841-19.46-43.236-43.38-43.236-9.488 0-18.268 3.06-25.416 8.23-46.145-39.667-104.767-61.435-165.968-61.435-52.783 0-103.123 15.864-146.018 45.929-9.546-8.522-22.142-13.718-35.937-13.718-29.731 0-53.919 24.104-53.919 53.732 0 15.277 6.441 29.074 16.747 38.866-22.945 38.79-35.061 83.098-35.061 128.389 0 49.715 14.374 97.585 41.616 138.863-5.969 6.994-9.582 16.043-9.582 25.923 0 22.094 18.034 40.07 40.201 40.07 8.56 0 16.497-2.689 23.024-7.252 44.93 35.88 101.175 55.594 158.93 55.594 67.891 0 131.719-26.333 179.728-74.149 48.017-47.824 74.461-111.411 74.461-179.048-.001-44.031-11.47-87.183-33.207-125.192zm-80.952 177.21c1.703-14.586 2.696-29.509 2.941-44.52h95.471c-4.659 23.429-30.974 45.885-73.896 62.762-5.623-8.722-14.299-15.305-24.516-18.242zm-40.38 41.541c0-15.57 12.731-28.237 28.381-28.237 15.649 0 28.38 12.667 28.38 28.237s-12.731 28.236-28.38 28.236c-15.65.001-28.381-12.666-28.381-28.236zm-14.929-2.406c-24.727 3.917-50.641 6.064-77.221 6.404v-90.059h120.468c-.245 14.482-1.207 28.873-2.854 42.933-21.767 1.449-39.19 18.962-40.393 40.722zm-217.626-140.181c4.11.531 7.87-2.365 8.402-6.473 1.269-9.782 2.881-19.387 4.813-28.759 33.921-8.203 72.206-12.789 112.189-13.3v90.059h-120.465c.097-5.771.3-11.541.619-17.229.232-4.136-2.933-7.676-7.068-7.908-4.131-.229-7.676 2.932-7.908 7.068-.335 5.966-.546 12.018-.645 18.07h-95.443c4.462-21.969 28.285-43.466 66.916-59.926 11.049-4.708 22.995-8.899 35.666-12.556-1.362 7.356-2.552 14.874-3.548 22.552-.534 4.107 2.364 7.869 6.472 8.402zm275.873 41.527c-.404-24.972-2.825-49.334-7.123-72.477 12.665 3.656 24.605 7.845 35.65 12.551 38.631 16.46 62.454 37.957 66.916 59.926zm-15.002 0h-120.467v-90.059c40.003.511 78.305 5.102 112.239 13.313 4.98 24.291 7.784 50.137 8.228 76.746zm-120.467-105.061v-125.21c30.578 3.343 59.375 27.059 81.771 67.66 11.29 20.466 20.28 44.02 26.755 69.62-33.263-7.435-70.175-11.59-108.526-12.07zm-15 0c-38.323.479-75.208 4.628-108.452 12.053 8.546-33.685 21.348-63.678 37.389-87.003 20.801-30.247 45.232-47.479 71.063-50.274zm-135.468 120.061c.404 24.972 2.825 49.334 7.123 72.477-12.665-3.656-24.605-7.845-35.65-12.551-38.631-16.46-62.454-37.957-66.916-59.926zm15.003 0h120.466v90.059c-40.003-.511-78.305-5.102-112.239-13.313-4.979-24.292-7.784-50.137-8.227-76.746zm120.465 105.06v125.211c-30.577-3.343-59.374-27.059-81.771-67.66-11.29-20.466-20.28-44.02-26.755-69.62 33.265 7.435 70.176 11.59 108.526 12.069zm227.264-269.318c0 15.57-12.731 28.237-28.38 28.237s-28.381-12.667-28.381-28.237 12.731-28.236 28.381-28.236c15.648 0 28.38 12.667 28.38 28.236zm-64.285-24.237c-4.716 6.918-7.476 15.262-7.476 24.237 0 23.841 19.46 43.237 43.381 43.237 6.035 0 11.784-1.238 17.01-3.467 12.968 22.871 21.995 47.705 26.783 73.459-13.019-14.112-32.498-26.916-57.8-37.697-13.775-5.869-28.86-10.968-44.957-15.258-6.88-29.833-16.991-57.267-30.013-80.873-12.524-22.703-27.074-40.663-42.975-53.4 35.203 8.967 68.041 25.877 96.047 49.762zm-376.352 13.742c0-21.357 17.459-38.732 38.919-38.732s38.919 17.375 38.919 38.732-17.459 38.732-38.919 38.732-38.919-17.375-38.919-38.732zm13.997 47.625c7.46 3.893 15.934 6.107 24.922 6.107 29.731 0 53.919-24.104 53.919-53.732 0-10.469-3.031-20.241-8.249-28.512 23.627-16.361 49.625-28.165 77.062-35.104-32.88 26.17-59.273 73.778-73.187 134.383-16.101 4.29-31.188 9.39-44.966 15.261-25.302 10.781-44.781 23.585-57.8 37.697 4.972-26.749 14.511-52.497 28.299-76.1zm24.922 309.483c-13.896 0-25.201-11.246-25.201-25.07 0-13.823 11.305-25.069 25.201-25.069s25.201 11.246 25.201 25.069c0 13.824-11.306 25.07-25.201 25.07zm33.557-3.042c4.194-6.325 6.644-13.895 6.644-22.028 0-22.094-18.034-40.069-40.201-40.069-6.818 0-13.241 1.706-18.873 4.703-17.13-26.294-28.734-55.394-34.381-85.928 13.019 14.127 32.51 26.944 57.834 37.734 13.775 5.869 28.86 10.968 44.957 15.258 6.88 29.833 16.991 57.267 30.013 80.873 12.497 22.654 27.011 40.583 42.872 53.315-32.214-8.249-62.566-23.126-88.865-43.858zm317.541-18.393c-30.906 30.782-68.783 52.096-110.084 62.495 13.095-10.402 25.298-24.292 36.152-41.397 2.219-3.497 1.184-8.132-2.314-10.351-3.5-2.221-8.133-1.183-10.351 2.314-21.271 33.52-47.673 53.225-75.046 56.284v-125.205c27.167-.339 53.676-2.521 79.005-6.504 3.252 10.713 10.571 19.676 20.16 25.109-2.87 8.002-6.01 15.733-9.375 23.041-1.732 3.762-.087 8.217 3.676 9.949 1.016.468 2.082.689 3.132.689 2.837 0 5.553-1.619 6.817-4.365 3.553-7.716 6.864-15.868 9.885-24.296 2.353.395 4.767.612 7.231.612 23.92 0 43.38-19.396 43.38-43.236 0-3.251-.374-6.415-1.059-9.463 24.903-9.823 44.779-21.527 59.098-34.829 2.048-1.903 3.971-3.827 5.767-5.77-8.673 47.058-31.378 90.366-66.074 124.923z"/></svg>