<svg id="Capa_1" enable-background="new 0 0 510.18 510.18" height="512" viewBox="0 0 510.18 510.18" width="512" xmlns="http://www.w3.org/2000/svg"><path d="m493.68 159.923h-142.302v-67.78-40.01c0-1.15-.059-2.287-.173-3.408-1.712-16.81-15.95-29.97-33.204-29.97h-.001-200.966-.172c-.765 0-1.502.116-2.198.329-11.77-8.042-25.987-12.756-41.287-12.756-40.46 0-73.377 32.917-73.377 73.377 0 39.49 31.362 71.777 70.485 73.303v69.962c0 4.142 3.357 7.5 7.5 7.5s7.5-3.358 7.5-7.5v-70.906c28.113-4.69 50.853-25.411 58.492-52.422h192.401v60.28h-117.633c-.506 0-1.005.031-1.5.076v-25.845c0-4.142-3.357-7.5-7.5-7.5s-7.5 3.358-7.5 7.5v42.27 169 42.853c0 4.142 3.357 7.5 7.5 7.5s7.5-3.358 7.5-7.5v-26.429c.495.045.994.076 1.5.076h117.633v61.041h-250.893v-167.901c0-4.142-3.357-7.5-7.5-7.5s-7.5 3.358-7.5 7.5v175.401 40.01c0 18.404 14.973 33.377 33.377 33.377h214.138.001c17.254 0 31.492-13.16 33.204-29.97.114-1.121.173-2.257.173-3.408v-40.01-68.541h45.338c4.143 0 7.5-3.358 7.5-7.5s-3.357-7.5-7.5-7.5h-177.971c-.813 0-1.5-.687-1.5-1.5v-169c0-.813.687-1.5 1.5-1.5h274.935c.813 0 1.5.687 1.5 1.5v169c0 .813-.687 1.5-1.5 1.5h-64.137c-4.143 0-7.5 3.358-7.5 7.5s3.357 7.5 7.5 7.5h64.137c9.099 0 16.5-7.402 16.5-16.5v-169c0-9.098-7.402-16.499-16.5-16.499zm-420.303-21.842c-32.189 0-58.377-26.187-58.377-58.376s26.188-58.376 58.377-58.376c32.188 0 58.376 26.188 58.376 58.376s-26.188 58.376-58.376 58.376zm73.191-53.438c.109-1.634.185-3.277.185-4.938 0-17.383-6.088-33.364-16.228-45.95h187.475c8.867 0 16.287 6.312 18.004 14.678.245 1.195.374 2.432.374 3.699v32.51h-189.81zm-42.706 404.208c-10.133 0-18.377-8.244-18.377-18.377v-32.51h250.893v32.51c0 1.267-.129 2.504-.374 3.699-1.717 8.366-9.137 14.678-18.004 14.678z"/><path d="m424.91 259.395c5.379 3.288 11.697 5.186 18.45 5.186 19.565 0 35.483-15.917 35.483-35.483s-15.918-35.483-35.483-35.483c-6.753 0-13.071 1.898-18.45 5.186-5.527-3.369-11.904-5.186-18.463-5.186-19.565 0-35.483 15.917-35.483 35.483s15.918 35.483 35.483 35.483c6.559 0 12.937-1.817 18.463-5.186zm38.934-30.297c0 11.294-9.188 20.483-20.483 20.483-11.294 0-20.482-9.188-20.482-20.483s9.188-20.483 20.482-20.483 20.483 9.188 20.483 20.483zm-77.88 0c0-11.294 9.188-20.483 20.483-20.483 2.447 0 4.848.441 7.103 1.275-3.583 5.541-5.672 12.133-5.672 19.208s2.09 13.667 5.672 19.208c-2.255.833-4.656 1.275-7.103 1.275-11.295 0-20.483-9.189-20.483-20.483z"/><path d="m319.347 262.563c9.098 0 16.5-7.402 16.5-16.5v-33.93c0-9.098-7.402-16.5-16.5-16.5h-65.577c-9.098 0-16.5 7.402-16.5 16.5v33.93c0 9.098 7.402 16.5 16.5 16.5zm-67.077-16.5v-33.93c0-.813.687-1.5 1.5-1.5h65.577c.813 0 1.5.687 1.5 1.5v33.93c0 .813-.687 1.5-1.5 1.5h-65.577c-.814 0-1.5-.687-1.5-1.5z"/><path d="m232.291 294.111v11.201c0 9.098 7.401 16.5 16.5 16.5h217.625c9.099 0 16.5-7.402 16.5-16.5v-11.201c0-9.098-7.401-16.5-16.5-16.5h-217.625c-9.099 0-16.5 7.402-16.5 16.5zm15 0c0-.813.687-1.5 1.5-1.5h217.625c.813 0 1.5.687 1.5 1.5v11.201c0 .813-.687 1.5-1.5 1.5h-217.625c-.813 0-1.5-.687-1.5-1.5z"/><path d="m89.604 59.408-22.181 24.02-9.936-12.375c-2.596-3.229-7.315-3.747-10.544-1.152-3.23 2.593-3.746 7.314-1.153 10.544l15.387 19.164c1.367 1.702 3.408 2.724 5.59 2.8.086.003.173.004.259.004 2.089 0 4.088-.872 5.51-2.412l28.089-30.417c2.811-3.043 2.621-7.788-.422-10.598s-7.789-2.621-10.599.422z"/></svg>