<svg id="Capa_1" enable-background="new 0 0 512 512" height="512" viewBox="0 0 512 512" width="512" xmlns="http://www.w3.org/2000/svg"><path d="m504.5 311.507h-25.738v-18.846c0-9.098-7.402-16.5-16.5-16.5h-198.762v-77.778c47.368-3.83 84.742-43.599 84.742-91.936 0-50.862-41.379-92.242-92.242-92.242s-92.242 41.379-92.242 92.242c0 48.337 37.374 88.106 84.742 91.936v77.778h-94.638c-4.142 0-7.5 3.358-7.5 7.5s3.358 7.5 7.5 7.5h308.4c.813 0 1.5.687 1.5 1.5v18.846h-415.524v-18.846c0-.813.687-1.5 1.5-1.5h74.016c4.142 0 7.5-3.358 7.5-7.5s-3.358-7.5-7.5-7.5h-74.016c-9.098 0-16.5 7.402-16.5 16.5v18.846h-25.738c-4.142 0-7.5 3.358-7.5 7.5v135.941c0 4.142 3.358 7.5 7.5 7.5h25.738v18.846c0 9.098 7.402 16.5 16.5 16.5h412.524c9.098 0 16.5-7.402 16.5-16.5v-18.846h25.738c4.142 0 7.5-3.358 7.5-7.5v-135.941c0-4.142-3.358-7.5-7.5-7.5zm-256-128.188c-39.084-3.784-69.742-36.812-69.742-76.872 0-42.591 34.65-77.242 77.242-77.242s77.242 34.65 77.242 77.242c0 40.061-30.657 73.088-69.742 76.872v-14.026c31.383-3.724 55.806-30.479 55.806-62.846 0-34.907-28.399-63.305-63.306-63.305s-63.306 28.398-63.306 63.305c0 32.368 24.423 59.123 55.806 62.846zm0-29.151c-23.086-3.615-40.806-23.636-40.806-47.721 0-26.636 21.67-48.305 48.306-48.305s48.306 21.669 48.306 48.305c0 24.085-17.719 44.106-40.806 47.721v-11.31c16.914-3.479 29.671-18.483 29.671-36.411 0-20.497-16.675-37.171-37.171-37.171s-37.171 16.675-37.171 37.171c0 17.928 12.758 32.932 29.671 36.411zm-14.671-47.721c0-12.226 9.946-22.171 22.171-22.171s22.171 9.946 22.171 22.171-9.946 22.172-22.171 22.172-22.171-9.946-22.171-22.172zm263.171 341.001h-94.138c-4.142 0-7.5 3.358-7.5 7.5s3.358 7.5 7.5 7.5h60.9v18.846c0 .813-.687 1.5-1.5 1.5h-412.524c-.813 0-1.5-.687-1.5-1.5v-18.846h324.516c4.142 0 7.5-3.358 7.5-7.5s-3.358-7.5-7.5-7.5h-357.754v-120.941h482z"/><path d="m42.413 409.036h2.495v6.927c0 4.142 3.358 7.5 7.5 7.5h39.354c4.142 0 7.5-3.358 7.5-7.5v-6.927h2.495c4.142 0 7.5-3.358 7.5-7.5v-43.544c0-4.142-3.358-7.5-7.5-7.5h-59.344c-4.142 0-7.5 3.358-7.5 7.5v43.544c0 4.142 3.358 7.5 7.5 7.5zm7.5-43.544h44.343v28.544h-2.495c-4.142 0-7.5 3.358-7.5 7.5v6.927h-24.354v-6.927c0-4.142-3.358-7.5-7.5-7.5h-2.495v-28.544z"/><path d="m139.237 409.036h2.495v6.927c0 4.142 3.358 7.5 7.5 7.5h39.354c4.142 0 7.5-3.358 7.5-7.5v-6.927h2.495c4.142 0 7.5-3.358 7.5-7.5v-43.544c0-4.142-3.358-7.5-7.5-7.5h-59.343c-4.142 0-7.5 3.358-7.5 7.5v43.544c-.001 4.142 3.357 7.5 7.499 7.5zm7.5-43.544h44.343v28.544h-2.495c-4.142 0-7.5 3.358-7.5 7.5v6.927h-24.354v-6.927c0-4.142-3.358-7.5-7.5-7.5h-2.495v-28.544z"/><path d="m236.062 409.036h2.495v6.927c0 4.142 3.358 7.5 7.5 7.5h39.354c4.142 0 7.5-3.358 7.5-7.5v-6.927h2.495c4.142 0 7.5-3.358 7.5-7.5v-43.544c0-4.142-3.358-7.5-7.5-7.5h-59.343c-4.142 0-7.5 3.358-7.5 7.5v43.544c-.001 4.142 3.356 7.5 7.499 7.5zm7.5-43.544h44.343v28.544h-2.495c-4.142 0-7.5 3.358-7.5 7.5v6.927h-24.354v-6.927c0-4.142-3.358-7.5-7.5-7.5h-2.495v-28.544z"/><path d="m366.468 420.566c9.238 0 17.924-3.598 24.457-10.131s10.131-15.219 10.131-24.457c0-9.239-3.598-17.925-10.131-24.457-6.533-6.533-15.219-10.131-24.457-10.131-9.239 0-17.925 3.598-24.458 10.131-13.485 13.485-13.485 35.428 0 48.914 6.533 6.533 15.219 10.131 24.458 10.131zm-13.851-48.439c3.7-3.7 8.619-5.737 13.851-5.737s10.151 2.038 13.851 5.737 5.737 8.619 5.737 13.851-2.038 10.151-5.737 13.851-8.619 5.737-13.851 5.737-10.151-2.038-13.851-5.737c-7.637-7.638-7.637-20.065 0-27.702z"/><path d="m445.468 420.566c9.238 0 17.924-3.598 24.457-10.131s10.131-15.219 10.131-24.457c0-9.239-3.598-17.925-10.131-24.457-6.533-6.533-15.219-10.131-24.457-10.131-9.239 0-17.925 3.598-24.458 10.131-13.485 13.485-13.485 35.428 0 48.914 6.533 6.533 15.219 10.131 24.458 10.131zm-13.851-48.439c3.7-3.7 8.619-5.737 13.851-5.737s10.151 2.038 13.851 5.737 5.737 8.619 5.737 13.851-2.038 10.151-5.737 13.851-8.619 5.737-13.851 5.737-10.151-2.038-13.851-5.737c-7.637-7.638-7.637-20.065 0-27.702z"/></svg>