<svg id="Capa_1" enable-background="new 0 0 508.884 508.884" height="512" viewBox="0 0 508.884 508.884" width="512" xmlns="http://www.w3.org/2000/svg"><path d="m473.488 159.303c-18.062-4.785-41.446-7.604-66.488-8.071v-39.243c10.767-3.232 18.637-13.229 18.637-25.035 0-14.412-11.725-26.136-26.137-26.136-9.923 0-18.572 5.559-22.997 13.727l-98.449-20.341c-.7-13.792-12.14-24.797-26.103-24.797-10.258 0-19.15 5.943-23.426 14.564l-93.193-19.256c-1.16-13.347-12.388-23.857-26.031-23.857-14.412 0-26.136 11.725-26.136 26.137 0 11.805 7.869 21.802 18.636 25.034v41.033c-25.011.472-48.362 3.29-66.404 8.069-23.488 6.221-35.397 15.076-35.397 26.317v58.172 58.172 58.172c0 11.242 11.909 20.096 35.396 26.317 17.271 4.575 39.405 7.358 63.204 8.002l-38.055 46.619c-1.832 2.244-2.208 5.341-.966 7.958s3.879 4.285 6.776 4.285h9.466v68.421c0 4.142 3.358 7.5 7.5 7.5h51.958c4.142 0 7.5-3.358 7.5-7.5v-22.133c0-4.142-3.358-7.5-7.5-7.5s-7.5 3.358-7.5 7.5v14.633h-36.957v-68.421c0-4.142-3.358-7.5-7.5-7.5h-1.163l27.142-33.249 27.142 33.249h-1.162c-4.142 0-7.5 3.358-7.5 7.5v22.016c0 4.142 3.358 7.5 7.5 7.5s7.5-3.358 7.5-7.5v-14.516h9.466c2.896 0 5.534-1.668 6.776-4.285s.866-5.714-.966-7.958l-38.055-46.619c23.8-.644 45.933-3.427 63.205-8.002 23.487-6.221 35.396-15.076 35.396-26.317v-58.172-58.172-58.172c0-11.242-11.909-20.096-35.396-26.317-18.043-4.779-41.394-7.597-66.405-8.069v-41.033c6.673-2.003 12.234-6.602 15.497-12.625l93.723 19.365c1.596 12.894 12.611 22.91 25.93 22.91 9.583 0 17.973-5.188 22.523-12.899l98.995 20.454c.938 10.797 8.465 19.733 18.531 22.755v39.244c-9.84.188-19.469.736-28.708 1.648-4.122.407-7.134 4.079-6.727 8.201s4.073 7.132 8.201 6.727c8.756-.865 17.892-1.38 27.234-1.565v16.172c0 4.142 3.358 7.5 7.5 7.5s7.5-3.358 7.5-7.5v-16.181c23.04.447 44.563 2.96 61.245 7.205 20.49 5.213 25.437 10.95 25.641 12.157v.002c-.205 1.254-5.153 6.991-25.641 12.204-18.461 4.697-42.846 7.284-68.661 7.284s-50.199-2.587-68.661-7.284c-20.466-5.207-25.425-10.937-25.64-12.153v-.01c.037-.133 2.936-7.186 30.259-13.303 4.042-.905 6.585-4.916 5.68-8.958s-4.913-6.584-8.958-5.68c-27.857 6.237-41.982 15.631-41.982 27.921v58.172 58.172 58.172c0 11.241 11.909 20.096 35.396 26.317 11.58 3.067 25.354 5.323 40.342 6.676v47.288h-9.466c-2.896 0-5.534 1.668-6.776 4.285-1.242 2.616-.866 5.714.966 7.958l42.945 52.61c1.424 1.745 3.558 2.757 5.81 2.757s4.386-1.012 5.81-2.757l42.945-52.61c1.832-2.244 2.208-5.341.966-7.958s-3.879-4.285-6.776-4.285h-9.466v-47.273c15.052-1.351 28.886-3.611 40.509-6.69 23.487-6.221 35.396-15.076 35.396-26.317v-58.172-58.172-58.173c0-11.242-11.909-20.096-35.396-26.317zm-269.886 84.471c-.215 1.262-5.174 6.992-25.64 12.199-18.462 4.697-42.846 7.284-68.661 7.284s-50.2-2.587-68.661-7.284c-20.494-5.214-25.439-10.953-25.64-12.181v-39.35c5.371 2.814 12.171 5.317 20.396 7.496 19.836 5.254 46.083 8.148 73.904 8.148s54.068-2.894 73.905-8.148c8.225-2.179 15.025-4.682 20.396-7.496v39.332zm0-58.171c-.215 1.262-5.174 6.992-25.64 12.199-18.462 4.697-42.846 7.284-68.661 7.284s-50.2-2.587-68.661-7.284c-20.494-5.215-25.439-10.954-25.64-12.182v-39.35c5.371 2.814 12.171 5.317 20.396 7.496 19.836 5.254 46.083 8.148 73.904 8.148s54.068-2.894 73.905-8.148c8.225-2.179 15.025-4.682 20.396-7.496v39.333zm-25.64 128.543c-18.462 4.697-42.846 7.284-68.661 7.284s-50.2-2.587-68.661-7.284c-20.494-5.214-25.439-10.954-25.64-12.182v-39.35c5.371 2.814 12.171 5.317 20.396 7.496 19.836 5.254 46.083 8.148 73.904 8.148s54.068-2.894 73.905-8.148c8.225-2.179 15.025-4.682 20.396-7.496v39.333c-.214 1.261-5.173 6.991-25.639 12.199zm0-198.879c20.37 5.183 25.378 10.883 25.637 12.182-.259 1.298-5.268 6.999-25.637 12.181-18.462 4.697-42.846 7.284-68.661 7.284s-50.2-2.587-68.661-7.284c-20.466-5.207-25.425-10.937-25.64-12.152v-.011c.215-1.262 5.174-6.992 25.64-12.199 16.662-4.239 38.153-6.752 61.161-7.203v14.392c0 4.142 3.358 7.5 7.5 7.5s7.5-3.358 7.5-7.5v-14.392c23.008.45 44.499 2.963 61.161 7.202zm-68.661-77.136c-6.141 0-11.136-4.996-11.136-11.136s4.996-11.137 11.136-11.137 11.137 4.996 11.137 11.137-4.997 11.136-11.137 11.136zm142.65 28.548c-6.141 0-11.136-4.996-11.136-11.136s4.996-11.137 11.136-11.137 11.137 4.996 11.137 11.137-4.996 11.136-11.137 11.136zm136.412 20.276c0-6.141 4.996-11.136 11.136-11.136s11.137 4.996 11.137 11.136-4.996 11.136-11.136 11.136-11.137-4.996-11.137-11.136zm105.521 214.992c-.215 1.262-5.175 6.992-25.641 12.199-18.461 4.697-42.845 7.283-68.66 7.283s-50.198-2.586-68.66-7.283c-20.495-5.214-25.44-10.954-25.642-12.182v-39.351c5.371 2.814 12.171 5.317 20.396 7.496 19.836 5.254 46.083 8.148 73.905 8.148s54.068-2.894 73.904-8.148c8.225-2.179 15.025-4.682 20.396-7.496v39.334zm-168.205-90.009c19.836 5.254 46.083 8.148 73.905 8.148s54.068-2.894 73.904-8.148c8.225-2.179 15.025-4.682 20.396-7.496v39.333c-.215 1.262-5.174 6.992-25.64 12.199-18.461 4.697-42.846 7.284-68.661 7.284s-50.199-2.587-68.661-7.284c-20.495-5.214-25.439-10.954-25.64-12.182v-39.35c5.371 2.814 12.171 5.317 20.397 7.496zm99.8 243.479h1.162l-27.142 33.25-27.141-33.25h1.162c4.142 0 7.5-3.358 7.5-7.5v-53.76c6.072.29 12.274.445 18.563.445 6.232 0 12.376-.153 18.395-.438v53.753c.001 4.142 3.359 7.5 7.501 7.5zm42.764-83.099c-18.461 4.697-42.845 7.283-68.66 7.283s-50.198-2.586-68.66-7.283c-20.495-5.214-25.44-10.954-25.642-12.182v-39.351c5.371 2.814 12.171 5.317 20.396 7.496 19.836 5.254 46.083 8.148 73.905 8.148s54.068-2.894 73.904-8.148c8.225-2.179 15.025-4.682 20.396-7.496v39.333c-.213 1.263-5.172 6.993-25.639 12.2z"/></svg>