<svg id="Capa_1" enable-background="new 0 0 507.224 507.224" height="512" viewBox="0 0 507.224 507.224" width="512" xmlns="http://www.w3.org/2000/svg"><path d="m139.847 359.39c0 4.142 3.358 7.5 7.5 7.5s7.5-3.358 7.5-7.5v-212.718c34.725-1.489 63.256-27.222 69.086-60.664h114.937c4.143 0 7.5-3.358 7.5-7.5s-3.357-7.5-7.5-7.5h-113.887c-1.257-39.366-33.65-71.008-73.316-71.008-40.46 0-73.376 32.917-73.376 73.376 0 36.436 26.698 66.74 61.556 72.411zm-46.556-286.014c0-32.188 26.187-58.376 58.376-58.376s58.376 26.188 58.376 58.376-26.188 58.376-58.376 58.376-58.376-26.187-58.376-58.376z"/><path d="m398.247 71.008h-21.674c-4.143 0-7.5 3.358-7.5 7.5s3.357 7.5 7.5 7.5h21.674c8.649 0 15.687 7.037 15.687 15.687v331.492h-259.087v-44.164c0-4.142-3.358-7.5-7.5-7.5s-7.5 3.358-7.5 7.5v51.664 35.85c0 16.921 13.766 30.687 30.687 30.687h227.713c16.921 0 30.687-13.766 30.687-30.687v-35.85-338.992c-.001-16.921-13.767-30.687-30.687-30.687zm15.686 405.529c0 8.65-7.037 15.687-15.687 15.687h-227.712c-8.65 0-15.687-7.037-15.687-15.687v-28.35h259.086z"/><path d="m316.093 197.002c-21.616 0-39.203 17.586-39.203 39.203v138.342c0 13.346-10.858 24.203-24.204 24.203s-24.204-10.857-24.204-24.203v-107.083c6.219-5.204 19.039-18.066 19.039-35.671 0-14.633-11.905-26.539-26.539-26.539-14.633 0-26.539 11.905-26.539 26.539 0 17.605 12.82 30.468 19.039 35.671v107.083c0 21.617 17.586 39.203 39.204 39.203s39.204-17.586 39.204-39.203v-138.341c0-13.346 10.857-24.203 24.203-24.203s24.203 10.857 24.203 24.203v106.198c-10.991 3.245-19.038 13.424-19.038 25.452 0 22.744 21.405 37.583 22.316 38.203 1.273.867 2.747 1.301 4.222 1.301 1.474 0 2.948-.434 4.222-1.301.911-.621 22.317-15.459 22.317-38.203 0-12.029-8.047-22.208-19.039-25.453v-106.197c0-21.617-17.587-39.204-39.203-39.204zm-95.11 23.252c6.363 0 11.539 5.176 11.539 11.539 0 9.772-6.862 17.884-11.531 22.271-4.668-4.4-11.547-12.537-11.547-22.271 0-6.362 5.177-11.539 11.539-11.539zm138.352 147.602c0 9.778-6.869 17.893-11.538 22.279-4.675-4.391-11.539-12.503-11.539-22.279 0-6.362 5.176-11.539 11.538-11.539s11.539 5.177 11.539 11.539z"/><path d="m338.87 175.626c4.143 0 7.5-3.358 7.5-7.5 0-36-29.288-65.288-65.289-65.288-36 0-65.288 29.288-65.288 65.288 0 4.142 3.358 7.5 7.5 7.5s7.5-3.358 7.5-7.5c0-27.729 22.559-50.288 50.288-50.288s50.289 22.559 50.289 50.288c0 4.143 3.357 7.5 7.5 7.5z"/><path d="m281.081 128.251c-19.904 0-36.097 16.193-36.097 36.097 0 4.142 3.358 7.5 7.5 7.5s7.5-3.358 7.5-7.5c0-11.633 9.464-21.097 21.097-21.097s21.097 9.464 21.097 21.097c0 4.142 3.357 7.5 7.5 7.5s7.5-3.358 7.5-7.5c0-19.904-16.193-36.097-36.097-36.097z"/><path d="m178.493 52.658c-3.043-2.811-7.788-2.621-10.598.421l-22.182 24.021-9.936-12.375c-2.592-3.229-7.313-3.747-10.544-1.152-3.229 2.593-3.746 7.314-1.152 10.544l15.387 19.164c1.367 1.702 3.407 2.724 5.589 2.8.087.003.173.004.26.004 2.088 0 4.087-.872 5.509-2.412l28.089-30.417c2.81-3.043 2.621-7.788-.422-10.598z"/></svg>