<svg id="Capa_1" enable-background="new 0 0 507.067 507.067" height="512" viewBox="0 0 507.067 507.067" width="512" xmlns="http://www.w3.org/2000/svg"><path d="m459.154 0h-65.688c-14.414 0-26.141 11.727-26.141 26.141v24.204c0 4.142 3.357 7.5 7.5 7.5s7.5-3.358 7.5-7.5v-24.204c0-6.143 4.998-11.141 11.141-11.141h65.688c6.143 0 11.141 4.998 11.141 11.141v226.485c0 6.143-4.998 11.141-11.141 11.141h-65.688c-6.143 0-11.141-4.998-11.141-11.141v-171.986c0-4.142-3.357-7.5-7.5-7.5s-7.5 3.358-7.5 7.5v67.104h-315.524c-16.558 0-30.028 13.47-30.028 30.028v191.76c0 4.142 3.357 7.5 7.5 7.5s7.5-3.358 7.5-7.5v-191.76c0-8.286 6.741-15.028 15.028-15.028h315.525v89.882c0 14.414 11.727 26.141 26.141 26.141h53.301v153.298h-409.996v-32.425c0-4.142-3.357-7.5-7.5-7.5s-7.5 3.358-7.5 7.5v39.925 37.474c0 14.488 10.313 26.612 23.984 29.417 1.953.401 3.974.611 6.044.611h379.938c2.07 0 4.091-.21 6.044-.611 13.671-2.805 23.984-14.929 23.984-29.417v-37.474-160.929c13.192-1.315 23.527-12.478 23.527-26.01v-226.485c.002-14.414-11.725-26.141-26.139-26.141zm-27.415 492.067h-379.938c-8.287 0-15.028-6.742-15.028-15.028v-29.974h409.995v29.974c-.001 8.286-6.742 15.028-15.029 15.028z"/><path d="m426.31 91.536c11.966 0 21.701-9.735 21.701-21.701v-25.061c0-11.966-9.735-21.701-21.701-21.701s-21.701 9.735-21.701 21.701v25.061c0 11.966 9.735 21.701 21.701 21.701zm-6.701-46.762c0-3.695 3.006-6.701 6.701-6.701s6.701 3.006 6.701 6.701v25.061c0 3.695-3.006 6.701-6.701 6.701s-6.701-3.006-6.701-6.701z"/><path d="m404.609 143.639c0 11.966 9.735 21.701 21.701 21.701s21.701-9.735 21.701-21.701v-25.061c0-11.966-9.735-21.701-21.701-21.701s-21.701 9.735-21.701 21.701zm15-25.06c0-3.695 3.006-6.701 6.701-6.701s6.701 3.006 6.701 6.701v25.061c0 3.695-3.006 6.701-6.701 6.701s-6.701-3.006-6.701-6.701z"/><path d="m388.336 218.037c0 20.939 17.035 37.974 37.975 37.974 20.938 0 37.974-17.035 37.974-37.974s-17.035-37.974-37.974-37.974c-20.94 0-37.975 17.035-37.975 37.974zm37.974-22.974c12.668 0 22.974 10.306 22.974 22.974s-10.306 22.974-22.974 22.974-22.975-10.306-22.975-22.974 10.307-22.974 22.975-22.974z"/><path d="m209.528 344.689c4.27 0 8.539-1.751 8.539-5.255v-59.448h15.108c3.285 0 5.146-3.613 5.146-7.773 0-3.613-1.532-7.554-5.146-7.554h-47.295c-3.613 0-5.146 3.941-5.146 7.554 0 4.16 1.861 7.773 5.146 7.773h15.108v59.448c0 3.504 4.27 5.255 8.54 5.255z"/><path d="m271.494 345.346c5.036 0 9.963-1.861 11.167-5.693l20.364-66.784c.109-.438.219-.876.219-1.205 0-4.051-6.24-7.007-10.948-7.007-2.737 0-4.927.876-5.584 3.175l-15.218 56.165-15.327-56.165c-.657-2.299-2.847-3.175-5.584-3.175-4.707 0-10.948 2.956-10.948 7.007 0 .329.11.767.22 1.205l20.473 66.784c1.203 3.832 6.13 5.693 11.166 5.693z"/><path d="m183.982 126.248c4.143 0 7.5-3.358 7.5-7.5 0-27.729 22.56-50.288 50.288-50.288s50.287 22.559 50.287 50.288c0 4.142 3.357 7.5 7.5 7.5s7.5-3.358 7.5-7.5c0-36-29.288-65.288-65.287-65.288-36 0-65.288 29.288-65.288 65.288 0 4.142 3.358 7.5 7.5 7.5z"/><path d="m241.77 78.873c-19.904 0-36.098 16.193-36.098 36.097 0 4.142 3.357 7.5 7.5 7.5s7.5-3.358 7.5-7.5c0-11.633 9.465-21.097 21.098-21.097s21.097 9.464 21.097 21.097c0 4.142 3.357 7.5 7.5 7.5s7.5-3.358 7.5-7.5c0-19.904-16.193-36.097-36.097-36.097z"/></svg>