<svg id="Capa_1" enable-background="new 0 0 512.334 512.334" height="512" viewBox="0 0 512.334 512.334" width="512" xmlns="http://www.w3.org/2000/svg"><path d="m190.535 325.659c-2.043 0-4 .834-5.415 2.311l-23.566 24.59c-2.866 2.991-2.765 7.738.226 10.604 1.454 1.394 3.322 2.085 5.188 2.085 1.973 0 3.942-.774 5.416-2.311l21.326-22.252 16.145.136c9.378 15.98 26.732 26.739 46.562 26.739 19.832 0 37.187-10.761 46.564-26.743l15.643-.132 21.326 22.252c1.474 1.537 3.443 2.311 5.416 2.311 1.866 0 3.735-.692 5.188-2.085 2.99-2.866 3.092-7.613.226-10.604l-23.566-24.59c-1.415-1.477-3.371-2.311-5.415-2.311-.021 0-.042 0-.063 0l-12.759.107c.906-3.913 1.4-7.982 1.4-12.166v-5.252l8.247-.07 21.326 22.253c1.474 1.537 3.443 2.311 5.416 2.311 1.866 0 3.735-.692 5.188-2.085 2.99-2.866 3.092-7.614.226-10.604l-23.566-24.59c-1.415-1.477-3.371-2.311-5.415-2.311-.021 0-.042 0-.063 0l-11.358.096v-17.406l8.247-.07 21.326 22.253c1.474 1.537 3.443 2.311 5.416 2.311 1.866 0 3.735-.692 5.188-2.085 2.99-2.866 3.092-7.614.226-10.604l-23.566-24.59c-1.43-1.492-3.379-2.352-5.479-2.31l-13.226.112c-3.04-7.309-9.522-12.835-17.413-14.549-2.99-16.505-17.455-29.065-34.808-29.065-17.375 0-31.855 12.592-34.82 29.127-7.771 1.78-14.142 7.264-17.146 14.491l-13.724-.116c-2.042-.036-4.048.818-5.479 2.31l-23.566 24.59c-2.866 2.991-2.765 7.738.226 10.604 1.454 1.393 3.322 2.085 5.188 2.085 1.973 0 3.943-.774 5.416-2.311l21.326-22.253 8.747.074v17.406l-11.858-.1c-2.042-.053-4.048.818-5.479 2.31l-23.566 24.59c-2.866 2.991-2.765 7.738.226 10.604 1.454 1.393 3.322 2.085 5.188 2.085 1.973 0 3.943-.774 5.416-2.311l21.326-22.253 8.747.074v5.248c0 4.186.495 8.256 1.401 12.17l-13.26-.112c-.021.002-.041.002-.063.002zm65.754-93.315c8.684 0 16.116 5.458 19.048 13.123h-38.097c2.933-7.665 10.365-13.123 19.049-13.123zm-38.832 37.982c0-5.226 4.252-9.478 9.478-9.478h58.964c5.227 0 9.479 4.252 9.479 9.478v43.275c0 5.776-1.273 11.258-3.539 16.193-.141.261-.265.532-.375.811-6.326 12.985-19.657 21.956-35.046 21.956-21.482 0-38.96-17.478-38.96-38.96v-43.275z"/><path d="m198.712 103.907c4.143 0 7.5-3.358 7.5-7.5 0-27.729 22.56-50.288 50.288-50.288s50.288 22.559 50.288 50.288c0 4.142 3.357 7.5 7.5 7.5s7.5-3.358 7.5-7.5c0-36-29.288-65.288-65.288-65.288s-65.288 29.288-65.288 65.288c0 4.142 3.357 7.5 7.5 7.5z"/><path d="m256.5 56.532c-19.903 0-36.097 16.193-36.097 36.097 0 4.142 3.357 7.5 7.5 7.5s7.5-3.358 7.5-7.5c0-11.633 9.464-21.097 21.097-21.097s21.097 9.464 21.097 21.097c0 4.142 3.357 7.5 7.5 7.5s7.5-3.358 7.5-7.5c0-19.904-16.194-36.097-36.097-36.097z"/><path d="m504.834 414.468h-13.961v-235.782c0-24.622-20.032-44.654-44.654-44.654h-32.189c-4.143 0-7.5 3.358-7.5 7.5s3.357 7.5 7.5 7.5h32.189c16.352 0 29.654 13.303 29.654 29.654v235.781h-16.847v-235.781c0-6.942-5.865-12.808-12.808-12.808h-380.103c-6.942 0-12.808 5.865-12.808 12.808v97.389c0 4.142 3.357 7.5 7.5 7.5s7.5-3.358 7.5-7.5v-95.197h375.719v233.589h-128.69c-1.574 0-3.109.496-4.387 1.417l-8.199 5.913h-92.489l-8.199-5.913c-1.277-.921-2.813-1.417-4.387-1.417h-129.367v-101.42c0-4.142-3.357-7.5-7.5-7.5s-7.5 3.358-7.5 7.5v101.42h-16.847v-235.781c0-16.351 13.303-29.654 29.654-29.654h317.806c4.143 0 7.5-3.358 7.5-7.5s-3.357-7.5-7.5-7.5h-317.806c-24.622 0-44.654 20.032-44.654 44.654v235.781h-13.961c-4.143 0-7.5 3.358-7.5 7.5v16.23c0 23.72 19.298 43.017 43.018 43.017h426.299c23.72 0 43.018-19.297 43.018-43.017v-16.23c-.001-4.142-3.358-7.499-7.501-7.499zm-7.5 23.73c0 15.449-12.568 28.017-28.018 28.017h-426.298c-15.45 0-28.018-12.568-28.018-28.017v-8.73h180.253l8.199 5.913c1.277.921 2.813 1.417 4.387 1.417h97.333c1.574 0 3.109-.496 4.387-1.417l8.199-5.913h179.576z"/></svg>