<svg id="Capa_1" enable-background="new 0 0 515.756 515.756" height="512" viewBox="0 0 515.756 515.756" width="512" xmlns="http://www.w3.org/2000/svg"><path d="m459.181 211.55v-20.687c0-9.046-7.359-16.405-16.405-16.405h-26.877c-15.16-32.121-40.072-58.764-70.897-76.095.01-.296.008-.595-.018-.897l-7.76-90.606c-.334-3.88-3.58-6.86-7.474-6.86h-135.837c-3.894 0-7.14 2.98-7.473 6.86l-2.685 31.348c-.354 4.127 2.706 7.759 6.833 8.113 4.131.351 7.759-2.706 8.113-6.833l2.098-24.488h122.066l6.474 75.59c-20.71-8.979-43.535-13.969-67.507-13.969s-46.798 4.99-67.508 13.97l1.797-20.981c.354-4.127-2.706-7.759-6.833-8.113-4.13-.354-7.759 2.706-8.113 6.833l-2.576 30.07c-41.142 23.153-71.752 62.898-82.669 110.105h-20.855c-10.201 0-18.5 8.299-18.5 18.5v36.741c0 10.201 8.299 18.5 18.5 18.5h20.198c9.269 43.707 35.351 81.274 71.14 105.58v44.023c0 4.142 3.358 7.5 7.5 7.5s7.5-3.358 7.5-7.5v-34.93c23.964 12.896 51.351 20.225 80.418 20.225s56.454-7.329 80.418-20.225v103.838h-160.836v-38.8c0-4.142-3.358-7.5-7.5-7.5s-7.5 3.358-7.5 7.5v46.3c0 4.142 3.358 7.5 7.5 7.5h175.837c4.142 0 7.5-3.358 7.5-7.5v-120.432c22.821-15.5 41.692-36.392 54.779-60.829h30.747c9.045 0 16.405-7.359 16.405-16.405v-20.687c0-9.046-7.359-16.405-16.405-16.405h-12.768c1.368-8.675 2.086-17.564 2.086-26.618 0-6.397-.367-12.71-1.058-18.926h11.74c9.046 0 16.405-7.359 16.405-16.405zm-384.106 55.695c-1.897 0-3.5-1.603-3.5-3.5v-36.741c0-1.897 1.603-3.5 3.5-3.5h18.107c-1.055 7.645-1.612 15.447-1.612 23.377 0 6.891.423 13.684 1.222 20.363h-17.717zm186.757 134.898c-85.612 0-155.262-69.65-155.262-155.262 0-85.611 69.65-155.261 155.262-155.261s155.262 69.65 155.262 155.261c0 85.612-69.65 155.262-155.262 155.262zm180.944-113.644c.761 0 1.405.644 1.405 1.405v20.687c0 .761-.644 1.405-1.405 1.405h-23.635c3.147-7.574 5.763-15.421 7.799-23.497zm-20.657-99.041h20.657c.761 0 1.405.644 1.405 1.405v20.687c0 .762-.644 1.405-1.405 1.405h-14.082c-1.634-8.052-3.845-15.897-6.575-23.497z"/><path d="m261.832 108.826c-76.124 0-138.055 61.931-138.055 138.055s61.931 138.056 138.055 138.056 138.055-61.932 138.055-138.056-61.931-138.055-138.055-138.055zm0 261.111c-67.853 0-123.055-55.203-123.055-123.056s55.202-123.055 123.055-123.055 123.055 55.202 123.055 123.055-55.202 123.056-123.055 123.056z"/><path d="m300.572 242.68c14.709 0 26.677-11.967 26.677-26.676s-11.967-26.677-26.677-26.677-26.676 11.967-26.676 26.677c0 1.476.126 2.922.357 4.334l-33.348 13.45c-4.727-4.249-10.973-6.84-17.814-6.84-14.709 0-26.677 11.967-26.677 26.677s11.967 26.676 26.677 26.676c6.841 0 13.087-2.591 17.814-6.84l33.664 13.577c-.436 1.91-.674 3.894-.674 5.934 0 14.709 11.967 26.677 26.676 26.677s26.677-11.967 26.677-26.677-11.967-26.677-26.677-26.677c-7.219 0-13.773 2.887-18.581 7.562l-33.125-13.36c.586-2.194.902-4.497.902-6.873s-.317-4.679-.902-6.873l31.921-12.875c4.886 5.403 11.946 8.804 19.786 8.804zm-77.48 22.621c-6.438 0-11.677-5.238-11.677-11.676s5.238-11.677 11.677-11.677 11.676 5.238 11.676 11.677-5.238 11.676-11.676 11.676zm77.48 15.995c6.438 0 11.677 5.238 11.677 11.677s-5.238 11.677-11.677 11.677-11.676-5.238-11.676-11.677 5.238-11.677 11.676-11.677zm0-76.969c6.438 0 11.677 5.238 11.677 11.677s-5.238 11.676-11.677 11.676-11.676-5.238-11.676-11.676 5.238-11.677 11.676-11.677z"/><path d="m247.498 452.334h26c4.142 0 7.5-3.358 7.5-7.5s-3.358-7.5-7.5-7.5h-26c-4.142 0-7.5 3.358-7.5 7.5s3.358 7.5 7.5 7.5z"/><path d="m247.498 482.334h26c4.142 0 7.5-3.358 7.5-7.5s-3.358-7.5-7.5-7.5h-26c-4.142 0-7.5 3.358-7.5 7.5s3.358 7.5 7.5 7.5z"/></svg>