<svg id="Capa_1" enable-background="new 0 0 507.83 507.83" height="512" viewBox="0 0 507.83 507.83" width="512" xmlns="http://www.w3.org/2000/svg"><path d="m489.912 344.533c11.503-29.396 17.337-60.425 17.337-92.324 0-37.225-8.272-74.275-23.979-107.759 9.8-8.432 16.025-20.91 16.025-34.823 0-25.333-20.61-45.944-45.944-45.944-8.963 0-17.328 2.589-24.404 7.045-47.256-44.621-108.873-69.152-174.035-69.152-60.788 0-119.457 21.797-165.433 61.395-7.432-5.17-16.449-8.212-26.168-8.212-25.333 0-45.944 20.61-45.944 45.943 0 12.261 4.838 23.407 12.693 31.655-19.677 36.66-30.06 77.972-30.06 119.852 0 25.499 3.774 50.669 11.217 74.813.993 3.223 3.96 5.292 7.165 5.292.731 0 1.476-.108 2.212-.335 3.958-1.22 6.178-5.418 4.958-9.376-7.002-22.711-10.552-46.395-10.552-70.394 0-38.634 9.382-76.751 27.191-110.725 6.328 3.291 13.507 5.163 21.12 5.163 25.333 0 45.943-20.61 45.943-45.943 0-10.188-3.338-19.608-8.971-27.235 29.982-25.531 65.614-43.063 103.631-51.373-15.167 12.906-28.992 31.683-40.763 55.776-23.201 47.492-35.979 110.468-35.979 177.329s12.777 129.837 35.979 177.328c10.759 22.023 23.236 39.602 36.883 52.32-33.966-7.744-65.762-22.914-93.802-44.97 1.945-5.086 3.021-10.598 3.021-16.36 0-25.333-20.61-45.943-45.943-45.943-4.186 0-8.239.574-12.096 1.627-5.345-8.496-10.075-17.53-15.346-29.255-1.699-3.778-6.138-5.463-9.916-3.765s-5.464 6.138-3.765 9.916c5.237 11.648 9.996 20.83 15.302 29.442-12.137 8.278-20.122 22.211-20.122 37.978 0 25.333 20.61 45.944 45.944 45.944 14.157 0 26.836-6.44 35.27-16.541 39.052 30.227 84.831 48.012 133.613 52.033 14.386 1.789 25.386 1.789 46.439-.37 62.647-6.16 120.669-35.318 163.175-82.369 6.07 2.962 12.883 4.629 20.08 4.629 25.333 0 45.943-20.61 45.943-45.944-.001-14.789-7.032-27.959-17.919-36.368zm-426.601-212.886c-17.063 0-30.944-13.881-30.944-30.943s13.881-30.944 30.944-30.944c17.062 0 30.943 13.881 30.943 30.943s-13.881 30.944-30.943 30.944zm0 322.816c-17.063 0-30.944-13.881-30.944-30.944 0-17.062 13.881-30.943 30.944-30.943 17.062 0 30.943 13.881 30.943 30.943s-13.881 30.944-30.943 30.944zm420.984-344.836c0 17.062-13.881 30.943-30.944 30.943-17.062 0-30.943-13.881-30.943-30.943 0-17.063 13.881-30.944 30.943-30.944 17.063 0 30.944 13.881 30.944 30.944zm-173.487 374.278c13.251-12.638 25.373-29.899 35.864-51.375 23.201-47.491 35.979-110.468 35.979-177.328 0-50.741-7.4-99.647-21.402-141.431-1.316-3.927-5.568-6.048-9.494-4.729-3.928 1.316-6.044 5.567-4.729 9.494 13.493 40.267 20.625 87.525 20.625 136.666 0 64.624-12.237 125.262-34.456 170.744-16.343 33.453-36.435 55.403-57.988 63.902-7.139.643-14.337.986-21.582.986-6.125 0-12.209-.238-18.246-.688-21.841-8.277-42.214-30.353-58.749-64.2-22.219-45.482-34.456-106.12-34.456-170.744s12.237-125.262 34.456-170.744c21.385-43.773 49.186-67.88 78.283-67.88 29.994 0 59.452 26.693 80.819 73.235 1.729 3.764 6.181 5.414 9.945 3.687 3.764-1.728 5.415-6.181 3.687-9.945-11.558-25.174-25.308-45.075-40.87-59.15-.917-.83-1.84-1.627-2.764-2.412 41.67 9.007 80.209 29.073 111.952 58.718-6.418 7.902-10.274 17.965-10.274 28.915 0 25.333 20.61 45.943 45.943 45.943 6.01 0 11.748-1.172 17.014-3.279 14.511 31.345 21.884 64.901 21.884 99.918 0 29.41-5.273 58.026-15.66 85.176-4.62-1.565-9.561-2.427-14.703-2.427-25.333 0-45.943 20.61-45.943 45.943 0 12.711 5.19 24.23 13.561 32.557-32.091 35.007-73.382 59.3-118.696 70.448zm151.078-72.06c-17.062 0-30.943-13.881-30.943-30.944 0-17.062 13.881-30.943 30.943-30.943s30.943 13.881 30.943 30.943c.001 17.063-13.881 30.944-30.943 30.944z"/><path d="m292.051 246.447c6.677-9.477 10.688-21.543 10.688-34.673 0-30.388-21.456-55.11-47.828-55.11s-47.827 24.723-47.827 55.11c0 13.139 4.017 25.213 10.701 34.693-23.927 13.412-39.423 39.132-39.423 66.862v28.88c0 4.142 3.358 7.5 7.5 7.5h138.098c4.142 0 7.5-3.358 7.5-7.5v-28.88c0-27.993-15.228-53.432-39.409-66.882zm-37.139-74.784c18.101 0 32.828 17.994 32.828 40.11s-14.727 40.11-32.828 40.11c-7.379 0-14.196-2.992-19.685-8.033-.111-.116-.229-.225-.347-.333-7.775-7.342-12.795-18.837-12.795-31.744-.001-22.116 14.726-40.11 32.827-40.11zm61.548 163.046h-123.097v-21.38c0-23.615 13.988-45.426 35.215-55.582 7.558 5.768 16.609 9.137 26.333 9.137 9.726 0 18.777-3.371 26.336-9.139 21.478 10.234 35.213 31.762 35.213 55.584z"/></svg>