<svg id="Capa_1" enable-background="new 0 0 511.239 511.239" height="512" viewBox="0 0 511.239 511.239" width="512" xmlns="http://www.w3.org/2000/svg"><path d="m181.405 114.13c4.142 0 7.5-3.358 7.5-7.5 0-34.962 28.444-63.406 63.406-63.406s63.406 28.444 63.406 63.406c0 4.142 3.357 7.5 7.5 7.5s7.5-3.358 7.5-7.5c0-43.233-35.173-78.406-78.406-78.406s-78.406 35.173-78.406 78.406c0 4.142 3.358 7.5 7.5 7.5z"/><path d="m224.722 101.994c0-15.212 12.376-27.588 27.588-27.588s27.588 12.376 27.588 27.588c0 4.142 3.357 7.5 7.5 7.5s7.5-3.358 7.5-7.5c0-23.483-19.105-42.588-42.588-42.588s-42.588 19.105-42.588 42.588c0 4.142 3.358 7.5 7.5 7.5s7.5-3.358 7.5-7.5z"/><path d="m511.239 388.026c0-52.377-42.611-94.989-94.988-94.989h-72.974c-4.143 0-7.5 3.358-7.5 7.5s3.357 7.5 7.5 7.5h30.629v159.978h-191.092c-4.142 0-7.5 3.358-7.5 7.5s3.358 7.5 7.5 7.5h233.436c2.565 0 5.106-.106 7.62-.306.67.196 1.377.306 2.11.306 1.323 0 2.563-.345 3.642-.946 46.068-6.519 81.617-46.204 81.617-94.043zm-77.758 78.099v-85.615c0-4.142-3.357-7.5-7.5-7.5s-7.5 3.358-7.5 7.5v87.448c-.743.021-1.482.057-2.23.057h-27.345v-159.978h27.345c44.105 0 79.988 35.883 79.988 79.989 0 38.19-26.91 70.195-62.758 78.099z"/><path d="m152.706 468.015h-15.373v-159.978h174.374c4.143 0 7.5-3.358 7.5-7.5s-3.357-7.5-7.5-7.5h-216.719c-52.376 0-94.988 42.612-94.988 94.989s42.612 94.989 94.988 94.989h57.718c4.142 0 7.5-3.358 7.5-7.5s-3.358-7.5-7.5-7.5zm-137.706-79.989c0-39.316 28.521-72.074 65.954-78.731v87.631c0 4.142 3.358 7.5 7.5 7.5s7.5-3.358 7.5-7.5v-88.889h26.379v159.978h-27.345c-44.105 0-79.988-35.883-79.988-79.989z"/><path d="m187.674 341.547h129.86c4.143 0 7.5-3.358 7.5-7.5s-3.357-7.5-7.5-7.5h-129.86c-4.142 0-7.5 3.358-7.5 7.5s3.358 7.5 7.5 7.5z"/><path d="m187.674 374.824h129.86c4.143 0 7.5-3.358 7.5-7.5s-3.357-7.5-7.5-7.5h-129.86c-4.142 0-7.5 3.358-7.5 7.5s3.358 7.5 7.5 7.5z"/><path d="m180.174 428.221c0 10.703 8.708 19.41 19.41 19.41h111.722c10.703 0 19.41-8.708 19.41-19.41v-18.385c0-10.703-8.707-19.41-19.41-19.41h-111.722c-10.703 0-19.41 8.708-19.41 19.41zm15-18.385c0-2.391 2.02-4.41 4.41-4.41h111.722c2.391 0 4.41 2.02 4.41 4.41v18.385c0 2.391-2.02 4.41-4.41 4.41h-111.722c-2.391 0-4.41-2.02-4.41-4.41z"/><path d="m225.538 275.408c2.199 1.377 4.612 2.048 6.993 2.048 3.593 0 7.111-1.528 9.706-4.462l61.96-70.059c3.118-3.525 4.093-8.296 2.606-12.763s-5.126-7.703-9.735-8.657l-35.908-7.433 9.408-47.691c1.219-6.177-1.993-12.173-7.811-14.582-5.819-2.408-12.328-.435-15.832 4.797l-47.57 71.062c-2.393 3.575-2.871 8.094-1.277 12.09 1.593 3.996 5.049 6.947 9.245 7.895l31.66 7.149-18.563 44.528c-2.505 6.01-.401 12.621 5.118 16.078zm28.185-56.978c1.487-3.565 1.322-7.578-.451-11.009s-4.95-5.887-8.718-6.738l-31.15-7.034 40.56-60.589-7.895 40.017c-1.38 6.992 3.175 13.857 10.155 15.302l34.505 7.143-51.938 58.727z"/></svg>