<svg id="Capa_1" enable-background="new 0 0 509.01 509.01" height="512" viewBox="0 0 509.01 509.01" width="512" xmlns="http://www.w3.org/2000/svg"><path d="m344.634 322.583c0-.034.005-.067.005-.102v-176.994c0-4.142-3.357-7.5-7.5-7.5h-17.875v-39.86c0-4.142-3.357-7.5-7.5-7.5h-115.072c-4.143 0-7.5 3.358-7.5 7.5v39.86h-17.875c-4.143 0-7.5 3.358-7.5 7.5v31.983c0 4.142 3.357 7.5 7.5 7.5s7.5-3.358 7.5-7.5v-24.483h150.822v153.886c-20.219-17.555-46.596-28.194-75.411-28.194-28.598 0-55.071 10.47-75.411 28.062v-96.986c0-4.142-3.357-7.5-7.5-7.5s-7.5 3.358-7.5 7.5v112.662c-11.375 14.384-19.428 31.634-22.895 50.711-.741 4.075 1.963 7.979 6.038 8.72 4.07.739 7.979-1.962 8.72-6.038 8.648-47.59 50.094-82.131 98.548-82.131 55.231 0 100.165 44.934 100.165 100.166 0 55.231-44.934 100.165-100.165 100.165-24.969 0-48.886-9.241-67.347-26.02-18.338-16.667-29.81-39.358-32.301-63.896-.418-4.121-4.081-7.125-8.22-6.704-4.121.418-7.122 4.098-6.704 8.219 2.867 28.225 16.055 54.32 37.136 73.48 21.228 19.294 48.729 29.919 77.436 29.919 63.502 0 115.165-51.663 115.165-115.165 0-26.882-9.262-51.642-24.759-71.26zm-140.442-216.956h100.072v32.36h-100.072z"/><path d="m304.37 393.845c0-27.648-22.494-50.142-50.143-50.142s-50.143 22.494-50.143 50.142 22.494 50.142 50.143 50.142 50.143-22.493 50.143-50.142zm-85.285 0c0-19.377 15.765-35.142 35.143-35.142s35.143 15.765 35.143 35.142-15.765 35.142-35.143 35.142-35.143-15.764-35.143-35.142z"/><path d="m240.032 253.759h28.391c4.143 0 7.5-3.358 7.5-7.5s-3.357-7.5-7.5-7.5h-28.391c-4.143 0-7.5 3.358-7.5 7.5s3.358 7.5 7.5 7.5z"/><path d="m240.032 224.379h28.391c4.143 0 7.5-3.358 7.5-7.5s-3.357-7.5-7.5-7.5h-28.391c-4.143 0-7.5 3.358-7.5 7.5s3.358 7.5 7.5 7.5z"/><path d="m240.032 195h28.391c4.143 0 7.5-3.358 7.5-7.5s-3.357-7.5-7.5-7.5h-28.391c-4.143 0-7.5 3.358-7.5 7.5s3.358 7.5 7.5 7.5z"/><path d="m204.867 64.361c4.143 0 7.5-3.358 7.5-7.5 0-23.082 18.778-41.861 41.86-41.861s41.86 18.779 41.86 41.861c0 4.142 3.357 7.5 7.5 7.5s7.5-3.358 7.5-7.5c.001-31.353-25.507-56.861-56.859-56.861s-56.86 25.508-56.86 56.861c-.001 4.142 3.357 7.5 7.499 7.5z"/><path d="m254.228 25.707c-17.604 0-31.927 14.322-31.927 31.927 0 4.142 3.357 7.5 7.5 7.5s7.5-3.358 7.5-7.5c0-9.333 7.594-16.927 16.927-16.927s16.927 7.593 16.927 16.927c0 4.142 3.357 7.5 7.5 7.5s7.5-3.358 7.5-7.5c-.001-17.605-14.323-31.927-31.927-31.927z"/></svg>