<svg id="Capa_1" enable-background="new 0 0 512.315 512.315" height="512" viewBox="0 0 512.315 512.315" width="512" xmlns="http://www.w3.org/2000/svg"><path d="m403.796 105.54c.06-1.408.089-2.807.089-4.188-.001-55.886-45.466-101.352-101.352-101.352-23.04 0-45.594 7.941-63.508 22.361-15.33 12.34-26.788 28.988-32.86 47.536-3.708-1.094-7.57-1.658-11.462-1.658-16.939 0-31.672 10.272-37.67 25.614h-2.326c-34.92 0-67.443 18.962-84.876 49.488-2.054 3.597-.804 8.178 2.793 10.232s8.179.804 10.232-2.793c14.77-25.861 42.302-41.927 71.851-41.927h7.845c3.499 0 6.532-2.419 7.312-5.829 2.662-11.648 12.876-19.784 24.84-19.784 4.44 0 8.818 1.166 12.66 3.371 2.058 1.181 4.555 1.32 6.731.371 2.176-.948 3.774-2.871 4.31-5.184 4.325-18.688 14.989-35.646 30.028-47.75 15.477-12.462 34.185-19.048 54.1-19.048 47.614 0 86.352 38.737 86.352 86.352 0 2.598-.124 5.274-.367 7.954-.285 3.132 1.413 6.108 4.255 7.456 28.855 13.687 47.501 43.03 47.501 74.754 0 23.585-9.958 45.578-27.177 61.149v-43.903c0-4.142-3.357-7.5-7.5-7.5h-290.4c-4.142 0-7.5 3.358-7.5 7.5v50.324c-22.237-15.022-35.655-40.011-35.655-67.571 0-3.648.243-7.32.723-10.914.548-4.106-2.336-7.878-6.442-8.426-4.105-.548-7.878 2.336-8.426 6.442-.567 4.25-.854 8.589-.854 12.898 0 35.96 19.317 68.234 50.655 85.077v47.464c0 4.142 3.358 7.5 7.5 7.5h218.516c4.143 0 7.5-3.358 7.5-7.5s-3.357-7.5-7.5-7.5h-211.017v-100.293h275.399v51.153c-.011.228-.01.456 0 .685v48.456h-31.726c-4.143 0-7.5 3.358-7.5 7.5s3.357 7.5 7.5 7.5h39.227c4.143 0 7.5-3.358 7.5-7.5v-52.289c26.484-18.351 42.177-48.041 42.177-80.252-.001-35.774-20.044-68.974-51.478-85.976z"/><path d="m198.22 240.792-8.022 22.894-5.769-19.379c-.721-2.434-2.614-2.704-4.597-2.704-2.073 0-3.875.27-4.597 2.704l-5.769 19.379-8.022-22.894c-.541-1.532-2.073-2.163-3.875-2.163-3.605 0-9.194 2.343-9.194 5.588 0 .541.09.991.451 1.893l13.881 34.701c.721 1.803 3.064 2.434 5.318 2.434 2.704 0 5.318-.901 5.858-2.434l5.949-15.683 5.949 15.683c.541 1.532 3.064 2.434 5.769 2.434 2.343 0 4.687-.631 5.408-2.434l13.881-34.701c.27-.541.36-1.172.36-1.712 0-3.425-5.769-5.769-9.194-5.769-1.893 0-3.334.811-3.785 2.163z"/><path d="m211.29 275.674c0 3.695 2.974 6.94 6.94 6.94 3.696 0 6.85-3.245 6.85-6.94 0-3.786-3.154-6.94-6.85-6.94-3.966-.001-6.94 3.154-6.94 6.94z"/><path d="m274.924 240.792-8.022 22.894-5.769-19.379c-.721-2.434-2.613-2.704-4.597-2.704-2.073 0-3.875.27-4.597 2.704l-5.769 19.379-8.022-22.894c-.541-1.532-2.073-2.163-3.875-2.163-3.605 0-9.194 2.343-9.194 5.588 0 .541.09.991.451 1.893l13.881 34.701c.721 1.803 3.064 2.434 5.318 2.434 2.704 0 5.318-.901 5.858-2.434l5.949-15.683 5.949 15.683c.541 1.532 3.064 2.434 5.769 2.434 2.344 0 4.687-.631 5.408-2.434l13.88-34.701c.271-.541.361-1.172.361-1.712 0-3.425-5.769-5.769-9.194-5.769-1.892 0-3.334.811-3.785 2.163z"/><path d="m287.994 275.674c0 3.695 2.975 6.94 6.94 6.94 3.695 0 6.85-3.245 6.85-6.94 0-3.786-3.154-6.94-6.85-6.94-3.966-.001-6.94 3.154-6.94 6.94z"/><path d="m364.247 246.11c.271-.541.361-1.172.361-1.712 0-3.425-5.769-5.769-9.194-5.769-1.893 0-3.335.811-3.785 2.163l-8.022 22.894-5.769-19.379c-.721-2.434-2.613-2.704-4.597-2.704-2.073 0-3.876.27-4.597 2.704l-5.769 19.379-8.021-22.894c-.541-1.532-2.073-2.163-3.876-2.163-3.605 0-9.193 2.343-9.193 5.588 0 .541.09.991.45 1.893l13.881 34.701c.721 1.803 3.064 2.434 5.317 2.434 2.704 0 5.318-.901 5.859-2.434l5.948-15.683 5.949 15.683c.541 1.532 3.064 2.434 5.769 2.434 2.344 0 4.687-.631 5.408-2.434z"/><path d="m256.158 449.24c-17.39 0-31.538 14.148-31.538 31.538s14.148 31.538 31.538 31.538 31.537-14.148 31.537-31.538-14.148-31.538-31.537-31.538zm0 48.075c-9.119 0-16.538-7.419-16.538-16.538s7.419-16.538 16.538-16.538c9.118 0 16.537 7.419 16.537 16.538s-7.419 16.538-16.537 16.538z"/><path d="m256.158 417.92c-34.66 0-62.858 28.198-62.858 62.858 0 4.142 3.358 7.5 7.5 7.5s7.5-3.358 7.5-7.5c0-26.389 21.469-47.858 47.858-47.858s47.857 21.469 47.857 47.858c0 4.142 3.357 7.5 7.5 7.5s7.5-3.358 7.5-7.5c0-34.66-28.197-62.858-62.857-62.858z"/><path d="m256.158 383.897c-53.42 0-96.881 43.46-96.881 96.881 0 4.142 3.358 7.5 7.5 7.5s7.5-3.358 7.5-7.5c0-45.149 36.731-81.881 81.881-81.881 45.148 0 81.88 36.731 81.88 81.881 0 4.142 3.357 7.5 7.5 7.5s7.5-3.358 7.5-7.5c0-53.421-43.46-96.881-96.88-96.881z"/></svg>