<svg id="Capa_1" enable-background="new 0 0 509.228 509.228" height="512" viewBox="0 0 509.228 509.228" width="512" xmlns="http://www.w3.org/2000/svg"><path d="m30.411 331.525v36.462c0 4.142 3.357 7.5 7.5 7.5s7.5-3.358 7.5-7.5v-36.462c0-30.65 24.936-55.586 55.586-55.586h86.498c30.65 0 55.586 24.936 55.586 55.586v77.543c0 30.65-24.936 55.586-55.586 55.586h-86.498c-30.65 0-55.586-24.936-55.586-55.586v-8.272c0-4.142-3.357-7.5-7.5-7.5s-7.5 3.358-7.5 7.5v8.272c0 38.921 31.665 70.586 70.586 70.586h86.498c38.921 0 70.586-31.665 70.586-70.586v-77.543c0-38.921-31.665-70.586-70.586-70.586h-86.498c-38.921 0-70.586 31.665-70.586 70.586z"/><path d="m144.246 290.563c-4.143 0-7.5 3.358-7.5 7.5v19.959c-25.583 3.654-45.317 25.699-45.317 52.276 0 29.124 23.693 52.817 52.817 52.817s52.817-23.694 52.817-52.817c0-26.577-19.734-48.622-45.317-52.276v-19.959c0-4.143-3.358-7.5-7.5-7.5zm37.817 79.734c0 20.853-16.965 37.817-37.817 37.817s-37.817-16.965-37.817-37.817c0-18.285 13.045-33.578 30.317-37.068v26.106c0 4.142 3.357 7.5 7.5 7.5s7.5-3.358 7.5-7.5v-26.106c17.272 3.49 30.317 18.783 30.317 37.068z"/><path d="m487.891 0h-128.689c-11.304 0-20.5 9.196-20.5 20.5v64.188c0 4.142 3.357 7.5 7.5 7.5s7.5-3.358 7.5-7.5v-64.188c0-3.033 2.468-5.5 5.5-5.5h128.689c3.032 0 5.5 2.467 5.5 5.5v134.17h-36.865v-39.776c0-11.304-9.196-20.5-20.5-20.5h-24.958c-11.304 0-20.5 9.196-20.5 20.5v39.776h-36.866v-39.875c0-4.142-3.357-7.5-7.5-7.5s-7.5 3.358-7.5 7.5v86.213c-10.577-2.629-20.217-8.024-28.092-15.721 4.063-4.788 6.522-10.979 6.522-17.735 0-14.429-11.192-26.285-25.35-27.364-.485-31.197-20.391-59.34-49.363-70.489-1.233-14.004-13.02-25.026-27.339-25.026-14.317 0-26.104 11.02-27.339 25.022-29.281 11.263-49.298 39.843-49.384 71.453-11.504 3.271-19.957 13.865-19.957 26.403 0 12.537 8.451 23.13 19.952 26.402v37.411h-37.356c-55.229 0-100.16 44.931-100.16 100.159v77.543c0 55.228 44.932 100.16 100.16 100.16h86.498c55.228 0 100.159-44.932 100.159-100.16v-77.543c0-55.228-44.932-100.159-100.159-100.159h-34.142v-37.411c11.501-3.272 19.952-13.865 19.952-26.402 0-12.535-8.449-23.127-19.948-26.401.082-24.533 15.094-46.795 37.327-56.46 4.568 8.832 13.785 14.887 24.395 14.887 10.609 0 19.825-6.054 24.394-14.885 22.287 9.694 37.333 32.07 37.333 56.659 0 .636.088 1.251.237 1.841-8.794 4.581-14.816 13.777-14.816 24.359 0 15.137 12.315 27.452 27.452 27.452 2.864 0 5.626-.442 8.223-1.26 11.026 11.695 25.177 19.544 40.799 22.626v110.815c0 11.304 9.196 20.5 20.5 20.5h128.689c11.304 0 20.5-9.196 20.5-20.5v-306.684c.002-11.304-9.194-20.5-20.498-20.5zm-215.237 331.525v77.543c0 46.957-38.202 85.16-85.159 85.16h-86.498c-46.957 0-85.16-38.203-85.16-85.16v-77.543c0-46.957 38.203-85.159 85.16-85.159h86.498c46.957 0 85.159 38.202 85.159 85.159zm-114.349-163.973c0 6.866-5.586 12.452-12.452 12.452s-12.452-5.586-12.452-12.452 5.586-12.452 12.452-12.452 12.452 5.586 12.452 12.452zm56.775-82.974c-6.866 0-12.452-5.586-12.452-12.452s5.586-12.452 12.452-12.452 12.452 5.586 12.452 12.452-5.586 12.452-12.452 12.452zm62.147 82.974c0-6.866 5.586-12.452 12.452-12.452s12.452 5.586 12.452 12.452-5.586 12.452-12.452 12.452-12.452-5.586-12.452-12.452zm128.341-52.658c0-3.033 2.468-5.5 5.5-5.5h24.958c3.032 0 5.5 2.467 5.5 5.5v70.592c0 3.033-2.468 5.5-5.5 5.5h-24.958c-3.032 0-5.5-2.467-5.5-5.5zm82.323 217.793h-128.689c-3.032 0-5.5-2.467-5.5-5.5v-116.439c.057-.536.054-1.064 0-1.58v-39.498h36.866v15.816c0 11.304 9.196 20.5 20.5 20.5h24.958c11.304 0 20.5-9.196 20.5-20.5v-15.816h36.865v157.516c0 3.033-2.467 5.501-5.5 5.501z"/><path d="m395.079 222.649c-13.822 0-25.068 11.246-25.068 25.069s11.246 25.069 25.068 25.069c13.823 0 25.069-11.246 25.069-25.069s-11.246-25.069-25.069-25.069zm0 35.138c-5.552 0-10.068-4.517-10.068-10.069s4.517-10.069 10.068-10.069c5.553 0 10.069 4.517 10.069 10.069s-4.516 10.069-10.069 10.069z"/><path d="m452.014 222.649c-13.823 0-25.069 11.246-25.069 25.069s11.246 25.069 25.069 25.069 25.069-11.246 25.069-25.069-11.245-25.069-25.069-25.069zm0 35.138c-5.553 0-10.069-4.517-10.069-10.069s4.517-10.069 10.069-10.069 10.069 4.517 10.069 10.069c.001 5.552-4.516 10.069-10.069 10.069z"/><path d="m420.148 52.663c0-13.823-11.246-25.069-25.069-25.069-13.822 0-25.068 11.246-25.068 25.069s11.246 25.069 25.068 25.069c13.823-.001 25.069-11.246 25.069-25.069zm-35.138 0c0-5.552 4.517-10.069 10.068-10.069 5.553 0 10.069 4.517 10.069 10.069s-4.517 10.069-10.069 10.069c-5.551-.001-10.068-4.518-10.068-10.069z"/><path d="m477.084 52.663c0-13.823-11.246-25.069-25.069-25.069s-25.069 11.246-25.069 25.069 11.246 25.069 25.069 25.069 25.069-11.246 25.069-25.069zm-35.139 0c0-5.552 4.517-10.069 10.069-10.069s10.069 4.517 10.069 10.069-4.517 10.069-10.069 10.069-10.069-4.518-10.069-10.069z"/><path d="m395.079 275.341c-13.822 0-25.068 11.246-25.068 25.069s11.246 25.069 25.068 25.069c13.823 0 25.069-11.246 25.069-25.069s-11.246-25.069-25.069-25.069zm0 35.138c-5.552 0-10.068-4.517-10.068-10.069s4.517-10.069 10.068-10.069c5.553 0 10.069 4.517 10.069 10.069s-4.516 10.069-10.069 10.069z"/><path d="m452.014 275.341c-13.823 0-25.069 11.246-25.069 25.069s11.246 25.069 25.069 25.069 25.069-11.246 25.069-25.069-11.245-25.069-25.069-25.069zm0 35.138c-5.553 0-10.069-4.517-10.069-10.069s4.517-10.069 10.069-10.069 10.069 4.517 10.069 10.069c.001 5.552-4.516 10.069-10.069 10.069z"/></svg>