<svg id="Capa_1" enable-background="new 0 0 509.549 509.549" height="512" viewBox="0 0 509.549 509.549" width="512" xmlns="http://www.w3.org/2000/svg"><path d="m66.369 137.284c-8.446-14.723-13.267-31.341-14.094-48.355h215.513c-2.748 57.063-50.031 102.642-107.763 102.642-27.948 0-54.449-10.643-74.624-29.969-2.991-2.866-7.738-2.764-10.604.228-2.865 2.991-2.763 7.739.228 10.604 22.979 22.013 53.167 34.137 85 34.137 66.003 0 120.012-52.306 122.772-117.642h7.405c4.142 0 7.5-3.358 7.5-7.5v-36.965-36.964c0-4.142-3.358-7.5-7.5-7.5h-260.355c-4.142 0-7.5 3.358-7.5 7.5v36.964 36.964c0 4.142 3.358 7.5 7.5 7.5h7.412c.838 19.632 6.352 38.829 16.1 55.819 1.386 2.417 3.913 3.77 6.512 3.77 1.266 0 2.549-.321 3.725-.996 3.593-2.061 4.834-6.645 2.773-10.237zm-29.022-63.356v-21.964h245.355v21.964zm0-58.928h245.355v21.964h-245.355z"/><path d="m194.203 141.039c0-18.846-15.333-34.179-34.178-34.179s-34.178 15.333-34.178 34.179 15.333 34.178 34.178 34.178 34.178-15.333 34.178-34.178zm-53.357 0c0-10.575 8.604-19.179 19.178-19.179s19.178 8.604 19.178 19.179-8.604 19.178-19.178 19.178-19.178-8.604-19.178-19.178z"/><path d="m461.259 159.516h-152.614c-.447 0-.891.011-1.333.034-11.48.584-21.015 8.666-23.792 19.433-.107.414-.204.833-.29 1.254-.173.843-.305 1.702-.394 2.573s-.134 1.755-.134 2.649v28.515 177.898c0 4.142 3.358 7.5 7.5 7.5s7.5-3.358 7.5-7.5v-170.399h174.5v226.118h-174.5v-18.929c0-4.142-3.358-7.5-7.5-7.5s-7.5 3.358-7.5 7.5v26.429 28.515c0 .894.045 1.778.134 2.648.089.871.221 1.729.394 2.573.087.422.183.84.29 1.254 2.777 10.768 12.311 18.849 23.792 19.433.442.022.886.034 1.333.034h152.614c14.305 0 25.943-11.638 25.943-25.942v-28.515-241.118-28.515c0-14.305-11.638-25.942-25.943-25.942zm-163.557 46.957v-21.015c0-4.902 3.241-9.063 7.692-10.45 1.027-.32 2.119-.493 3.25-.493h152.614c1.677 0 3.261.391 4.683 1.068.269.128.533.264.789.413.39.227.763.477 1.12.749.4.304.787.625 1.141.979.355.354.676.741.979 1.141.271.358.522.73.748 1.121.149.256.285.52.413.789.677 1.422 1.068 3.006 1.068 4.683v21.015zm174.5 277.133c0 1.131-.173 2.223-.493 3.25-1.388 4.452-5.548 7.692-10.45 7.692h-152.614c-6.034 0-10.943-4.909-10.943-10.942v-21.015h174.5z"/><path d="m160.025 270.674c-36.255 0-65.751 29.496-65.751 65.751 0 4.142 3.358 7.5 7.5 7.5s7.5-3.358 7.5-7.5c0-27.984 22.767-50.751 50.751-50.751s50.751 22.767 50.751 50.751c0 4.142 3.358 7.5 7.5 7.5s7.5-3.358 7.5-7.5c0-36.255-29.496-65.751-65.751-65.751z"/><path d="m160.025 240.882c-51.878 0-94.085 42.207-94.085 94.085 0 4.142 3.358 7.5 7.5 7.5s7.5-3.358 7.5-7.5c0-43.608 35.478-79.085 79.085-79.085s79.085 35.478 79.085 79.085c0 4.142 3.358 7.5 7.5 7.5s7.5-3.358 7.5-7.5c0-51.878-42.207-94.085-94.085-94.085z"/><path d="m160.025 299.639c-18.623 0-33.773 15.151-33.773 33.774 0 4.142 3.358 7.5 7.5 7.5s7.5-3.358 7.5-7.5c0-10.352 8.422-18.774 18.773-18.774s18.773 8.422 18.773 18.774c0 4.142 3.358 7.5 7.5 7.5s7.5-3.358 7.5-7.5c0-18.623-15.151-33.774-33.773-33.774z"/><path d="m384.952 384.161c40.002 0 71.046-43.462 72.348-45.313 1.822-2.589 1.822-6.043 0-8.632-1.302-1.851-32.346-45.312-72.348-45.312s-71.045 43.461-72.348 45.312c-1.822 2.589-1.822 6.043 0 8.632 1.302 1.851 32.346 45.313 72.348 45.313zm0-84.257c25.643 0 48.394 24.482 56.72 34.628-8.326 10.146-31.077 34.628-56.72 34.628-25.65 0-48.409-24.499-56.726-34.636 8.299-10.146 30.989-34.62 56.726-34.62z"/><path d="m384.952 362.18c15.802 0 28.659-12.403 28.659-27.647s-12.856-27.647-28.659-27.647-28.658 12.402-28.658 27.647 12.856 27.647 28.658 27.647zm0-40.295c7.531 0 13.659 5.673 13.659 12.647s-6.127 12.647-13.659 12.647-13.658-5.674-13.658-12.647 6.127-12.647 13.658-12.647z"/></svg>