<svg id="Capa_1" enable-background="new 0 0 507.033 507.033" height="512" viewBox="0 0 507.033 507.033" width="512" xmlns="http://www.w3.org/2000/svg"><path d="m492.244 290.326c6.38-36.541-1.851-73.379-23.177-103.728-.675-.96-1.361-1.91-2.056-2.849-2.423-3.271-7.01-4.014-10.339-1.673l-72.505 50.949c-8.918-9.937-21.604-15.704-35.234-15.704-26.146 0-47.417 21.271-47.417 47.417 0 8.736 1.717 16.083 5.34 22.613l-11.42 8.025c-3.389 2.382-4.206 7.06-1.824 10.449s7.06 4.206 10.448 1.824l155.079-108.972c17.275 26.387 23.781 57.85 18.33 89.069-5.691 32.594-23.734 61.021-50.806 80.044-54.742 38.467-130.14 26.285-170.111-26.757l25.12-17.652c3.389-2.381 4.206-7.059 1.824-10.448-2.381-3.389-7.059-4.207-10.448-1.824l-31.279 21.98c-3.331 2.34-4.186 6.91-1.928 10.296.647.971 1.307 1.938 1.981 2.896 25.705 36.58 65.986 56.954 107.531 58.825l-21.734 92.715c-.522 2.23.002 4.576 1.425 6.371 1.423 1.794 3.587 2.841 5.877 2.841h136.289c2.353 0 4.569-1.104 5.986-2.981 1.417-1.878 1.871-4.312 1.227-6.574l-35.182-123.439c25.926-21.091 43.198-50.467 49.003-83.713zm-175.729-25.588c0-17.875 14.542-32.417 32.417-32.417 8.696 0 16.829 3.437 22.835 9.417l-52.492 36.886c-1.871-3.968-2.76-8.442-2.76-13.886zm27.865 227.295 20.416-87.088c22.668-1.493 45.22-8.546 65.515-21.552l16.548 58.061h-54.325c-4.142 0-7.5 3.358-7.5 7.5s3.358 7.5 7.5 7.5h58.6l10.141 35.579z"/><path d="m251.915 241.966c1.605 0 3.224-.514 4.591-1.574 3.273-2.539 3.869-7.25 1.33-10.523-16.945-21.848-12.956-53.408 8.892-70.354 21.848-16.945 53.408-12.956 70.353 8.892 2.537 3.273 7.25 3.87 10.523 1.33 3.273-2.539 3.868-7.25 1.33-10.523-10.664-13.75-26.044-22.523-43.307-24.705-17.264-2.183-34.342 2.489-48.092 13.154-28.383 22.014-33.565 63.016-11.551 91.399 1.477 1.906 3.692 2.904 5.931 2.904z"/><path d="m284.293 182.164c8.059-6.252 19.703-4.78 25.955 3.28 2.538 3.273 7.249 3.87 10.523 1.33 3.273-2.539 3.868-7.25 1.33-10.523-11.321-14.596-32.405-17.259-47-5.939-7.071 5.483-11.583 13.393-12.705 22.27s1.28 17.66 6.764 24.73c1.478 1.906 3.693 2.904 5.932 2.904 1.605 0 3.224-.514 4.591-1.574 3.273-2.538 3.869-7.25 1.33-10.522-3.028-3.905-4.354-8.755-3.735-13.657s3.111-9.271 7.015-12.299z"/><path d="m200.544 56.506c0-.039 0-.078 0-.117 0-31.093-25.296-56.389-56.389-56.389-23.632 0-44.212 14.376-52.533 35.816-1.201-.179-2.417-.27-3.637-.27-9.47 0-17.809 5.267-21.948 13.354-29.521.595-53.354 24.795-53.354 54.457 0 30.034 24.434 54.468 54.468 54.468h22.979c4.142 0 7.5-3.358 7.5-7.5s-3.358-7.5-7.5-7.5h-22.979c-21.763 0-39.468-17.705-39.468-39.468s17.705-39.468 39.468-39.468h4.086c3.499 0 6.532-2.418 7.312-5.829 1.011-4.424 4.892-7.513 9.437-7.513 1.71 0 3.327.43 4.806 1.279 2.058 1.181 4.555 1.319 6.731.371 2.176-.949 3.774-2.871 4.31-5.184 4.361-18.849 20.943-32.013 40.322-32.013 22.822 0 41.389 18.567 41.389 41.389 0 1.246-.06 2.53-.177 3.815-.286 3.132 1.413 6.11 4.254 7.458 13.784 6.538 22.691 20.549 22.691 35.694 0 21.763-17.705 39.468-39.468 39.468h-52.606c-4.142 0-7.5 3.358-7.5 7.5s3.358 7.5 7.5 7.5h52.606c30.034 0 54.468-24.434 54.468-54.468.001-19.209-10.356-37.086-26.768-46.85z"/></svg>