<svg id="Capa_1" enable-background="new 0 0 509.386 509.386" height="512" viewBox="0 0 509.386 509.386" width="512" xmlns="http://www.w3.org/2000/svg"><path d="m509.168 28.765c-.337-4.128-3.958-7.202-8.085-6.866-37.978 3.096-73.6 32.233-100.304 82.044-21.755 40.578-35.466 91.546-36.133 133.898-11.131.201-20.129 9.303-20.129 20.481v17.729h-18.303v-17.729c0-11.304-9.196-20.5-20.5-20.5h-2.54v-230.322c0-4.142-3.357-7.5-7.5-7.5s-7.5 3.358-7.5 7.5v230.322h-2.538c-11.304 0-20.5 9.196-20.5 20.5v17.729h-18.303v-17.729c0-11.304-9.196-20.5-20.5-20.5h-2.115v-230.322c0-4.142-3.358-7.5-7.5-7.5s-7.5 3.358-7.5 7.5v230.322h-2.962c-11.304 0-20.5 9.196-20.5 20.5v17.729h-18.304v-17.729c0-11.304-9.196-20.5-20.5-20.5h-2.215c-.67-42.348-14.381-93.307-36.132-133.879-26.703-49.811-62.325-78.948-100.303-82.044-4.134-.34-7.749 2.737-8.084 6.866-.336 4.128 2.737 7.748 6.866 8.084 72.735 5.93 121.326 123.569 122.655 200.973h-2.863c-11.304 0-20.5 9.196-20.5 20.5v17.729h-15.743c-11.304 0-20.5 9.196-20.5 20.5v54.645c0 4.142 3.358 7.5 7.5 7.5s7.5-3.358 7.5-7.5v-54.645c0-3.033 2.467-5.5 5.5-5.5h328.118c3.032 0 5.5 2.467 5.5 5.5v97.118c0 55.536-45.182 100.717-100.717 100.717h-137.684c-55.536 0-100.717-45.181-100.717-100.717v-12.365c0-4.142-3.358-7.5-7.5-7.5s-7.5 3.358-7.5 7.5v12.365c0 63.807 51.91 115.717 115.717 115.717h137.685c63.807 0 115.717-51.91 115.717-115.717v-97.118c0-11.304-9.196-20.5-20.5-20.5h-13.155v-17.729c0-11.304-9.196-20.5-20.5-20.5h-5.45c1.33-77.404 49.921-195.043 122.656-200.973 4.128-.336 7.201-3.956 6.865-8.084zm-229.031 229.557c0-3.033 2.468-5.5 5.5-5.5h20.078c3.032 0 5.5 2.467 5.5 5.5v17.729h-31.078zm-79.38 0c0-3.033 2.467-5.5 5.5-5.5h20.077c3.033 0 5.5 2.467 5.5 5.5v17.729h-31.077zm-79.381 0c0-3.033 2.467-5.5 5.5-5.5h20.077c3.033 0 5.5 2.467 5.5 5.5v17.729h-31.077zm269.22 0v17.729h-31.078v-17.729c0-3.033 2.468-5.5 5.5-5.5h20.078c3.032 0 5.5 2.467 5.5 5.5z"/><path d="m282.78 343.313c4.143 0 7.5-3.358 7.5-7.5s-3.357-7.5-7.5-7.5h-121.789c-4.142 0-7.5 3.358-7.5 7.5v50.786c0 4.142 3.358 7.5 7.5 7.5h187.403c4.143 0 7.5-3.358 7.5-7.5v-50.786c0-4.142-3.357-7.5-7.5-7.5h-36.333c-4.143 0-7.5 3.358-7.5 7.5s3.357 7.5 7.5 7.5h28.833v35.786h-172.403v-35.786z"/><path d="m160.991 433.048h187.403c4.143 0 7.5-3.358 7.5-7.5s-3.357-7.5-7.5-7.5h-187.403c-4.142 0-7.5 3.358-7.5 7.5s3.357 7.5 7.5 7.5z"/></svg>