<svg id="Capa_1" enable-background="new 0 0 510.31 510.31" height="512" viewBox="0 0 510.31 510.31" width="512" xmlns="http://www.w3.org/2000/svg"><path d="m231.303 22.228h-44.395v-14.728c0-4.142-3.357-7.5-7.5-7.5h-52.294c-4.143 0-7.5 3.358-7.5 7.5v14.728h-44.394c-2.032 0-3.978.825-5.391 2.286-1.413 1.46-2.173 3.432-2.105 5.463l7.61 229.162c.017.486.08.969.189 1.442l16.912 73.068c.063.27.162.522.252.778v85.956c0 4.142 3.357 7.5 7.5 7.5s7.5-3.358 7.5-7.5v-80.926h91.147v155.853h-91.147v-41.06c0-4.142-3.357-7.5-7.5-7.5s-7.5 3.358-7.5 7.5v48.56c0 4.142 3.357 7.5 7.5 7.5h106.147c4.143 0 7.5-3.358 7.5-7.5v-168.324c.101-.281.191-.568.259-.865l16.912-74.382c.105-.464.166-.937.183-1.412l7.61-227.848c.067-2.032-.692-4.003-2.105-5.464-1.412-1.462-3.358-2.287-5.39-2.287zm-78.042 152.375c-4.143 0-7.5 3.358-7.5 7.5v18.997h-11.146v-132.355h37.294v132.355h-11.147v-18.997c-.001-4.143-3.359-7.5-7.501-7.5zm-26.147 41.497h18.646v20.696c0 4.142 3.357 7.5 7.5 7.5s7.5-3.358 7.5-7.5v-20.696h18.647c4.143 0 7.5-3.358 7.5-7.5v-139.855h35.587l-6.078 181.972h-126.353l-6.044-181.972h35.595v139.855c0 4.142 3.358 7.5 7.5 7.5zm-35.006 49.617h122.042l-4.335 19.065h-113.294zm131.44-228.489-.552 16.517h-36.088v-16.517zm-88.934-22.228h37.294v38.745h-37.294zm-15 22.228v16.517h-36.093l-.549-16.517zm-13.91 287.23-5.711-24.676h106.412l-5.611 24.676z"/><path d="m440.48 24.514c-1.412-1.461-3.358-2.286-5.391-2.286h-44.395v-14.728c0-4.142-3.357-7.5-7.5-7.5h-52.294c-4.143 0-7.5 3.358-7.5 7.5v14.728h-44.394c-2.032 0-3.978.825-5.391 2.286-1.413 1.46-2.173 3.432-2.105 5.463l4.133 124.468c.135 4.055 3.465 7.251 7.491 7.251.084 0 .169-.001.254-.004 4.14-.138 7.385-3.605 7.247-7.745l-2.829-85.202h35.594v139.855c0 4.142 3.357 7.5 7.5 7.5h18.647v20.696c0 4.142 3.357 7.5 7.5 7.5s7.5-3.358 7.5-7.5v-20.696h18.646c4.143 0 7.5-3.358 7.5-7.5v-139.855h35.587l-6.078 181.972h-126.352l-2.183-65.754c-.138-4.14-3.572-7.373-7.745-7.247-4.14.138-7.385 3.605-7.247 7.745l2.446 73.678c.017.486.08.969.189 1.442l16.912 73.068c.063.27.162.522.252.778v168.383c0 4.142 3.357 7.5 7.5 7.5h106.148c4.143 0 7.5-3.358 7.5-7.5v-168.327c.1-.28.19-.566.258-.862l16.912-74.382c.105-.464.166-.937.183-1.412l7.61-227.848c.068-2.032-.691-4.004-2.105-5.465zm-102.079-9.514h37.294v38.745h-37.294zm-51.092 38.745-.549-16.517h36.641v16.517zm88.386 147.355h-11.146v-18.997c0-4.142-3.357-7.5-7.5-7.5s-7.5 3.358-7.5 7.5v18.997h-11.147v-132.355h37.294v132.355zm15-147.355v-16.517h36.64l-.552 16.517zm13.886 270.713h-95.09l-5.711-24.676h106.412zm-104.273-39.676-4.413-19.065h122.042l-4.335 19.065zm102.315 210.528h-91.148v-155.852h91.148z"/></svg>