<svg id="Capa_1" enable-background="new 0 0 509.395 509.395" height="512" viewBox="0 0 509.395 509.395" width="512" xmlns="http://www.w3.org/2000/svg"><path d="m20.739 129.095h117.354c11.437 0 20.74-9.304 20.74-20.74 0-.038 0-.076-.001-.114l-1.018-67.168c-.034-11.407-9.325-20.676-20.74-20.676h-116.335c-11.435 0-20.739 9.304-20.739 20.74v67.218c0 11.436 9.304 20.74 20.739 20.74zm-5.739-87.958c0-3.165 2.574-5.74 5.739-5.74h116.335c3.165 0 5.74 2.575 5.74 5.74 0 .038 0 .076.001.114l1.018 67.148c-.023 3.145-2.59 5.696-5.74 5.696h-117.354c-3.165 0-5.739-2.575-5.739-5.74z"/><path d="m368.302 129.095h120.354c11.436 0 20.739-9.304 20.739-20.74 0-.038 0-.076-.001-.114l-1.017-67.166c-.033-11.408-9.324-20.679-20.74-20.679h-119.335c-11.437 0-20.74 9.304-20.74 20.74v67.218c0 11.437 9.303 20.741 20.74 20.741zm-5.74-87.958c0-3.165 2.575-5.74 5.74-5.74h119.335c3.165 0 5.74 2.575 5.74 5.74 0 .038 0 .076.001.114l1.017 67.15c-.024 3.144-2.59 5.694-5.739 5.694h-120.354c-3.165 0-5.74-2.575-5.74-5.74z"/><path d="m509.395 228.497c0-.038 0-.076-.001-.113l-1.017-67.167c-.034-11.407-9.325-20.678-20.74-20.678h-29.41c-4.143 0-7.5 3.358-7.5 7.5s3.357 7.5 7.5 7.5h29.41c3.165 0 5.74 2.575 5.74 5.74 0 .038 0 .076.001.114l1.017 67.15c-.024 3.144-2.59 5.694-5.739 5.694h-80.3c-3.933-29.69-16.3-56.753-34.609-78.698h54.372c4.143 0 7.5-3.358 7.5-7.5s-3.357-7.5-7.5-7.5h-67.057c-.501 0-.99.051-1.464.145-9.06-8.342-19.113-15.619-29.959-21.636 1.914-3.171 2.976-6.851 2.976-10.693 0-.038 0-.076-.001-.114l-1.018-67.168c-.034-11.407-9.325-20.676-20.74-20.676h-116.335c-11.437 0-20.74 9.304-20.74 20.74v67.218c0 4.311 1.379 8.461 3.804 11.909-9.959 5.735-19.22 12.55-27.632 20.275h-129.214c-11.435 0-20.739 9.304-20.739 20.74v67.218c0 11.436 9.304 20.74 20.739 20.74h79.055c-.063 1.813-.106 3.631-.106 5.46 0 1.645.035 3.282.086 4.915h-79.035c-11.435 0-20.739 9.305-20.739 20.741v67.218c0 11.436 9.304 20.74 20.739 20.74h117.354c3.161 0 6.253-.738 9.05-2.101 5.265 5.08 10.887 9.789 16.825 14.089h-143.229c-11.435 0-20.739 9.305-20.739 20.741v67.218c0 11.436 9.304 20.74 20.739 20.74h26.379c4.143 0 7.5-3.358 7.5-7.5s-3.357-7.5-7.5-7.5h-26.379c-3.165 0-5.739-2.575-5.739-5.74v-67.218c0-3.165 2.574-5.74 5.739-5.74h165.336c.873 0 1.707-.157 2.486-.431 12.903 6.112 26.778 10.493 41.326 12.843l.946 60.594c-.026 3.143-2.591 5.692-5.74 5.692h-145.677c-4.143 0-7.5 3.358-7.5 7.5s3.357 7.5 7.5 7.5h145.677c11.437 0 20.74-9.304 20.74-20.74 0-.039 0-.078-.001-.117l-.917-58.752c3.236.203 6.496.318 9.783.318 1.964 0 3.917-.049 5.864-.122v58.673c0 11.436 9.304 20.74 20.74 20.74h207.354c11.436 0 20.739-9.304 20.739-20.74 0-.038 0-.076-.001-.113l-1.017-67.169c-.034-11.407-9.325-20.676-20.74-20.676h-142.21c5.218-3.78 10.192-7.877 14.894-12.262.632.173 1.294.273 1.981.273h126.354c11.436 0 20.739-9.304 20.739-20.74 0-.038 0-.076-.001-.113l-1.017-67.168c-.034-11.407-9.325-20.677-20.74-20.677h-78.016c.051-1.633.086-3.27.086-4.915 0-1.829-.043-3.646-.106-5.46h79.055c11.435-.001 20.739-9.305 20.739-20.741zm-320.615-120.142v-67.218c0-3.165 2.575-5.74 5.74-5.74h116.335c3.165 0 5.74 2.575 5.74 5.74 0 .038 0 .076.001.114l1.018 67.149c-.012 1.489-.615 2.882-1.631 3.93-18.808-8.127-39.528-12.642-61.286-12.642-22.512 0-43.916 4.829-63.238 13.497-1.654-1.062-2.679-2.89-2.679-4.83zm-168.041 125.882c-3.165 0-5.739-2.575-5.739-5.74v-67.218c0-3.165 2.574-5.74 5.739-5.74h114.909c-18.309 21.945-30.676 49.008-34.609 78.698zm-5.739 113.334v-67.218c0-3.165 2.574-5.74 5.739-5.74h80.224c3.821 29.657 16.054 56.716 34.224 78.698h-114.448c-3.165 0-5.739-2.575-5.739-5.74zm304.946 47.728h167.69c3.165 0 5.74 2.575 5.74 5.74 0 .038 0 .076.001.114l1.017 67.15c-.024 3.144-2.59 5.694-5.739 5.694h-207.353c-3.165 0-5.74-2.575-5.74-5.74v-59.96c15.64-2.113 30.545-6.568 44.354-13 .01.001.02.002.03.002zm-65.249-.592c-77.202 0-140.01-62.808-140.01-140.009s62.808-140.009 140.01-140.009 140.01 62.808 140.01 140.009-62.808 140.009-140.01 140.009zm232.94-120.095c3.165 0 5.74 2.575 5.74 5.74 0 .038 0 .076.001.114l1.017 67.15c-.024 3.144-2.59 5.694-5.739 5.694h-114.449c18.17-21.982 30.404-49.041 34.224-78.698z"/><path d="m316.864 228.292v-24.702c0-34.279-27.888-62.167-62.167-62.167s-62.167 27.888-62.167 62.167v24.702c-5.369 5.204-8.716 12.482-8.716 20.532v16.509c0 4.142 3.357 7.5 7.5 7.5s7.5-3.358 7.5-7.5v-16.509c0-7.504 6.105-13.609 13.609-13.609h84.547c7.504 0 13.609 6.105 13.609 13.609v78.484c0 7.504-6.105 13.609-13.609 13.609h-84.547c-7.504 0-13.609-6.105-13.609-13.609v-31.867c0-4.142-3.357-7.5-7.5-7.5s-7.5 3.358-7.5 7.5v31.867c0 15.775 12.834 28.609 28.609 28.609h84.547c15.775 0 28.609-12.834 28.609-28.609v-78.484c.001-8.049-3.346-15.328-8.715-20.532zm-41.504-8.077h-41.326v-16.625c0-11.394 9.27-20.663 20.663-20.663s20.663 9.27 20.663 20.663zm15 0v-16.625c0-19.665-15.998-35.663-35.663-35.663s-35.663 15.999-35.663 35.663v16.625h-6.61c-1.669 0-3.302.152-4.894.427v-17.052c0-26.008 21.159-47.167 47.167-47.167s47.167 21.159 47.167 47.167v17.052c-1.591-.275-3.225-.427-4.894-.427z"/><path d="m271.768 321.172c4.143 0 7.5-3.358 7.5-7.5v-34.14c0-13.548-11.022-24.57-24.57-24.57s-24.57 11.022-24.57 24.57v34.14c0 4.142 3.357 7.5 7.5 7.5zm-26.641-41.64c0-5.277 4.293-9.57 9.57-9.57s9.57 4.293 9.57 9.57v26.64h-19.141v-26.64z"/></svg>