<svg id="Capa_1" enable-background="new 0 0 511.317 511.317" height="512" viewBox="0 0 511.317 511.317" width="512" xmlns="http://www.w3.org/2000/svg"><path d="m74.819 90.035h-15.444c-4.142 0-7.5 3.358-7.5 7.5s3.358 7.5 7.5 7.5h15.445c4.142 0 7.5-3.358 7.5-7.5s-3.359-7.5-7.501-7.5z"/><path d="m121.559 105.035c4.142 0 7.5-3.358 7.5-7.5s-3.358-7.5-7.5-7.5h-15.445c-4.142 0-7.5 3.358-7.5 7.5s3.358 7.5 7.5 7.5z"/><path d="m168.298 105.035c4.142 0 7.5-3.358 7.5-7.5s-3.358-7.5-7.5-7.5h-15.445c-4.142 0-7.5 3.358-7.5 7.5s3.358 7.5 7.5 7.5z"/><path d="m74.819 227.774h-15.444c-4.142 0-7.5 3.358-7.5 7.5s3.358 7.5 7.5 7.5h15.445c4.142 0 7.5-3.358 7.5-7.5s-3.359-7.5-7.501-7.5z"/><path d="m129.059 235.274c0-4.142-3.358-7.5-7.5-7.5h-15.445c-4.142 0-7.5 3.358-7.5 7.5s3.358 7.5 7.5 7.5h15.445c4.142 0 7.5-3.358 7.5-7.5z"/><path d="m152.854 242.774h15.445c4.142 0 7.5-3.358 7.5-7.5s-3.358-7.5-7.5-7.5h-15.445c-4.142 0-7.5 3.358-7.5 7.5s3.357 7.5 7.5 7.5z"/><path d="m74.819 409.792h-15.444c-4.142 0-7.5 3.358-7.5 7.5s3.358 7.5 7.5 7.5h15.445c4.142 0 7.5-3.358 7.5-7.5s-3.359-7.5-7.501-7.5z"/><path d="m98.614 417.292c0 4.142 3.358 7.5 7.5 7.5h15.445c4.142 0 7.5-3.358 7.5-7.5s-3.358-7.5-7.5-7.5h-15.445c-4.142 0-7.5 3.358-7.5 7.5z"/><path d="m152.854 424.792h15.445c4.142 0 7.5-3.358 7.5-7.5s-3.358-7.5-7.5-7.5h-15.445c-4.142 0-7.5 3.358-7.5 7.5s3.357 7.5 7.5 7.5z"/><path d="m360.845 141.426h126.426c4.142 0 7.5-3.358 7.5-7.5v-126.426c0-4.142-3.358-7.5-7.5-7.5h-38.908-48.611-38.908c-4.142 0-7.5 3.358-7.5 7.5v43.623h-75.96c-4.142 0-7.5 3.358-7.5 7.5v189.757h-58.758v-47.64-64.707-64.41c0-11.304-9.196-20.5-20.5-20.5h-87.846c-4.142 0-7.5 3.358-7.5 7.5s3.358 7.5 7.5 7.5h87.847c3.033 0 5.5 2.467 5.5 5.5v64.41h-164.581v-64.41c0-3.033 2.467-5.5 5.5-5.5h35.625c4.142 0 7.5-3.358 7.5-7.5s-3.358-7.5-7.5-7.5h-35.625c-11.304 0-20.5 9.196-20.5 20.5v64.41 64.707 59.864 66.876 112.657c0 11.304 9.196 20.5 20.5 20.5h153.581c11.304 0 20.5-9.196 20.5-20.5v-112.658-64.1h58.758v189.757c0 4.142 3.358 7.5 7.5 7.5h75.96v43.18c0 4.142 3.358 7.5 7.5 7.5h126.426c4.142 0 7.5-3.358 7.5-7.5v-126.425c0-4.142-3.358-7.5-7.5-7.5h-38.908-48.611-38.908c-4.142 0-7.5 3.358-7.5 7.5v68.246h-68.46v-182.257h68.46v45.055c0 4.142 3.358 7.5 7.5 7.5h38.17c4.142 0 7.5-3.358 7.5-7.5s-3.358-7.5-7.5-7.5h-30.67v-111.426h23.908v71.261c0 4.142 3.358 7.5 7.5 7.5h48.611c4.142 0 7.5-3.358 7.5-7.5v-71.261h23.908v111.426h-48.991c-4.142 0-7.5 3.358-7.5 7.5s3.358 7.5 7.5 7.5h56.492c4.142 0 7.5-3.358 7.5-7.5v-126.426c0-4.142-3.358-7.5-7.5-7.5h-38.908-48.611-38.908c-4.142 0-7.5 3.358-7.5 7.5v66.371h-68.46v-182.257h68.46v67.803c0 4.142 3.358 7.5 7.5 7.5zm-164.718 9.607v34.707h-164.581v-34.707zm-164.581 49.707h164.581v68.216l-82.291 45.824-82.291-45.824v-68.216zm164.581 85.385v32.538l-82.291 45.824-82.291-45.824v-32.538l82.291 45.824zm0 154.012c0 3.033-2.467 5.5-5.5 5.5h-153.581c-3.033 0-5.5-2.467-5.5-5.5v-104.305l82.291 45.824 82.291-45.824v104.305zm244.737-55.246v63.761h-33.611v-63.761zm-72.519 0h23.908v71.261c0 4.142 3.358 7.5 7.5 7.5h48.611c4.142 0 7.5-3.358 7.5-7.5v-71.261h23.908v111.426h-111.427zm72.519-195.382v63.761h-33.611v-63.761zm0-174.509v63.761h-33.611v-63.761zm-72.519 0h23.908v71.261c0 4.142 3.358 7.5 7.5 7.5h48.611c4.142 0 7.5-3.358 7.5-7.5v-71.261h23.908v111.426h-111.427z"/></svg>