<svg id="Capa_1" enable-background="new 0 0 508.315 508.315" height="512" viewBox="0 0 508.315 508.315" width="512" xmlns="http://www.w3.org/2000/svg"><path d="m206.151 211.803h-101.989v-84.699h46.933c8.839 18.167 27.484 30.72 49.009 30.72h105.694c21.525 0 40.17-12.553 49.009-30.72h46.933v33.456c0 4.142 3.358 7.5 7.5 7.5s7.5-3.358 7.5-7.5v-40.956c0-4.142-3.358-7.5-7.5-7.5h-49.686c.462-2.85.712-5.77.712-8.748 0-19.21-10.357-37.087-26.769-46.851 0-.039 0-.078 0-.117-.001-31.093-25.296-56.388-56.389-56.388-23.632 0-44.212 14.376-52.533 35.816-1.201-.179-2.417-.27-3.637-.27-9.47 0-17.809 5.266-21.948 13.354-29.521.595-53.354 24.795-53.354 54.457 0 2.978.25 5.898.712 8.748h-49.686c-4.142 0-7.5 3.358-7.5 7.5v92.199h-81.495c-4.142 0-7.5 3.358-7.5 7.5v281.512c0 4.142 3.358 7.5 7.5 7.5h198.483c4.142 0 7.5-3.358 7.5-7.5v-48.147c0-4.142-3.358-7.5-7.5-7.5s-7.5 3.358-7.5 7.5v40.647h-183.483v-266.513h183.483v195.367c0 4.142 3.358 7.5 7.5 7.5s7.5-3.358 7.5-7.5v-202.867c.001-4.142-3.357-7.5-7.499-7.5zm-6.047-147.915h4.086c3.499 0 6.532-2.419 7.312-5.83.995-4.353 4.963-7.513 9.437-7.513 1.71 0 3.327.43 4.806 1.279 2.057 1.182 4.555 1.319 6.731.371 2.176-.949 3.774-2.871 4.31-5.184 4.361-18.847 20.942-32.011 40.322-32.011 22.821 0 41.388 18.567 41.388 41.388 0 1.245-.06 2.53-.177 3.818-.285 3.132 1.414 6.108 4.255 7.456 13.784 6.538 22.69 20.548 22.69 35.693 0 4.663-.818 9.136-2.309 13.292-.091.213-.172.432-.243.654-5.648 14.899-20.061 25.522-36.915 25.522h-105.693c-16.854 0-31.268-10.623-36.915-25.522-.072-.222-.152-.441-.243-.654-1.491-4.156-2.309-8.629-2.309-13.292-.001-21.762 17.704-39.467 39.467-39.467z"/><path d="m171.373 334.646h-133.466c-4.142 0-7.5 3.358-7.5 7.5s3.358 7.5 7.5 7.5h133.466c4.142 0 7.5-3.358 7.5-7.5s-3.358-7.5-7.5-7.5z"/><path d="m171.373 370.081h-133.466c-4.142 0-7.5 3.358-7.5 7.5s3.358 7.5 7.5 7.5h133.466c4.142 0 7.5-3.358 7.5-7.5s-3.358-7.5-7.5-7.5z"/><path d="m37.907 472.121h133.466c4.142 0 7.5-3.358 7.5-7.5s-3.358-7.5-7.5-7.5h-133.466c-4.142 0-7.5 3.358-7.5 7.5s3.358 7.5 7.5 7.5z"/><path d="m37.907 414.094h50.55c4.142 0 7.5-3.358 7.5-7.5s-3.358-7.5-7.5-7.5h-50.55c-4.142 0-7.5 3.358-7.5 7.5s3.358 7.5 7.5 7.5z"/><path d="m127.999 262.964h40.082c4.142 0 7.5-3.358 7.5-7.5s-3.358-7.5-7.5-7.5h-40.082c-4.142 0-7.5 3.358-7.5 7.5s3.358 7.5 7.5 7.5z"/><path d="m127.999 291.531h40.082c4.142 0 7.5-3.358 7.5-7.5s-3.358-7.5-7.5-7.5h-40.082c-4.142 0-7.5 3.358-7.5 7.5s3.358 7.5 7.5 7.5z"/><path d="m127.999 320.098h40.082c4.142 0 7.5-3.358 7.5-7.5s-3.358-7.5-7.5-7.5h-40.082c-4.142 0-7.5 3.358-7.5 7.5s3.358 7.5 7.5 7.5z"/><path d="m37.907 443.107h50.55c4.142 0 7.5-3.358 7.5-7.5s-3.358-7.5-7.5-7.5h-50.55c-4.142 0-7.5 3.358-7.5 7.5s3.358 7.5 7.5 7.5z"/><path d="m500.648 211.803h-83.908v-16.243c0-4.142-3.358-7.5-7.5-7.5s-7.5 3.358-7.5 7.5v16.243h-99.575c-4.142 0-7.5 3.358-7.5 7.5v281.512c0 4.142 3.358 7.5 7.5 7.5h198.483c4.142 0 7.5-3.358 7.5-7.5v-281.512c0-4.142-3.358-7.5-7.5-7.5zm-7.5 281.512h-183.483v-266.512h183.483z"/><path d="m332.404 334.646c-4.142 0-7.5 3.358-7.5 7.5s3.358 7.5 7.5 7.5h133.466c4.142 0 7.5-3.358 7.5-7.5s-3.358-7.5-7.5-7.5z"/><path d="m465.87 370.081h-133.466c-4.142 0-7.5 3.358-7.5 7.5s3.358 7.5 7.5 7.5h133.466c4.142 0 7.5-3.358 7.5-7.5s-3.358-7.5-7.5-7.5z"/><path d="m465.87 457.121h-133.466c-4.142 0-7.5 3.358-7.5 7.5s3.358 7.5 7.5 7.5h133.466c4.142 0 7.5-3.358 7.5-7.5s-3.358-7.5-7.5-7.5z"/><path d="m332.404 414.094h50.551c4.142 0 7.5-3.358 7.5-7.5s-3.358-7.5-7.5-7.5h-50.551c-4.142 0-7.5 3.358-7.5 7.5s3.358 7.5 7.5 7.5z"/><path d="m422.496 262.964h40.082c4.142 0 7.5-3.358 7.5-7.5s-3.358-7.5-7.5-7.5h-40.082c-4.142 0-7.5 3.358-7.5 7.5s3.358 7.5 7.5 7.5z"/><path d="m422.496 291.531h40.082c4.142 0 7.5-3.358 7.5-7.5s-3.358-7.5-7.5-7.5h-40.082c-4.142 0-7.5 3.358-7.5 7.5s3.358 7.5 7.5 7.5z"/><path d="m422.496 320.098h40.082c4.142 0 7.5-3.358 7.5-7.5s-3.358-7.5-7.5-7.5h-40.082c-4.142 0-7.5 3.358-7.5 7.5s3.358 7.5 7.5 7.5z"/><path d="m332.404 443.107h50.551c4.142 0 7.5-3.358 7.5-7.5s-3.358-7.5-7.5-7.5h-50.551c-4.142 0-7.5 3.358-7.5 7.5s3.358 7.5 7.5 7.5z"/><path d="m99.984 318.098c4.142 0 7.5-3.358 7.5-7.5v-57.134c0-4.142-3.358-7.5-7.5-7.5h-57.134c-4.142 0-7.5 3.358-7.5 7.5v57.134c0 4.142 3.358 7.5 7.5 7.5zm-49.634-57.134h42.134v42.134h-42.134z"/><path d="m169.373 440.661c4.142 0 7.5-3.358 7.5-7.5v-28.567c0-4.142-3.358-7.5-7.5-7.5h-57.134c-4.142 0-7.5 3.358-7.5 7.5v28.567c0 4.142 3.358 7.5 7.5 7.5zm-49.634-28.567h42.134v13.567h-42.134z"/><path d="m337.348 318.098h57.134c4.142 0 7.5-3.358 7.5-7.5v-57.134c0-4.142-3.358-7.5-7.5-7.5h-57.134c-4.142 0-7.5 3.358-7.5 7.5v57.134c0 4.142 3.358 7.5 7.5 7.5zm7.5-57.134h42.134v42.134h-42.134z"/><path d="m463.87 440.661c4.142 0 7.5-3.358 7.5-7.5v-28.567c0-4.142-3.358-7.5-7.5-7.5h-57.134c-4.142 0-7.5 3.358-7.5 7.5v28.567c0 4.142 3.358 7.5 7.5 7.5zm-49.634-28.567h42.134v13.567h-42.134z"/></svg>