<svg id="Capa_1" enable-background="new 0 0 508.559 508.559" height="512" viewBox="0 0 508.559 508.559" width="512" xmlns="http://www.w3.org/2000/svg"><path d="m477.975 21.413h-329.762c-13.279-13.225-31.577-21.413-51.753-21.413-40.46 0-73.376 32.917-73.376 73.376s32.916 73.377 73.376 73.377c1.789 0 3.557-.087 5.315-.213v86.264c0 4.142 3.358 7.5 7.5 7.5s7.5-3.358 7.5-7.5v-88.934c20.993-6.06 38.14-21.25 46.845-40.985h306.855v248.57h-353.7v-86.2c0-4.142-3.358-7.5-7.5-7.5s-7.5 3.358-7.5 7.5v93.7c0 4.142 3.358 7.5 7.5 7.5h108.543v47.348c0 4.142 3.358 7.5 7.5 7.5s7.5-3.358 7.5-7.5v-47.348h127.104v122.733l-10.429-4.957c-2.167-1.03-4.695-.961-6.804.185l-15.307 8.326-20.437-8.645c-1.758-.744-3.732-.789-5.521-.128l-24.437 9.031-21.318-8.915c-1.744-.729-3.699-.772-5.472-.124l-17.378 6.363v-46.415c0-4.142-3.358-7.5-7.5-7.5s-7.5 3.358-7.5 7.5v57.147c0 2.45 1.196 4.745 3.204 6.148 1.277.892 2.78 1.352 4.296 1.352.868 0 1.741-.151 2.578-.457l24.697-9.043 21.33 8.919c1.751.732 3.714.773 5.493.116l24.421-9.024 21.031 8.896c2.104.89 4.496.773 6.506-.319l15.128-8.229 17.699 8.414c2.322 1.105 5.05.94 7.226-.433 2.176-1.375 3.494-3.768 3.494-6.34v-134.6h103.054c4.143 0 7.5-3.358 7.5-7.5v-263.571-66.472c-.001-4.142-3.358-7.5-7.501-7.5zm-381.515 110.34c-32.189 0-58.376-26.188-58.376-58.376s26.187-58.377 58.376-58.377 58.376 26.188 58.376 58.376-26.187 58.377-58.376 58.377zm71.93-43.868c.945-4.692 1.447-9.542 1.447-14.509 0-13.474-3.667-26.1-10.03-36.964h310.669v51.473z"/><path d="m267.696 320.004h61.334 88.161c4.143 0 7.5-3.358 7.5-7.5v-129.443-46.177c0-4.142-3.357-7.5-7.5-7.5h-247.131c-4.142 0-7.5 3.358-7.5 7.5v46.177 129.443c0 4.142 3.358 7.5 7.5 7.5zm7.5-15v-79.497h46.334v79.497zm134.495 0h-73.161v-86.997c0-4.142-3.357-7.5-7.5-7.5h-61.334c-4.143 0-7.5 3.358-7.5 7.5v86.997h-82.636v-114.443h232.131zm-55.879-129.443v-31.177h20.25v31.177zm-15 0h-20.251v-31.177h20.251zm-35.251 0h-20.25v-31.177h20.25zm-35.25 0h-20.25v-31.177h20.25zm-35.25 0h-20.25v-31.177h20.25zm176.63 0h-20.629v-31.177h20.629zm-232.131-31.177h20.25v31.177h-20.25z"/><path d="m255.023 397.38h86.711c4.143 0 7.5-3.358 7.5-7.5s-3.357-7.5-7.5-7.5h-86.711c-4.142 0-7.5 3.358-7.5 7.5s3.358 7.5 7.5 7.5z"/><path d="m255.023 428.305h86.711c4.143 0 7.5-3.358 7.5-7.5s-3.357-7.5-7.5-7.5h-86.711c-4.142 0-7.5 3.358-7.5 7.5s3.358 7.5 7.5 7.5z"/><path d="m253.394 457.147h90.372c4.143 0 7.5-3.358 7.5-7.5s-3.357-7.5-7.5-7.5h-90.372c-4.142 0-7.5 3.358-7.5 7.5s3.357 7.5 7.5 7.5z"/><path d="m112.688 53.08-22.182 24.02-9.936-12.374c-2.593-3.229-7.313-3.747-10.544-1.152-3.229 2.593-3.746 7.314-1.152 10.544l15.387 19.164c1.367 1.702 3.407 2.724 5.589 2.8.087.003.173.004.26.004 2.088 0 4.087-.872 5.509-2.412l28.089-30.417c2.811-3.043 2.622-7.788-.421-10.598s-7.789-2.622-10.599.421z"/></svg>