<svg id="Capa_1" enable-background="new 0 0 505.482 505.482" height="512" viewBox="0 0 505.482 505.482" width="512" xmlns="http://www.w3.org/2000/svg"><path d="m329.423 141.219c0 4.142 3.357 7.5 7.5 7.5s7.5-3.358 7.5-7.5c0-51.075-41.553-92.627-92.627-92.627s-92.627 41.552-92.627 92.627c0 4.142 3.357 7.5 7.5 7.5s7.5-3.358 7.5-7.5c0-42.804 34.823-77.627 77.627-77.627s77.627 34.823 77.627 77.627z"/><path d="m127.19 148.719c4.143 0 7.5-3.358 7.5-7.5 0-64.572 52.533-117.106 117.105-117.106s117.105 52.534 117.105 117.106c0 4.142 3.357 7.5 7.5 7.5s7.5-3.358 7.5-7.5c0-72.843-59.263-132.106-132.105-132.106s-132.105 59.263-132.105 132.106c0 4.142 3.358 7.5 7.5 7.5z"/><path d="m202.511 141.219c0 4.142 3.357 7.5 7.5 7.5s7.5-3.358 7.5-7.5c0-18.905 15.38-34.285 34.285-34.285s34.285 15.38 34.285 34.285c0 4.142 3.357 7.5 7.5 7.5s7.5-3.358 7.5-7.5c0-27.176-22.109-49.285-49.285-49.285s-49.285 22.109-49.285 49.285z"/><path d="m341.438 481.369h-299.938c-14.612 0-26.5-11.888-26.5-26.5v-155.776c0-14.612 11.888-26.5 26.5-26.5h50.05c4.143 0 7.5-3.358 7.5-7.5s-3.357-7.5-7.5-7.5h-50.05c-22.883 0-41.5 18.617-41.5 41.5v155.777c0 22.883 18.617 41.5 41.5 41.5h299.938c4.143 0 7.5-3.358 7.5-7.5s-3.358-7.501-7.5-7.501z"/><path d="m463.982 257.593h-169.884c.004-.102.015-.203.015-.306 0-23.334-18.983-42.317-42.317-42.317s-42.317 18.983-42.317 42.317c0 .103.011.204.015.306h-87.836c-4.143 0-7.5 3.358-7.5 7.5s3.357 7.5 7.5 7.5h342.324c14.612 0 26.5 11.888 26.5 26.5v155.777c0 14.612-11.888 26.5-26.5 26.5h-92.41c-4.143 0-7.5 3.358-7.5 7.5s3.357 7.5 7.5 7.5h92.41c22.883 0 41.5-18.617 41.5-41.5v-155.777c0-22.884-18.617-41.5-41.5-41.5zm-239.503-.306c0-15.063 12.255-27.317 27.317-27.317s27.317 12.254 27.317 27.317c0 .103.011.204.015.306h-54.666c.005-.103.017-.203.017-.306z"/><path d="m95.034 291.202c0-4.142-3.357-7.5-7.5-7.5h-41.223c-4.143 0-7.5 3.358-7.5 7.5v41.224c0 4.142 3.357 7.5 7.5 7.5h41.224c4.143 0 7.5-3.358 7.5-7.5v-41.224zm-15 33.724h-26.223v-26.224h26.224v26.224z"/><path d="m118.816 339.926h41.224c4.143 0 7.5-3.358 7.5-7.5v-41.224c0-4.142-3.357-7.5-7.5-7.5h-41.224c-4.143 0-7.5 3.358-7.5 7.5v41.224c0 4.142 3.358 7.5 7.5 7.5zm7.5-41.224h26.224v26.224h-26.224z"/><path d="m191.322 339.926h41.225c4.143 0 7.5-3.358 7.5-7.5v-41.224c0-4.142-3.357-7.5-7.5-7.5h-41.225c-4.143 0-7.5 3.358-7.5 7.5v41.224c0 4.142 3.358 7.5 7.5 7.5zm7.5-41.224h26.225v26.224h-26.225z"/><path d="m263.829 339.926h41.224c4.143 0 7.5-3.358 7.5-7.5v-41.224c0-4.142-3.357-7.5-7.5-7.5h-41.224c-4.143 0-7.5 3.358-7.5 7.5v41.224c0 4.142 3.358 7.5 7.5 7.5zm7.5-41.224h26.224v26.224h-26.224z"/><path d="m336.335 339.926h41.224c4.143 0 7.5-3.358 7.5-7.5v-41.224c0-4.142-3.357-7.5-7.5-7.5h-41.224c-4.143 0-7.5 3.358-7.5 7.5v41.224c0 4.142 3.357 7.5 7.5 7.5zm7.5-41.224h26.224v26.224h-26.224z"/><path d="m408.841 339.926h41.225c4.143 0 7.5-3.358 7.5-7.5v-41.224c0-4.142-3.357-7.5-7.5-7.5h-41.225c-4.143 0-7.5 3.358-7.5 7.5v41.224c0 4.142 3.357 7.5 7.5 7.5zm7.5-41.224h26.225v26.224h-26.225z"/><path d="m95.034 355.923c0-4.142-3.357-7.5-7.5-7.5h-41.223c-4.143 0-7.5 3.358-7.5 7.5v41.224c0 4.142 3.357 7.5 7.5 7.5h41.224c4.143 0 7.5-3.358 7.5-7.5v-41.224zm-15 33.724h-26.223v-26.224h26.224v26.224z"/><path d="m118.816 404.647h41.224c4.143 0 7.5-3.358 7.5-7.5v-41.224c0-4.142-3.357-7.5-7.5-7.5h-41.224c-4.143 0-7.5 3.358-7.5 7.5v41.224c0 4.142 3.358 7.5 7.5 7.5zm7.5-41.224h26.224v26.224h-26.224z"/><path d="m183.822 397.147c0 4.142 3.357 7.5 7.5 7.5h41.225c4.143 0 7.5-3.358 7.5-7.5v-41.224c0-4.142-3.357-7.5-7.5-7.5h-41.225c-4.143 0-7.5 3.358-7.5 7.5zm15-33.724h26.225v26.224h-26.225z"/><path d="m256.329 397.147c0 4.142 3.357 7.5 7.5 7.5h41.224c4.143 0 7.5-3.358 7.5-7.5v-41.224c0-4.142-3.357-7.5-7.5-7.5h-41.224c-4.143 0-7.5 3.358-7.5 7.5zm15-33.724h26.224v26.224h-26.224z"/><path d="m328.835 397.147c0 4.142 3.357 7.5 7.5 7.5h41.224c4.143 0 7.5-3.358 7.5-7.5v-41.224c0-4.142-3.357-7.5-7.5-7.5h-41.224c-4.143 0-7.5 3.358-7.5 7.5zm15-33.724h26.224v26.224h-26.224z"/><path d="m401.341 397.147c0 4.142 3.357 7.5 7.5 7.5h41.225c4.143 0 7.5-3.358 7.5-7.5v-41.224c0-4.142-3.357-7.5-7.5-7.5h-41.225c-4.143 0-7.5 3.358-7.5 7.5zm15-33.724h26.225v26.224h-26.225z"/><path d="m87.534 413.145h-41.223c-4.143 0-7.5 3.358-7.5 7.5v41.224c0 4.142 3.357 7.5 7.5 7.5h41.224c4.143 0 7.5-3.358 7.5-7.5v-41.224c-.001-4.142-3.358-7.5-7.501-7.5zm-7.5 41.223h-26.223v-26.224h26.224v26.224z"/><path d="m118.816 469.368h41.224c4.143 0 7.5-3.358 7.5-7.5v-41.224c0-4.142-3.357-7.5-7.5-7.5h-41.224c-4.143 0-7.5 3.358-7.5 7.5v41.224c0 4.142 3.358 7.5 7.5 7.5zm7.5-41.223h26.224v26.224h-26.224z"/><path d="m183.822 461.868c0 4.142 3.357 7.5 7.5 7.5h113.73c4.143 0 7.5-3.358 7.5-7.5v-41.224c0-4.142-3.357-7.5-7.5-7.5h-113.73c-4.143 0-7.5 3.358-7.5 7.5zm15-33.723h98.73v26.224h-98.73z"/><path d="m328.835 461.868c0 4.142 3.357 7.5 7.5 7.5h41.224c4.143 0 7.5-3.358 7.5-7.5v-41.224c0-4.142-3.357-7.5-7.5-7.5h-41.224c-4.143 0-7.5 3.358-7.5 7.5zm15-33.723h26.224v26.224h-26.224z"/><path d="m401.341 461.868c0 4.142 3.357 7.5 7.5 7.5h41.225c4.143 0 7.5-3.358 7.5-7.5v-41.224c0-4.142-3.357-7.5-7.5-7.5h-41.225c-4.143 0-7.5 3.358-7.5 7.5zm15-33.723h26.225v26.224h-26.225z"/></svg>