<svg id="Capa_1" enable-background="new 0 0 512 512" height="512" viewBox="0 0 512 512" width="512" xmlns="http://www.w3.org/2000/svg"><path d="m222.936 105.64c0 4.142 3.357 7.5 7.5 7.5s7.5-3.358 7.5-7.5c0-9.961 8.104-18.064 18.064-18.064s18.064 8.104 18.064 18.064c0 4.142 3.357 7.5 7.5 7.5s7.5-3.358 7.5-7.5c0-18.232-14.833-33.064-33.064-33.064s-33.064 14.832-33.064 33.064z"/><path d="m307.373 105.64c0 4.142 3.357 7.5 7.5 7.5s7.5-3.358 7.5-7.5c0-36.598-29.774-66.373-66.373-66.373s-66.373 29.775-66.373 66.373c0 4.142 3.357 7.5 7.5 7.5s7.5-3.358 7.5-7.5c0-28.327 23.046-51.373 51.373-51.373s51.373 23.046 51.373 51.373z"/><path d="m160.943 113.14c4.143 0 7.5-3.358 7.5-7.5 0-48.279 39.277-87.557 87.557-87.557s87.557 39.278 87.557 87.557c0 4.142 3.357 7.5 7.5 7.5s7.5-3.358 7.5-7.5c0-56.55-46.007-102.557-102.557-102.557s-102.557 46.007-102.557 102.557c0 4.142 3.358 7.5 7.5 7.5z"/><path d="m71 433.369h-31c-4.143 0-7.5 3.358-7.5 7.5v31c0 4.142 3.357 7.5 7.5 7.5h31c4.143 0 7.5-3.358 7.5-7.5v-31c0-4.142-3.357-7.5-7.5-7.5zm-7.5 31h-16v-16h16z"/><path d="m476.129 409.585v-31c0-4.142-3.357-7.5-7.5-7.5h-31c-4.143 0-7.5 3.358-7.5 7.5v31c0 4.142 3.357 7.5 7.5 7.5h31c4.142 0 7.5-3.358 7.5-7.5zm-15-7.5h-16v-16h16z"/><path d="m504.5 341.715h-37.656l-6.691-164.229c-.088-15.103-12.401-27.361-27.524-27.361s-27.438 12.258-27.526 27.361l-6.69 164.229h-201.286c-4.143 0-7.5 3.358-7.5 7.5s3.357 7.5 7.5 7.5h28.249l63.028 137.2h-86.039l-63.101-137.2h27.756c4.143 0 7.5-3.358 7.5-7.5s-3.357-7.5-7.5-7.5h-53.431l-6.69-164.229c-.089-15.103-12.403-27.361-27.526-27.361s-27.437 12.258-27.524 27.361l-6.691 164.229h-37.658c-4.143 0-7.5 3.358-7.5 7.5v152.2c0 4.142 3.357 7.5 7.5 7.5h190.039c.008 0 .016.002.024.002.011 0 .021-.002.032-.002h102.488c.008 0 .016.002.024.002.011 0 .021-.002.032-.002h49.739c.008 0 .016.002.024.002.011 0 .021-.002.032-.002h42.488c.008 0 .016.002.024.002.011 0 .021-.002.032-.002h29.438c4.143 0 7.5-3.358 7.5-7.5s-3.357-7.5-7.5-7.5h-24.666l-63.028-137.2h162.778v137.2h-44.975c-4.143 0-7.5 3.358-7.5 7.5s3.357 7.5 7.5 7.5h52.475c4.143 0 7.5-3.358 7.5-7.5v-152.2c0-4.142-3.357-7.5-7.5-7.5zm-84.403-163.759c.004-.102.006-.203.006-.305 0-6.907 5.619-12.526 12.526-12.526 6.906 0 12.525 5.619 12.525 12.526 0 .102.002.204.006.305l6.671 163.759h-38.406zm-178.214 178.759h33.288l63.028 137.2h-33.287zm-175.043-178.759c.004-.102.006-.203.006-.305 0-6.907 5.619-12.526 12.525-12.526 6.907 0 12.526 5.619 12.526 12.526 0 .102.002.204.006.305l6.671 163.759h-38.405zm-51.84 178.759h107.753l63.101 137.2h-170.854zm365.742 137.2h-26.036l-63.028-137.2h26.037z"/></svg>