<svg id="Capa_1" enable-background="new 0 0 510.08 510.08" height="512" viewBox="0 0 510.08 510.08" width="512" xmlns="http://www.w3.org/2000/svg"><path d="m417.695 161.136c-.83-88.992-73.47-161.136-162.655-161.136s-161.825 72.144-162.655 161.136c-20.408 11.505-34.229 33.376-34.229 58.427 0 34.633 26.4 63.216 60.133 66.683v8.647c0 4.142 3.357 7.5 7.5 7.5h39.89c4.143 0 7.5-3.358 7.5-7.5v-64.574c0-4.142-3.357-7.5-7.5-7.5s-7.5 3.358-7.5 7.5v57.074h-24.89v-8.3-119.059-8.865h24.89v49.381c0 4.142 3.357 7.5 7.5 7.5s7.5-3.358 7.5-7.5v-56.881c0-4.142-3.357-7.5-7.5-7.5h-39.89c-4.143 0-7.5 3.358-7.5 7.5v9.212c-3.67.377-7.247 1.065-10.719 2.013 4.06-77.826 68.653-139.894 147.47-139.894s143.41 62.068 147.47 139.894c-3.472-.947-7.049-1.636-10.719-2.013v-9.212c0-4.142-3.357-7.5-7.5-7.5h-39.89c-4.143 0-7.5 3.358-7.5 7.5v151.224c0 4.142 3.357 7.5 7.5 7.5h39.89c4.143 0 7.5-3.358 7.5-7.5v-8.647c33.733-3.467 60.133-32.049 60.133-66.683 0-25.051-13.82-46.922-34.229-58.427zm-299.406 110.008c-25.442-3.387-45.133-25.228-45.133-51.581s19.69-48.194 45.133-51.581zm258.502 16.249h-24.89v-136.224h24.89v8.865 119.059zm15-16.249v-103.162c25.442 3.387 45.133 25.227 45.133 51.581s-19.691 48.194-45.133 51.581z"/><path d="m376.369 352.203h-84.534c-4.143 0-7.5 3.358-7.5 7.5s3.357 7.5 7.5 7.5h84.534c14.32 0 25.971 11.65 25.971 25.971v6.665h-294.6v-6.665c0-14.32 11.65-25.971 25.971-25.971h126.46c4.143 0 7.5-3.358 7.5-7.5s-3.357-7.5-7.5-7.5h-126.46c-22.592 0-40.971 18.379-40.971 40.971v109.406c0 4.142 3.357 7.5 7.5 7.5h309.6c4.143 0 7.5-3.358 7.5-7.5v-109.407c0-22.591-18.379-40.97-40.971-40.97zm-268.629 142.877v-80.242h294.6v80.242z"/><path d="m347.907 441.265h-185.734c-4.143 0-7.5 3.358-7.5 7.5s3.357 7.5 7.5 7.5h185.734c4.143 0 7.5-3.358 7.5-7.5s-3.357-7.5-7.5-7.5z"/><path d="m303.532 259.664c4.143 0 7.5-3.358 7.5-7.5 0-30.874-25.118-55.992-55.992-55.992s-55.992 25.118-55.992 55.992c0 4.142 3.357 7.5 7.5 7.5s7.5-3.358 7.5-7.5c0-22.603 18.389-40.992 40.992-40.992s40.992 18.389 40.992 40.992c0 4.142 3.358 7.5 7.5 7.5z"/><path d="m255.04 222.819c-16.014 0-29.042 13.028-29.042 29.042 0 4.142 3.357 7.5 7.5 7.5s7.5-3.358 7.5-7.5c0-7.743 6.299-14.042 14.042-14.042s14.042 6.299 14.042 14.042c0 4.142 3.357 7.5 7.5 7.5s7.5-3.358 7.5-7.5c0-16.014-13.028-29.042-29.042-29.042z"/></svg>