<svg id="Capa_1" enable-background="new 0 0 506.286 506.286" height="512" viewBox="0 0 506.286 506.286" width="512" xmlns="http://www.w3.org/2000/svg"><path d="m332.437 454.897c.083-.942-.01-1.896-.281-2.81l-12.582-125.717c0-.007-.001-.014-.002-.022l-17.475-174.615h25.2c4.143 0 7.5-3.358 7.5-7.5s-3.357-7.5-7.5-7.5h-39.242c-3.424-15.117-16.958-26.441-33.095-26.441-16.138 0-29.672 11.324-33.096 26.441h-44.87c-4.143 0-7.5 3.358-7.5 7.5s3.357 7.5 7.5 7.5h30.828l-21.445 214.29c-.412 4.122 2.595 7.797 6.716 8.209.254.025.506.038.756.038 3.806 0 7.066-2.886 7.454-6.754l2.396-23.945 40.654 40.654-49.696 49.696 3.245-32.426c.412-4.122-2.595-7.797-6.716-8.209-4.117-.417-7.798 2.594-8.21 6.716l-5.212 52.086c-.271.912-.364 1.865-.281 2.806l-4.317 43.144c-.211 2.109.48 4.208 1.901 5.779 1.422 1.571 3.442 2.468 5.562 2.468h148.662c2.119 0 4.14-.896 5.562-2.468 1.422-1.571 2.112-3.67 1.901-5.779zm-30.374-152.866-36.496-36.496 29.856-29.856zm4.158 41.542 9.042 90.349-49.695-49.695zm-51.261-218.281c10.443 0 18.94 8.497 18.94 18.941s-8.497 18.941-18.94 18.941c-10.444 0-18.941-8.497-18.941-18.941s8.497-18.941 18.941-18.941zm0 52.882c15.128 0 27.972-9.951 32.341-23.65l6.192 61.871-38.533 38.533-38.533-38.534 6.192-61.87c4.369 13.699 17.213 23.65 32.341 23.65zm-40.463 57.504 29.856 29.857-36.497 36.496zm-8.275 89.202 48.739-48.738 48.739 48.739-48.738 48.738zm-17.305 166.406 3.382-33.792 62.661-62.661 62.661 62.661 3.382 33.792z"/><path d="m224.917 89.775c0-15.564 12.662-28.226 28.226-28.226s28.226 12.662 28.226 28.226c0 4.142 3.357 7.5 7.5 7.5s7.5-3.358 7.5-7.5c0-23.835-19.391-43.226-43.226-43.226s-43.226 19.391-43.226 43.226c0 4.142 3.357 7.5 7.5 7.5s7.5-3.358 7.5-7.5z"/><path d="m253.143 0c-49.502 0-89.774 40.273-89.774 89.775 0 4.142 3.357 7.5 7.5 7.5s7.5-3.358 7.5-7.5c0-41.231 33.544-74.775 74.774-74.775s74.774 33.544 74.774 74.775c0 4.142 3.357 7.5 7.5 7.5s7.5-3.358 7.5-7.5c0-49.502-40.272-89.775-89.774-89.775z"/></svg>