<svg id="Capa_1" enable-background="new 0 0 512 512" height="512" viewBox="0 0 512 512" width="512" xmlns="http://www.w3.org/2000/svg"><path d="m504.5 477.938h-208.323c1.045-3.651 1.617-7.501 1.617-11.483s-.572-7.832-1.617-11.483h208.323c4.142 0 7.5-3.358 7.5-7.5s-3.358-7.5-7.5-7.5h-216.193c-6.16-7.501-14.879-12.817-24.807-14.624v-26.434c0-4.142-3.358-7.5-7.5-7.5s-7.5 3.358-7.5 7.5v26.434c-9.928 1.807-18.647 7.123-24.807 14.624h-216.193c-4.142 0-7.5 3.358-7.5 7.5s3.358 7.5 7.5 7.5h208.323c-1.045 3.651-1.617 7.5-1.617 11.483s.572 7.832 1.617 11.483h-208.323c-4.142 0-7.5 3.358-7.5 7.5s3.358 7.5 7.5 7.5h216.193c7.671 9.341 19.304 15.312 32.307 15.312s24.636-5.97 32.307-15.312h216.193c4.142 0 7.5-3.358 7.5-7.5s-3.358-7.5-7.5-7.5zm-248.5 15.311c-14.774 0-26.794-12.02-26.794-26.795 0-14.774 12.02-26.794 26.794-26.794s26.794 12.02 26.794 26.794c0 14.775-12.02 26.795-26.794 26.795z"/><path d="m359.21 130.829c4.142 0 7.5-3.358 7.5-7.5s-3.358-7.5-7.5-7.5h-14.103v-14.934c0-4.142-3.358-7.5-7.5-7.5h-163.213c-4.142 0-7.5 3.358-7.5 7.5v14.934h-14.561c-4.142 0-7.5 3.358-7.5 7.5s3.358 7.5 7.5 7.5h14.561v12.814h-14.561c-4.142 0-7.5 3.358-7.5 7.5s3.358 7.5 7.5 7.5h14.561v12.814h-14.561c-4.142 0-7.5 3.358-7.5 7.5s3.358 7.5 7.5 7.5h14.561v12.814h-14.561c-4.142 0-7.5 3.358-7.5 7.5s3.358 7.5 7.5 7.5h14.561v12.814h-14.561c-4.142 0-7.5 3.358-7.5 7.5s3.358 7.5 7.5 7.5h14.561v12.814h-14.561c-4.142 0-7.5 3.358-7.5 7.5s3.358 7.5 7.5 7.5h14.561v12.814h-14.561c-4.142 0-7.5 3.358-7.5 7.5s3.358 7.5 7.5 7.5h14.561v12.814h-14.561c-4.142 0-7.5 3.358-7.5 7.5s3.358 7.5 7.5 7.5h14.561v14.934c0 4.142 3.358 7.5 7.5 7.5h163.213c4.142 0 7.5-3.358 7.5-7.5v-14.934h14.103c4.142 0 7.5-3.358 7.5-7.5s-3.358-7.5-7.5-7.5h-14.103v-12.814h14.103c4.142 0 7.5-3.358 7.5-7.5s-3.358-7.5-7.5-7.5h-14.103v-12.814h14.103c4.142 0 7.5-3.358 7.5-7.5s-3.358-7.5-7.5-7.5h-14.103v-12.814h14.103c4.142 0 7.5-3.358 7.5-7.5s-3.358-7.5-7.5-7.5h-14.103v-12.814h14.103c4.142 0 7.5-3.358 7.5-7.5s-3.358-7.5-7.5-7.5h-14.103v-12.814h14.103c4.142 0 7.5-3.358 7.5-7.5s-3.358-7.5-7.5-7.5h-14.103v-12.814h14.103c4.142 0 7.5-3.358 7.5-7.5s-3.358-7.5-7.5-7.5h-14.103v-12.814zm-177.316 202.132v-224.566h148.213v14.334c-.016.198-.03.397-.03.6s.015.401.03.6v26.614c-.016.198-.03.397-.03.6s.015.401.03.6v26.614c-.016.198-.03.397-.03.6s.015.401.03.6v26.614c-.016.198-.03.397-.03.6s.015.401.03.6v26.614c-.016.198-.03.397-.03.6s.015.401.03.6v26.614c-.016.198-.03.397-.03.6s.015.401.03.6v26.614c-.016.198-.03.397-.03.6s.015.401.03.6v26.614c-.016.198-.03.397-.03.6s.015.401.03.6v14.334z"/><path d="m81.662 126.939c4.142 0 7.5-3.358 7.5-7.5v-100.688h333.676v13.354h-23.604c-4.142 0-7.5 3.358-7.5 7.5v5.428h-131.915c-4.142 0-7.5 3.358-7.5 7.5s3.358 7.5 7.5 7.5h131.916v7.585c0 4.142 3.358 7.5 7.5 7.5h23.604v207.134c0 4.142 3.358 7.5 7.5 7.5s7.5-3.358 7.5-7.5v-214.634c0-4.142-3.358-7.5-7.5-7.5h-23.604v-13.013h23.604c4.142 0 7.5-3.358 7.5-7.5v-28.354c0-4.142-3.358-7.5-7.5-7.5h-348.677c-4.142 0-7.5 3.358-7.5 7.5v108.188c0 4.142 3.358 7.5 7.5 7.5z"/><path d="m81.662 387.694h348.676c4.142 0 7.5-3.358 7.5-7.5v-62.167c0-4.142-3.358-7.5-7.5-7.5s-7.5 3.358-7.5 7.5v54.667h-333.676v-23.941h24.083c4.142 0 7.5-3.358 7.5-7.5v-56.027c0-4.142-3.358-7.5-7.5-7.5h-24.083v-20.155h24.083c4.142 0 7.5-3.358 7.5-7.5v-37.01c0-4.142-3.358-7.5-7.5-7.5h-24.083v-56.014c0-4.142-3.358-7.5-7.5-7.5s-7.5 3.358-7.5 7.5v63.514c0 4.142 3.358 7.5 7.5 7.5h24.083v22.01h-24.083c-4.142 0-7.5 3.358-7.5 7.5v35.155c0 4.142 3.358 7.5 7.5 7.5h24.083v41.027h-24.083c-4.142 0-7.5 3.358-7.5 7.5v38.941c0 4.142 3.358 7.5 7.5 7.5z"/><path d="m256 132.692c-18.616 0-33.762 15.145-33.762 33.761s15.146 33.761 33.762 33.761 33.762-15.145 33.762-33.761-15.146-33.761-33.762-33.761zm-18.762 33.762c0-7.678 4.641-14.286 11.262-17.186v34.373c-6.62-2.902-11.262-9.509-11.262-17.187zm26.262 17.186v-34.373c6.62 2.901 11.262 9.508 11.262 17.186s-4.642 14.286-11.262 17.187z"/><path d="m256 234.695c-18.616 0-33.762 15.145-33.762 33.761s15.146 33.761 33.762 33.761 33.762-15.145 33.762-33.761-15.146-33.761-33.762-33.761zm-18.762 33.761c0-7.678 4.641-14.286 11.262-17.186v34.373c-6.62-2.901-11.262-9.509-11.262-17.187zm26.262 17.186v-34.372c6.62 2.901 11.262 9.508 11.262 17.186s-4.642 14.286-11.262 17.186z"/><circle cx="127.733" cy="53.866" r="10.014"/><circle cx="170.272" cy="53.866" r="10.014"/><circle cx="212.812" cy="53.866" r="10.014"/></svg>