<svg id="Capa_1" enable-background="new 0 0 504.577 504.577" height="512" viewBox="0 0 504.577 504.577" width="512" xmlns="http://www.w3.org/2000/svg"><path d="m475.51 214.666c0-40.125-22.593-77.351-57.979-96.241.083-1.771.125-3.53.125-5.266 0-62.396-50.762-113.159-113.158-113.159-25.724 0-50.905 8.866-70.905 24.965-17.359 13.973-30.271 32.893-36.973 53.956-4.354-1.384-8.917-2.098-13.517-2.098-18.895 0-35.3 11.591-41.76 28.836h-3.268c-7.175 0-14.358.711-21.351 2.114-4.061.814-6.693 4.767-5.878 8.828.814 4.061 4.766 6.693 8.828 5.879 6.023-1.208 12.215-1.821 18.401-1.821h8.831c3.499 0 6.532-2.419 7.312-5.829 3.096-13.546 14.974-23.007 28.885-23.007 5.164 0 10.254 1.355 14.723 3.92 2.059 1.181 4.556 1.319 6.731.37 2.176-.949 3.774-2.871 4.309-5.184 4.917-21.243 17.039-40.52 34.133-54.28 17.594-14.163 38.861-21.649 61.499-21.649 54.125 0 98.159 44.034 98.159 98.159 0 2.955-.141 5.996-.418 9.039-.286 3.132 1.413 6.11 4.255 7.458 32.814 15.564 54.017 48.933 54.017 85.011 0 51.69-41.936 93.766-93.573 94.002v-97.327c0-4.142-3.358-7.5-7.5-7.5h-214.298c-4.142 0-7.5 3.358-7.5 7.5v97.326c-51.636-.236-93.573-42.312-93.573-94.002 0-33.923 18.525-65.377 48.345-82.088 3.613-2.025 4.901-6.596 2.876-10.209s-6.596-4.9-10.209-2.876c-34.549 19.361-56.012 55.829-56.012 95.173 0 59.961 48.666 108.766 108.573 109.002v51.243c0 4.142 3.358 7.5 7.5 7.5s7.5-3.358 7.5-7.5v-156.07h199.297v270.735h-199.297v-82.502c0-4.142-3.358-7.5-7.5-7.5s-7.5 3.358-7.5 7.5v90.002c0 4.142 3.358 7.5 7.5 7.5h214.297c4.142 0 7.5-3.358 7.5-7.5v-173.408c59.907-.235 108.573-49.04 108.573-109.002z"/><path d="m232.612 174.122c0 4.142 3.358 7.5 7.5 7.5s7.5-3.358 7.5-7.5c0-7.376 6.001-13.377 13.377-13.377s13.377 6.001 13.377 13.377c0 4.142 3.358 7.5 7.5 7.5s7.5-3.358 7.5-7.5c0-15.647-12.73-28.377-28.377-28.377s-28.377 12.73-28.377 28.377z"/><path d="m301.569 174.122c0 4.142 3.358 7.5 7.5 7.5s7.5-3.358 7.5-7.5c0-30.647-24.933-55.58-55.58-55.58s-55.58 24.933-55.58 55.58c0 4.142 3.358 7.5 7.5 7.5s7.5-3.358 7.5-7.5c0-22.376 18.204-40.58 40.58-40.58s40.58 18.204 40.58 40.58z"/><path d="m176.654 275.565h155.056c4.142 0 7.5-3.358 7.5-7.5s-3.358-7.5-7.5-7.5h-155.056c-4.142 0-7.5 3.358-7.5 7.5s3.358 7.5 7.5 7.5z"/><path d="m176.654 323.385h155.056c4.142 0 7.5-3.358 7.5-7.5s-3.358-7.5-7.5-7.5h-155.056c-4.142 0-7.5 3.358-7.5 7.5s3.358 7.5 7.5 7.5z"/><path d="m176.654 371.205h155.056c4.142 0 7.5-3.358 7.5-7.5s-3.358-7.5-7.5-7.5h-155.056c-4.142 0-7.5 3.358-7.5 7.5s3.358 7.5 7.5 7.5z"/><path d="m176.654 419.025h155.056c4.142 0 7.5-3.358 7.5-7.5s-3.358-7.5-7.5-7.5h-155.056c-4.142 0-7.5 3.358-7.5 7.5s3.358 7.5 7.5 7.5z"/><path d="m176.654 466.844h155.056c4.142 0 7.5-3.358 7.5-7.5s-3.358-7.5-7.5-7.5h-155.056c-4.142 0-7.5 3.358-7.5 7.5s3.358 7.5 7.5 7.5z"/></svg>