<svg id="Capa_1" enable-background="new 0 0 509.593 509.593" height="512" viewBox="0 0 509.593 509.593" width="512" xmlns="http://www.w3.org/2000/svg"><path d="m468.638 402.525c6.994-9.812 11.199-22.363 11.199-36.026 0-27.721-17.308-50.856-40.114-55.825v-60.314c5.51-2.757 9.302-8.438 9.302-15.018s-3.792-12.261-9.302-15.019v-54.486c0-4.142-3.357-7.5-7.5-7.5h-14.111c.075-1.406.117-2.821.117-4.245 0-28.685-15.895-55.33-40.894-69.247.024-.819.037-1.633.037-2.439 0-45.28-36.838-82.117-82.118-82.117-18.667 0-36.94 6.434-51.456 18.117-12.037 9.689-21.127 22.658-26.155 37.13-2.646-.657-5.374-.994-8.12-.994-13.749 0-25.754 8.125-30.982 20.364h-.817c-43.663 0-79.186 35.523-79.186 79.186 0 1.421.046 2.835.122 4.245h-19.449c-4.142 0-7.5 3.358-7.5 7.5v43.518c-5.51 2.757-9.302 8.438-9.302 15.019 0 6.58 3.792 12.261 9.302 15.018v70.939c-23.627 4.177-41.781 27.774-41.781 56.169 0 13.795 4.289 26.454 11.404 36.308-25.274 13.355-41.194 39.407-41.263 68.719l-.071 29.921c-.005 1.989.781 3.899 2.184 5.309s3.309 2.205 5.298 2.209l143.073.338h.018c4.134 0 7.49-3.346 7.5-7.482l.071-29.921c.068-29.106-15.669-55.404-40.773-69.298 4.041-5.713 7.167-12.416 9.086-19.874 1.033-4.011-1.383-8.1-5.394-9.133-4.012-1.033-8.101 1.383-9.132 5.394-4.445 17.272-17.899 29.335-32.719 29.335-18.902 0-34.281-18.763-34.281-41.826s15.378-41.826 34.281-41.826c13.499 0 25.794 9.751 31.323 24.842 1.425 3.89 5.733 5.886 9.623 4.462 3.889-1.425 5.887-5.733 4.462-9.622-6.732-18.375-21.151-31.077-37.907-34.024v-70.94c5.51-2.757 9.301-8.438 9.301-15.018s-3.792-12.261-9.301-15.018v-36.018h14.207c3.34 13.3 10.129 25.586 19.921 35.716 14.343 14.838 33.512 23.422 53.976 24.171 4.145.156 7.618-3.081 7.77-7.22.151-4.139-3.082-7.618-7.221-7.769-16.571-.607-32.104-7.57-43.739-19.607-11.663-12.065-18.085-27.882-18.085-44.536 0-35.392 28.793-64.186 64.186-64.186h6.237c3.499 0 6.532-2.419 7.312-5.829 1.956-8.558 9.46-14.535 18.25-14.535 3.262 0 6.479.856 9.301 2.476 2.059 1.181 4.555 1.319 6.731.37s3.774-2.871 4.309-5.184c3.361-14.524 11.65-27.704 23.34-37.114 12.03-9.684 26.571-14.802 42.05-14.802 37.009 0 67.118 30.109 67.118 67.117 0 2.018-.097 4.098-.286 6.184-.286 3.132 1.413 6.109 4.255 7.457 22.408 10.629 36.888 33.413 36.888 58.045 0 35.392-28.794 64.186-64.186 64.186h-131.83c-4.142 0-7.5 3.358-7.5 7.5s3.358 7.5 7.5 7.5h41v23.17c-6.225 2.46-10.635 8.518-10.635 15.618s4.41 13.157 10.635 15.618v22.491c0 .011.002.023.002.034-24.031 3.765-42.615 27.566-42.615 56.292 0 13.66 4.203 26.207 11.194 36.019-25.116 13.85-40.951 40.194-40.951 69.196v29.921c0 4.142 3.358 7.5 7.5 7.5h143.074c4.143 0 7.5-3.358 7.5-7.5v-29.921c0-29.001-15.834-55.345-40.951-69.196 6.991-9.811 11.194-22.359 11.194-36.019 0-28.065-17.739-51.427-40.964-56.001.005-.109.016-.216.016-.326v-23.836c4.776-2.963 7.968-8.238 7.968-14.272s-3.192-11.31-7.968-14.272v-24.515h75.826c37.027 0 68.188-25.549 76.809-59.941h8.871v46.987c-5.51 2.757-9.301 8.438-9.301 15.018s3.792 12.261 9.301 15.018v59.725c-24.432 3.34-43.447 27.358-43.447 56.414 0 13.66 4.203 26.208 11.195 36.019-25.116 13.85-40.95 40.194-40.95 69.195v29.921c0 4.142 3.357 7.5 7.5 7.5h143.073c4.143 0 7.5-3.358 7.5-7.5v-29.921c0-28.898-15.865-55.326-40.955-69.188zm-362.093 11.379c22.402 10.673 36.658 33.047 36.599 57.962l-.053 22.421-128.073-.302.053-22.421c.06-25.595 14.269-47.321 37.297-57.444 7.729 5.813 16.947 9.207 26.843 9.207 10.052-.001 19.468-3.413 27.334-9.423zm212.376 57.81v22.421h-128.074v-22.421c0-24.839 14.351-47.283 36.78-57.902 7.812 6.004 17.185 9.513 27.257 9.513s19.445-3.509 27.257-9.513c22.428 10.62 36.78 33.063 36.78 57.902zm-29.757-105.214c0 23.063-15.378 41.826-34.28 41.826s-34.281-18.763-34.281-41.826 15.378-41.826 34.281-41.826 34.28 18.763 34.28 41.826zm141.393-41.826c18.902 0 34.28 18.763 34.28 41.826s-15.378 41.826-34.28 41.826-34.281-18.763-34.281-41.826 15.378-41.826 34.281-41.826zm64.036 169.461h-128.073v-22.421c0-24.839 14.351-47.283 36.78-57.902 7.812 6.004 17.185 9.513 27.257 9.513 10.07 0 19.441-3.508 27.252-9.51 22.403 10.621 36.784 33.146 36.784 57.898z"/></svg>