<svg id="Capa_1" enable-background="new 0 0 510.79 510.79" height="512" viewBox="0 0 510.79 510.79" width="512" xmlns="http://www.w3.org/2000/svg"><path d="m488.331 51.649c-.315-26.479-21.953-47.924-48.505-47.924-20.007 0-37.471 11.976-44.843 29.936-.754-.079-1.513-.119-2.274-.119-8.157 0-15.369 4.401-19.147 11.221-25.09.882-45.227 21.568-45.227 46.869 0 25.859 21.038 46.898 46.897 46.898h12.143c4.143 0 7.5-3.358 7.5-7.5s-3.357-7.5-7.5-7.5h-12.143c-17.588 0-31.897-14.309-31.897-31.898 0-17.588 14.31-31.898 31.897-31.898h3.428c3.498 0 6.532-2.418 7.312-5.829.71-3.108 3.544-5.363 6.737-5.363 1.221 0 2.375.307 3.429.912 2.062 1.183 4.558 1.319 6.731.371 2.176-.949 3.774-2.871 4.31-5.184 3.532-15.259 16.957-25.916 32.647-25.916 18.477 0 33.509 15.032 33.509 33.509 0 1.012-.048 2.052-.143 3.092-.286 3.132 1.413 6.11 4.255 7.457 11.143 5.285 18.343 16.609 18.343 28.849 0 17.588-14.31 31.898-31.898 31.898h-46.408c-4.143 0-7.5 3.358-7.5 7.5s3.357 7.5 7.5 7.5h46.408c25.86 0 46.898-21.038 46.898-46.898 0-16.309-8.671-31.503-22.459-39.983z"/><path d="m332.506 161.086h-162.459c-.015 0-.029.002-.043.002-.015 0-.029-.002-.043-.002h-60.814c-4.143 0-7.5 3.358-7.5 7.5s3.357 7.5 7.5 7.5h53.314v83.599h-147.461v-83.599h64.037c4.143 0 7.5-3.358 7.5-7.5s-3.357-7.5-7.5-7.5h-71.537c-4.143 0-7.5 3.358-7.5 7.5v258.278 34.54 38.16c0 4.142 3.357 7.5 7.5 7.5h162.46c.015 0 .029-.002.043-.002s.029.002.043.002h162.459c4.143 0 7.5-3.358 7.5-7.5v-38.16-34.54-258.278c.001-4.142-3.357-7.5-7.499-7.5zm-7.5 292.818h-147.459v-19.54h147.459zm0-78.24h-147.459v-23.66h147.459zm0-38.66h-147.459v-23.66h147.459zm0-38.66h-147.459v-23.66h147.459zm-162.546 38.66h-147.46v-23.66h147.46zm0 15v23.66h-147.46v-23.66zm0 38.66v28.7h-147.46v-28.7zm-147.46 43.7h147.46v19.54h-147.46zm162.547-15v-28.7h147.459v28.7zm147.459-243.278v83.599h-147.459v-83.599zm-162.546 98.599v23.66h-147.46v-23.66zm-147.46 217.38v-23.16h147.46v23.16zm162.547 0v-23.16h147.459v23.16z"/><path d="m249.891 236.694c11.147 0 20.216-9.069 20.216-20.216s-9.068-20.216-20.216-20.216-20.216 9.069-20.216 20.216 9.068 20.216 20.216 20.216zm0-25.431c2.876 0 5.216 2.34 5.216 5.216s-2.34 5.216-5.216 5.216-5.216-2.34-5.216-5.216 2.34-5.216 5.216-5.216z"/><path d="m297.72 236.694c11.147 0 20.216-9.069 20.216-20.216s-9.068-20.216-20.216-20.216-20.216 9.069-20.216 20.216 9.068 20.216 20.216 20.216zm0-25.431c2.876 0 5.216 2.34 5.216 5.216s-2.34 5.216-5.216 5.216-5.216-2.34-5.216-5.216 2.34-5.216 5.216-5.216z"/><path d="m202.824 236.694c11.147 0 20.216-9.069 20.216-20.216s-9.068-20.216-20.216-20.216-20.216 9.069-20.216 20.216 9.069 20.216 20.216 20.216zm0-25.431c2.876 0 5.216 2.34 5.216 5.216s-2.34 5.216-5.216 5.216-5.216-2.34-5.216-5.216 2.34-5.216 5.216-5.216z"/><path d="m67.128 216.478c0 11.147 9.068 20.216 20.216 20.216s20.216-9.069 20.216-20.216-9.068-20.216-20.216-20.216-20.216 9.069-20.216 20.216zm20.216-5.215c2.876 0 5.216 2.34 5.216 5.216s-2.34 5.216-5.216 5.216-5.216-2.34-5.216-5.216 2.34-5.216 5.216-5.216z"/><path d="m155.389 216.478c0-11.147-9.068-20.216-20.216-20.216-11.146 0-20.215 9.069-20.215 20.216s9.068 20.216 20.215 20.216 20.216-9.069 20.216-20.216zm-25.431 0c0-2.876 2.34-5.216 5.215-5.216 2.876 0 5.216 2.34 5.216 5.216s-2.34 5.216-5.216 5.216c-2.875 0-5.215-2.34-5.215-5.216z"/><path d="m20.062 216.478c0 11.147 9.068 20.216 20.216 20.216s20.216-9.069 20.216-20.216-9.068-20.216-20.216-20.216-20.216 9.069-20.216 20.216zm25.431 0c0 2.876-2.34 5.216-5.216 5.216s-5.216-2.34-5.216-5.216 2.34-5.216 5.216-5.216 5.216 2.34 5.216 5.216z"/><path d="m443.868 151.977c-1.648-3.002-5.123-4.506-8.438-3.656-3.317.851-5.637 3.84-5.637 7.265 0 21.227-6.713 41.394-19.412 58.322-12.288 16.379-29.771 28.696-49.23 34.682-3.959 1.218-6.182 5.415-4.964 9.374.992 3.225 3.96 5.297 7.166 5.297.73 0 1.474-.107 2.208-.333 22.465-6.91 42.644-21.122 56.818-40.017 9.687-12.911 16.356-27.453 19.769-42.898l4.071 7.416c1.993 3.63 6.553 4.96 10.184 2.965 3.631-1.993 4.958-6.553 2.965-10.184z"/><path d="m221.622 144.668c1.132 2.906 3.927 4.777 6.984 4.777.3 0 .603-.018.905-.055 3.4-.412 6.089-3.074 6.535-6.469 2.763-21.046 12.044-40.168 26.839-55.299 14.315-14.64 33.254-24.576 53.326-27.978 4.084-.692 6.834-4.564 6.142-8.648-.691-4.084-4.561-6.833-8.647-6.141-23.174 3.927-45.03 15.391-61.545 32.28-11.285 11.541-19.791 25.09-25.184 39.959l-3.071-7.882c-1.504-3.859-5.85-5.769-9.711-4.265-3.859 1.504-5.77 5.852-4.266 9.711z"/></svg>